SpartanTT-SemiBold.ufo
<glyph name="exclam" format="2">
  <advance width="759"/>
  <unicode hex="0021"/>
  <outline>
    <component base="period" xOffset="-17"/>
    <contour>
      <point x="467" y="459" type="line"/>
      <point x="497" y="1720" type="line"/>
      <point x="261" y="1720" type="line"/>
      <point x="291" y="459" type="line"/>
    </contour>
  </outline>
</glyph>
<glyph name="numbersign" format="2">
  <advance width="1511"/>
  <unicode hex="0023"/>
  <outline>
    <contour>
      <point x="469" y="0" type="line"/>
      <point x="523" y="428" type="line"/>
      <point x="899" y="428" type="line"/>
      <point x="845" y="0" type="line"/>
      <point x="1006" y="0" type="line"/>
      <point x="1060" y="428" type="line"/>
      <point x="1341" y="428" type="line"/>
      <point x="1341" y="590" type="line"/>
      <point x="1080" y="590" type="line"/>
      <point x="1127" y="948" type="line"/>
      <point x="1341" y="948" type="line"/>
      <point x="1341" y="1110" type="line"/>
      <point x="1147" y="1110" type="line"/>
      <point x="1203" y="1538" type="line"/>
      <point x="1041" y="1538" type="line"/>
      <point x="985" y="1110" type="line"/>
      <point x="610" y="1110" type="line"/>
      <point x="666" y="1538" type="line"/>
      <point x="503" y="1538" type="line"/>
      <point x="449" y="1110" type="line"/>
      <point x="170" y="1110" type="line"/>
      <point x="170" y="948" type="line"/>
      <point x="429" y="948" type="line"/>
      <point x="382" y="590" type="line"/>
      <point x="170" y="590" type="line"/>
      <point x="170" y="428" type="line"/>
      <point x="361" y="428" type="line"/>
      <point x="307" y="0" type="line"/>
    </contour>
    <contour>
      <point x="591" y="948" type="line"/>
      <point x="966" y="948" type="line"/>
      <point x="919" y="590" type="line"/>
      <point x="543" y="590" type="line"/>
    </contour>
  </outline>
</glyph>
<glyph name="dollar" format="2">
  <advance width="1458"/>
  <unicode hex="0024"/>
  <outline>
    <component base="S" xOffset="52"/>
    <contour>
      <point x="685" y="1926" type="line"/>
      <point x="685" y="1670" type="line"/>
      <point x="834" y="1670" type="line"/>
      <point x="834" y="1926" type="line"/>
    </contour>
    <contour>
      <point x="685" y="-19" type="line"/>
      <point x="685" y="-276" type="line"/>
      <point x="834" y="-276" type="line"/>
      <point x="834" y="-19" type="line"/>
    </contour>
  </outline>
</glyph>
<glyph name="percent" format="2">
  <advance width="2110"/>
  <unicode hex="0025"/>
  <outline>
    <contour>
      <point x="561" y="892" type="curve" smooth="yes"/>
      <point x="802" y="892"/>
      <point x="987" y="1054"/>
      <point x="987" y="1286" type="curve" smooth="yes"/>
      <point x="987" y="1518"/>
      <point x="802" y="1680"/>
      <point x="561" y="1680" type="curve" smooth="yes"/>
      <point x="320" y="1680"/>
      <point x="135" y="1518"/>
      <point x="135" y="1286" type="curve" smooth="yes"/>
      <point x="135" y="1054"/>
      <point x="320" y="892"/>
    </contour>
    <contour>
      <point x="561" y="1041" type="curve" smooth="yes"/>
      <point x="423" y="1041"/>
      <point x="316" y="1142"/>
      <point x="316" y="1286" type="curve" smooth="yes"/>
      <point x="316" y="1430"/>
      <point x="423" y="1531"/>
      <point x="561" y="1531" type="curve" smooth="yes"/>
      <point x="699" y="1531"/>
      <point x="806" y="1430"/>
      <point x="806" y="1286" type="curve" smooth="yes"/>
      <point x="806" y="1142"/>
      <point x="699" y="1041"/>
    </contour>
    <contour>
      <point x="1548" y="-32" type="curve" smooth="yes"/>
      <point x="1789" y="-32"/>
      <point x="1974" y="130"/>
      <point x="1974" y="362" type="curve" smooth="yes"/>
      <point x="1974" y="594"/>
      <point x="1789" y="756"/>
      <point x="1548" y="756" type="curve" smooth="yes"/>
      <point x="1307" y="756"/>
      <point x="1122" y="594"/>
      <point x="1122" y="362" type="curve" smooth="yes"/>
      <point x="1122" y="130"/>
      <point x="1307" y="-32"/>
    </contour>
    <contour>
      <point x="1548" y="117" type="curve" smooth="yes"/>
      <point x="1410" y="117"/>
      <point x="1303" y="218"/>
      <point x="1303" y="362" type="curve" smooth="yes"/>
      <point x="1303" y="506"/>
      <point x="1410" y="607"/>
      <point x="1548" y="607" type="curve" smooth="yes"/>
      <point x="1686" y="607"/>
      <point x="1793" y="506"/>
      <point x="1793" y="362" type="curve" smooth="yes"/>
      <point x="1793" y="218"/>
      <point x="1686" y="117"/>
    </contour>
    <contour>
      <point x="657" y="0" type="line"/>
      <point x="1618" y="1650" type="line"/>
      <point x="1451" y="1650" type="line"/>
      <point x="491" y="0" type="line"/>
    </contour>
  </outline>
</glyph>
<glyph name="ampersand" format="2">
  <advance width="1817"/>
  <unicode hex="0026"/>
  <outline>
    <contour>
      <point x="661" y="-32" type="curve" smooth="yes"/>
      <point x="868" y="-32"/>
      <point x="1055" y="55"/>
      <point x="1213" y="208" type="curve"/>
      <point x="1407" y="0" type="line" name=".hr01"/>
      <point x="1719" y="0" type="line"/>
      <point x="1397" y="345" type="line"/>
      <point x="1462" y="410"/>
      <point x="1547" y="513"/>
      <point x="1612" y="599" type="curve"/>
      <point x="1457" y="742" type="line"/>
      <point x="1416" y="692"/>
      <point x="1305" y="560"/>
      <point x="1241" y="505" type="curve"/>
      <point x="894" y="877" type="line"/>
      <point x="1113" y="990"/>
      <point x="1231" y="1116"/>
      <point x="1231" y="1290" type="curve" smooth="yes"/>
      <point x="1231" y="1489"/>
      <point x="1076" y="1681"/>
      <point x="790" y="1681" type="curve" smooth="yes"/>
      <point x="542" y="1681"/>
      <point x="345" y="1533"/>
      <point x="345" y="1291" type="curve" smooth="yes"/>
      <point x="345" y="1170"/>
      <point x="396" y="1068"/>
      <point x="543" y="907" type="curve"/>
      <point x="278" y="791"/>
      <point x="145" y="631" name=".hr02"/>
      <point x="145" y="415" type="curve" smooth="yes"/>
      <point x="145" y="139"/>
      <point x="363" y="-32"/>
    </contour>
    <contour>
      <point x="693" y="204" type="curve" smooth="yes"/>
      <point x="544" y="204"/>
      <point x="422" y="292"/>
      <point x="422" y="450" type="curve" smooth="yes"/>
      <point x="422" y="586"/>
      <point x="514" y="704"/>
      <point x="673" y="772" type="curve"/>
      <point x="1052" y="377" type="line"/>
      <point x="942" y="266"/>
      <point x="817" y="204"/>
    </contour>
    <contour>
      <point x="765" y="1016" type="curve"/>
      <point x="640" y="1135"/>
      <point x="596" y="1209"/>
      <point x="596" y="1296" type="curve" smooth="yes"/>
      <point x="596" y="1416" name=".hr03"/>
      <point x="681" y="1500"/>
      <point x="801" y="1500" type="curve" smooth="yes"/>
      <point x="921" y="1500"/>
      <point x="1012" y="1416"/>
      <point x="1012" y="1292" type="curve" smooth="yes"/>
      <point x="1012" y="1171"/>
      <point x="925" y="1100"/>
    </contour>
  </outline>
</glyph>
<glyph name="quotesingle" format="2">
  <advance width="660"/>
  <unicode hex="0027"/>
  <outline>
    <contour>
      <point x="404" y="1166" type="line"/>
      <point x="447" y="1720" type="line"/>
      <point x="213" y="1720" type="line"/>
      <point x="256" y="1166" type="line"/>
    </contour>
  </outline>
</glyph>
<glyph name="parenleft" format="2">
  <advance width="743"/>
  <unicode hex="0028"/>
  <outline>
    <contour>
      <point x="649" y="-449" type="line"/>
      <point x="517" y="-250"/>
      <point x="360" y="130"/>
      <point x="360" y="614" type="curve" smooth="yes"/>
      <point x="360" y="1107"/>
      <point x="519" y="1486"/>
      <point x="649" y="1679" type="curve"/>
      <point x="499" y="1750" type="line"/>
      <point x="340" y="1546"/>
      <point x="137" y="1132"/>
      <point x="137" y="614" type="curve" smooth="yes"/>
      <point x="137" y="97"/>
      <point x="340" y="-315"/>
      <point x="499" y="-520" type="curve"/>
    </contour>
  </outline>
</glyph>
<glyph name="asterisk" format="2">
  <advance width="961"/>
  <unicode hex="002A"/>
  <outline>
    <contour>
      <point x="479" y="1332" type="line"/>
      <point x="602" y="1171" type="line"/>
      <point x="690" y="1232" type="line"/>
      <point x="574" y="1403" type="line"/>
      <point x="771" y="1471" type="line"/>
      <point x="736" y="1577" type="line"/>
      <point x="539" y="1516" type="line"/>
      <point x="539" y="1720" type="line"/>
      <point x="421" y="1720" type="line"/>
      <point x="421" y="1516" type="line"/>
      <point x="224" y="1577" type="line"/>
      <point x="189" y="1471" type="line"/>
      <point x="386" y="1403" type="line"/>
      <point x="269" y="1232" type="line"/>
      <point x="358" y="1171" type="line"/>
    </contour>
  </outline>
</glyph>
<glyph name="plus" format="2">
  <advance width="1380"/>
  <unicode hex="002B"/>
  <outline>
    <contour>
      <point x="792" y="316" type="line"/>
      <point x="792" y="726" type="line"/>
      <point x="1202" y="726" type="line"/>
      <point x="1202" y="931" type="line"/>
      <point x="792" y="931" type="line"/>
      <point x="792" y="1341" type="line"/>
      <point x="587" y="1341" type="line"/>
      <point x="587" y="931" type="line"/>
      <point x="177" y="931" type="line"/>
      <point x="177" y="726" type="line"/>
      <point x="587" y="726" type="line"/>
      <point x="587" y="316" type="line"/>
    </contour>
  </outline>
</glyph>
<glyph name="comma" format="2">
  <advance width="743"/>
  <unicode hex="002C"/>
  <outline>
    <contour>
      <point x="301" y="-301" type="line"/>
      <point x="445" y="-184"/>
      <point x="539" y="-25"/>
      <point x="539" y="106" type="curve" smooth="yes"/>
      <point x="539" y="218"/>
      <point x="468" y="284"/>
      <point x="378" y="284" type="curve" smooth="yes"/>
      <point x="287" y="284"/>
      <point x="218" y="216"/>
      <point x="218" y="128" type="curve" smooth="yes"/>
      <point x="218" y="55"/>
      <point x="266" y="-3"/>
      <point x="341" y="-20" type="curve"/>
      <point x="331" y="-98"/>
      <point x="280" y="-202"/>
      <point x="235" y="-247" type="curve"/>
    </contour>
  </outline>
</glyph>
<glyph name="period" format="2">
  <advance width="750"/>
  <unicode hex="002E"/>
  <outline>
    <contour>
      <point x="375" y="-32" type="curve" smooth="yes"/>
      <point x="463" y="-32"/>
      <point x="533" y="38"/>
      <point x="533" y="126" type="curve" smooth="yes"/>
      <point x="533" y="214"/>
      <point x="463" y="284"/>
      <point x="375" y="284" type="curve" smooth="yes"/>
      <point x="287" y="284"/>
      <point x="217" y="214"/>
      <point x="217" y="126" type="curve" smooth="yes"/>
      <point x="217" y="38"/>
      <point x="287" y="-32"/>
    </contour>
  </outline>
</glyph>
<glyph name="slash" format="2">
  <advance width="1026"/>
  <unicode hex="002F"/>
  <outline>
    <contour>
      <point x="201" y="-240" type="line"/>
      <point x="1025" y="1720" type="line"/>
      <point x="824" y="1720" type="line"/>
      <point x="0" y="-240" type="line"/>
    </contour>
  </outline>
</glyph>
<glyph name="zero" format="2">
  <advance width="1500"/>
  <unicode hex="0030"/>
  <outline>
    <contour>
      <point x="750" y="-32" type="curve" smooth="yes"/>
      <point x="1154" y="-32"/>
      <point x="1426" y="314"/>
      <point x="1426" y="824" type="curve" smooth="yes"/>
      <point x="1426" y="1334"/>
      <point x="1154" y="1680"/>
      <point x="750" y="1680" type="curve" smooth="yes"/>
      <point x="346" y="1680"/>
      <point x="74" y="1334"/>
      <point x="74" y="824" type="curve" smooth="yes"/>
      <point x="74" y="314"/>
      <point x="346" y="-32"/>
    </contour>
    <contour>
      <point x="750" y="190" type="curve" smooth="yes"/>
      <point x="499" y="190"/>
      <point x="338" y="436"/>
      <point x="338" y="824" type="curve" smooth="yes"/>
      <point x="338" y="1212"/>
      <point x="499" y="1458"/>
      <point x="750" y="1458" type="curve" smooth="yes"/>
      <point x="1000" y="1458"/>
      <point x="1162" y="1212"/>
      <point x="1162" y="824" type="curve" smooth="yes"/>
      <point x="1162" y="436"/>
      <point x="1000" y="190"/>
    </contour>
  </outline>
</glyph>
<glyph name="one" format="2">
  <advance width="1500"/>
  <unicode hex="0031"/>
  <outline>
    <contour>
      <point x="916" y="0" type="line"/>
      <point x="916" y="1650" type="line"/>
      <point x="435" y="1650" type="line"/>
      <point x="435" y="1405" type="line"/>
      <point x="666" y="1405" type="line"/>
      <point x="666" y="0" type="line"/>
    </contour>
  </outline>
</glyph>
<glyph name="two" format="2">
  <advance width="1500"/>
  <unicode hex="0032"/>
  <outline>
    <contour>
      <point x="1336" y="0" type="line"/>
      <point x="1336" y="226" type="line"/>
      <point x="585" y="226" type="line"/>
      <point x="1130" y="638"/>
      <point x="1306" y="865"/>
      <point x="1306" y="1131" type="curve" smooth="yes"/>
      <point x="1306" y="1447"/>
      <point x="1057" y="1681"/>
      <point x="725" y="1681" type="curve" smooth="yes"/>
      <point x="429" y="1681"/>
      <point x="208" y="1486"/>
      <point x="149" y="1189" type="curve"/>
      <point x="359" y="1109" type="line"/>
      <point x="386" y="1313"/>
      <point x="532" y="1454"/>
      <point x="710" y="1454" type="curve" smooth="yes"/>
      <point x="893" y="1454"/>
      <point x="1036" y="1307"/>
      <point x="1036" y="1125" type="curve" smooth="yes"/>
      <point x="1036" y="907"/>
      <point x="815" y="668"/>
      <point x="115" y="125" type="curve"/>
      <point x="115" y="0" type="line"/>
    </contour>
  </outline>
</glyph>
<glyph name="three" format="2">
  <advance width="1500"/>
  <unicode hex="0033"/>
  <outline>
    <contour>
      <point x="722" y="-32" type="curve" smooth="yes"/>
      <point x="1056" y="-32"/>
      <point x="1277" y="180"/>
      <point x="1277" y="466" type="curve" smooth="yes"/>
      <point x="1277" y="658"/>
      <point x="1174" y="802"/>
      <point x="1026" y="867" type="curve"/>
      <point x="1153" y="935"/>
      <point x="1233" y="1067"/>
      <point x="1233" y="1220" type="curve" smooth="yes"/>
      <point x="1233" y="1481"/>
      <point x="1020" y="1680"/>
      <point x="736" y="1680" type="curve" smooth="yes"/>
      <point x="491" y="1680"/>
      <point x="299" y="1528"/>
      <point x="254" y="1294" type="curve"/>
      <point x="441" y="1215" type="line"/>
      <point x="458" y="1364"/>
      <point x="582" y="1475"/>
      <point x="732" y="1475" type="curve" smooth="yes"/>
      <point x="882" y="1475"/>
      <point x="1003" y="1362"/>
      <point x="1003" y="1215" type="curve" smooth="yes"/>
      <point x="1003" y="1067"/>
      <point x="879" y="938"/>
      <point x="724" y="938" type="curve" smooth="yes"/>
      <point x="657" y="938" type="line"/>
      <point x="657" y="765" type="line"/>
      <point x="676" y="772"/>
      <point x="700" y="775"/>
      <point x="726" y="775" type="curve" smooth="yes"/>
      <point x="890" y="775"/>
      <point x="1024" y="640"/>
      <point x="1024" y="465" type="curve" smooth="yes"/>
      <point x="1024" y="299"/>
      <point x="906" y="189"/>
      <point x="722" y="189" type="curve" smooth="yes"/>
      <point x="541" y="189"/>
      <point x="413" y="294"/>
      <point x="395" y="453" type="curve"/>
      <point x="177" y="389" type="line"/>
      <point x="213" y="134"/>
      <point x="429" y="-32"/>
    </contour>
  </outline>
</glyph>
<glyph name="four" format="2">
  <advance width="1500"/>
  <unicode hex="0034"/>
  <outline>
    <contour>
      <point x="1148" y="0" type="line"/>
      <point x="1148" y="309" type="line"/>
      <point x="1340" y="309" type="line"/>
      <point x="1340" y="528" type="line"/>
      <point x="1148" y="528" type="line"/>
      <point x="1148" y="1650" type="line"/>
      <point x="899" y="1650" type="line"/>
      <point x="87" y="396" type="line"/>
      <point x="87" y="309" type="line"/>
      <point x="912" y="309" type="line"/>
      <point x="912" y="0" type="line"/>
    </contour>
    <contour>
      <point x="912" y="1311" type="line"/>
      <point x="912" y="528" type="line"/>
      <point x="423" y="528" type="line"/>
    </contour>
  </outline>
</glyph>
<glyph name="five" format="2">
  <advance width="1500"/>
  <unicode hex="0035"/>
  <outline>
    <contour>
      <point x="372" y="1650" type="line"/>
      <point x="235" y="765" type="line"/>
      <point x="341" y="856"/>
      <point x="469" y="905"/>
      <point x="610" y="905" type="curve" smooth="yes"/>
      <point x="883" y="905"/>
      <point x="1072" y="758"/>
      <point x="1072" y="519" type="curve" smooth="yes"/>
      <point x="1072" y="314"/>
      <point x="933" y="177"/>
      <point x="717" y="177" type="curve" smooth="yes"/>
      <point x="535" y="177"/>
      <point x="388" y="274"/>
      <point x="337" y="424" type="curve"/>
      <point x="139" y="327" type="line"/>
      <point x="224" y="99"/>
      <point x="455" y="-32"/>
      <point x="720" y="-32" type="curve" smooth="yes"/>
      <point x="1052" y="-32"/>
      <point x="1320" y="172"/>
      <point x="1320" y="533" type="curve" smooth="yes"/>
      <point x="1320" y="868"/>
      <point x="1089" y="1088"/>
      <point x="761" y="1088" type="curve" smooth="yes"/>
      <point x="653" y="1088"/>
      <point x="558" y="1058"/>
      <point x="477" y="996" type="curve"/>
      <point x="516" y="985" type="line"/>
      <point x="585" y="1431" type="line"/>
      <point x="1214" y="1431" type="line"/>
      <point x="1214" y="1650" type="line"/>
    </contour>
  </outline>
</glyph>
<glyph name="six" format="2">
  <advance width="1500"/>
  <unicode hex="0036"/>
  <outline>
    <contour>
      <point x="763" y="-32" type="curve" smooth="yes"/>
      <point x="1114" y="-32"/>
      <point x="1358" y="200"/>
      <point x="1358" y="536" type="curve" smooth="yes"/>
      <point x="1358" y="868"/>
      <point x="1125" y="1103"/>
      <point x="828" y="1103" type="curve" smooth="yes"/>
      <point x="760" y="1103"/>
      <point x="700" y="1088"/>
      <point x="647" y="1061" type="curve"/>
      <point x="1142" y="1650" type="line"/>
      <point x="839" y="1650" type="line"/>
      <point x="365" y="1080" type="line" smooth="yes"/>
      <point x="225" y="912"/>
      <point x="145" y="719"/>
      <point x="145" y="541" type="curve" smooth="yes"/>
      <point x="145" y="230"/>
      <point x="389" y="-32"/>
    </contour>
    <contour>
      <point x="752" y="177" type="curve" smooth="yes"/>
      <point x="542" y="177"/>
      <point x="403" y="334"/>
      <point x="403" y="525" type="curve" smooth="yes"/>
      <point x="403" y="729"/>
      <point x="561" y="888"/>
      <point x="760" y="888" type="curve" smooth="yes"/>
      <point x="954" y="888"/>
      <point x="1109" y="736"/>
      <point x="1109" y="529" type="curve" smooth="yes"/>
      <point x="1109" y="326"/>
      <point x="958" y="177"/>
    </contour>
  </outline>
</glyph>
<glyph name="seven" format="2">
  <advance width="1500"/>
  <unicode hex="0037"/>
  <outline>
    <contour>
      <point x="477" y="0" type="line"/>
      <point x="1349" y="1573" type="line"/>
      <point x="1349" y="1650" type="line"/>
      <point x="212" y="1650" type="line"/>
      <point x="212" y="1431" type="line"/>
      <point x="980" y="1431" type="line"/>
      <point x="181" y="0" type="line"/>
    </contour>
  </outline>
</glyph>
<glyph name="eight" format="2">
  <advance width="1500"/>
  <unicode hex="0038"/>
  <outline>
    <contour>
      <point x="749" y="-32" type="curve" smooth="yes"/>
      <point x="1068" y="-32"/>
      <point x="1314" y="172"/>
      <point x="1314" y="448" type="curve" smooth="yes"/>
      <point x="1314" y="643"/>
      <point x="1195" y="810"/>
      <point x="1013" y="883" type="curve"/>
      <point x="1156" y="954"/>
      <point x="1248" y="1095" name=".hr01"/>
      <point x="1248" y="1255" type="curve" smooth="yes"/>
      <point x="1248" y="1517"/>
      <point x="1000" y="1680"/>
      <point x="749" y="1680" type="curve" smooth="yes"/>
      <point x="471" y="1680"/>
      <point x="250" y="1497"/>
      <point x="250" y="1254" type="curve" smooth="yes"/>
      <point x="250" y="1098"/>
      <point x="339" y="955"/>
      <point x="485" y="883" type="curve"/>
      <point x="305" y="811"/>
      <point x="185" y="644" name=".hr02"/>
      <point x="185" y="449" type="curve" smooth="yes"/>
      <point x="185" y="171"/>
      <point x="430" y="-32"/>
    </contour>
    <contour>
      <point x="749" y="185" type="curve" smooth="yes"/>
      <point x="576" y="185"/>
      <point x="456" y="310"/>
      <point x="456" y="474" type="curve" smooth="yes"/>
      <point x="456" y="644"/>
      <point x="583" y="764"/>
      <point x="749" y="764" type="curve" smooth="yes"/>
      <point x="918" y="764"/>
      <point x="1042" y="642"/>
      <point x="1042" y="474" type="curve" smooth="yes"/>
      <point x="1042" y="310"/>
      <point x="923" y="185"/>
    </contour>
    <contour>
      <point x="749" y="976" type="curve" smooth="yes"/>
      <point x="601" y="976"/>
      <point x="492" y="1085"/>
      <point x="492" y="1231" type="curve" smooth="yes"/>
      <point x="492" y="1377" name=".hr03"/>
      <point x="602" y="1488"/>
      <point x="749" y="1488" type="curve" smooth="yes"/>
      <point x="896" y="1488"/>
      <point x="1006" y="1377"/>
      <point x="1006" y="1231" type="curve" smooth="yes"/>
      <point x="1006" y="1085"/>
      <point x="897" y="976"/>
    </contour>
  </outline>
</glyph>
<glyph name="nine" format="2">
  <advance width="1500"/>
  <unicode hex="0039"/>
  <outline>
    <contour>
      <point x="659" y="0" type="line"/>
      <point x="1133" y="570" type="line" smooth="yes"/>
      <point x="1277" y="744"/>
      <point x="1352" y="927"/>
      <point x="1352" y="1100" type="curve" smooth="yes"/>
      <point x="1352" y="1427"/>
      <point x="1103" y="1680"/>
      <point x="734" y="1680" type="curve" smooth="yes"/>
      <point x="370" y="1680"/>
      <point x="140" y="1433"/>
      <point x="140" y="1116" type="curve" smooth="yes"/>
      <point x="140" y="783"/>
      <point x="394" y="546"/>
      <point x="680" y="546" type="curve" smooth="yes"/>
      <point x="746" y="546"/>
      <point x="810" y="564"/>
      <point x="859" y="596" type="curve"/>
      <point x="355" y="0" type="line"/>
    </contour>
    <contour>
      <point x="745" y="764" type="curve" smooth="yes"/>
      <point x="544" y="764"/>
      <point x="392" y="917"/>
      <point x="392" y="1120" type="curve" smooth="yes"/>
      <point x="392" y="1321"/>
      <point x="542" y="1468"/>
      <point x="745" y="1468" type="curve" smooth="yes"/>
      <point x="947" y="1468"/>
      <point x="1092" y="1322"/>
      <point x="1092" y="1120" type="curve" smooth="yes"/>
      <point x="1092" y="923"/>
      <point x="938" y="764"/>
    </contour>
  </outline>
</glyph>
<glyph name="less" format="2">
  <advance width="1459"/>
  <unicode hex="003C"/>
  <outline>
    <contour>
      <point x="1248" y="463" type="line"/>
      <point x="408" y="832" type="line"/>
      <point x="1248" y="1201" type="line"/>
      <point x="1248" y="1394" type="line"/>
      <point x="155" y="910" type="line"/>
      <point x="155" y="754" type="line"/>
      <point x="1248" y="270" type="line"/>
    </contour>
  </outline>
</glyph>
<glyph name="equal" format="2">
  <advance width="1612"/>
  <unicode hex="003D"/>
  <outline>
    <contour>
      <point x="1319" y="946" type="line"/>
      <point x="1319" y="1151" type="line"/>
      <point x="293" y="1151" type="line"/>
      <point x="293" y="946" type="line"/>
    </contour>
    <contour>
      <point x="1319" y="509" type="line"/>
      <point x="1319" y="714" type="line"/>
      <point x="293" y="714" type="line"/>
      <point x="293" y="509" type="line"/>
    </contour>
  </outline>
</glyph>
<glyph name="greater" format="2">
  <advance width="1459"/>
  <unicode hex="003E"/>
  <outline>
    <contour>
      <point x="1303" y="754" type="line"/>
      <point x="1303" y="910" type="line"/>
      <point x="210" y="1394" type="line"/>
      <point x="210" y="1201" type="line"/>
      <point x="1050" y="832" type="line"/>
      <point x="210" y="463" type="line"/>
      <point x="210" y="270" type="line"/>
    </contour>
  </outline>
</glyph>
<glyph name="question" format="2">
  <advance width="1267"/>
  <unicode hex="003F"/>
  <outline>
    <component base="period" xOffset="194"/>
    <contour>
      <point x="701" y="474" type="line"/>
      <point x="701" y="697" type="line"/>
      <point x="954" y="724"/>
      <point x="1141" y="932"/>
      <point x="1141" y="1186" type="curve" smooth="yes"/>
      <point x="1141" y="1458"/>
      <point x="923" y="1680"/>
      <point x="613" y="1680" type="curve" smooth="yes"/>
      <point x="367" y="1680"/>
      <point x="159" y="1538"/>
      <point x="106" y="1289" type="curve"/>
      <point x="288" y="1217" type="line"/>
      <point x="321" y="1374"/>
      <point x="439" y="1468"/>
      <point x="609" y="1468" type="curve" smooth="yes"/>
      <point x="793" y="1468"/>
      <point x="917" y="1361"/>
      <point x="917" y="1185" type="curve" smooth="yes"/>
      <point x="917" y="1001"/>
      <point x="784" y="896"/>
      <point x="583" y="896" type="curve" smooth="yes"/>
      <point x="543" y="896"/>
      <point x="509" y="900"/>
      <point x="481" y="907" type="curve"/>
      <point x="481" y="474" type="line"/>
    </contour>
  </outline>
</glyph>
<glyph name="at" format="2">
  <advance width="2054"/>
  <unicode hex="0040"/>
  <outline>
    <contour>
      <point x="1047" y="-440" type="curve" smooth="yes"/>
      <point x="1344" y="-440"/>
      <point x="1557" y="-307"/>
      <point x="1667" y="-155" type="curve"/>
      <point x="1507" y="-51" type="line"/>
      <point x="1422" y="-154"/>
      <point x="1264" y="-247"/>
      <point x="1049" y="-247" type="curve" smooth="yes"/>
      <point x="661" y="-247"/>
      <point x="375" y="48"/>
      <point x="375" y="417" type="curve" smooth="yes"/>
      <point x="375" y="783"/>
      <point x="652" y="1096"/>
      <point x="1057" y="1096" type="curve" smooth="yes"/>
      <point x="1383" y="1096"/>
      <point x="1734" y="892"/>
      <point x="1734" y="453" type="curve" smooth="yes"/>
      <point x="1734" y="274"/>
      <point x="1675" y="188"/>
      <point x="1593" y="188" type="curve" smooth="yes"/>
      <point x="1506" y="188"/>
      <point x="1474" y="254"/>
      <point x="1474" y="333" type="curve" smooth="yes"/>
      <point x="1474" y="823" type="line"/>
      <point x="1318" y="823" type="line"/>
      <point x="1318" y="677" type="line"/>
      <point x="1253" y="782"/>
      <point x="1134" y="849"/>
      <point x="996" y="849" type="curve" smooth="yes"/>
      <point x="752" y="849"/>
      <point x="574" y="658"/>
      <point x="574" y="403" type="curve" smooth="yes"/>
      <point x="574" y="145"/>
      <point x="755" y="-42"/>
      <point x="992" y="-42" type="curve" smooth="yes"/>
      <point x="1145" y="-42"/>
      <point x="1262" y="36"/>
      <point x="1327" y="151" type="curve"/>
      <point x="1379" y="87"/>
      <point x="1462" y="41"/>
      <point x="1566" y="41" type="curve" smooth="yes"/>
      <point x="1751" y="41"/>
      <point x="1892" y="198"/>
      <point x="1892" y="468" type="curve" smooth="yes"/>
      <point x="1892" y="968"/>
      <point x="1498" y="1272"/>
      <point x="1050" y="1272" type="curve" smooth="yes"/>
      <point x="565" y="1272"/>
      <point x="175" y="911"/>
      <point x="175" y="414" type="curve" smooth="yes"/>
      <point x="175" y="-77"/>
      <point x="557" y="-440"/>
    </contour>
    <contour>
      <point x="1034" y="108" type="curve" smooth="yes"/>
      <point x="870" y="108"/>
      <point x="750" y="229"/>
      <point x="750" y="403" type="curve" smooth="yes"/>
      <point x="750" y="581"/>
      <point x="874" y="703"/>
      <point x="1035" y="703" type="curve" smooth="yes"/>
      <point x="1197" y="703"/>
      <point x="1320" y="581"/>
      <point x="1320" y="404" type="curve" smooth="yes"/>
      <point x="1320" y="231"/>
      <point x="1201" y="108"/>
    </contour>
  </outline>
</glyph>
<glyph name="A" format="2">
  <advance width="1661"/>
  <unicode hex="0041"/>
  <anchor x="830" y="0" name="bottom"/>
  <anchor x="1603" y="0" name="ogonek"/>
  <anchor x="830" y="1650" name="top"/>
  <outline>
    <contour>
      <point x="327" y="0" type="line"/>
      <point x="493" y="440" type="line"/>
      <point x="1167" y="440" type="line"/>
      <point x="1333" y="0" type="line"/>
      <point x="1603" y="0" type="line"/>
      <point x="945" y="1650" type="line"/>
      <point x="715" y="1650" type="line"/>
      <point x="57" y="0" type="line"/>
    </contour>
    <contour>
      <point x="830" y="1314" type="line"/>
      <point x="1081" y="660" type="line"/>
      <point x="579" y="660" type="line"/>
    </contour>
  </outline>
</glyph>
<glyph name="B" format="2">
  <advance width="1312"/>
  <unicode hex="0042"/>
  <anchor x="656" y="0" name="bottom"/>
  <anchor x="656" y="1650" name="top"/>
  <outline>
    <contour>
      <point x="712" y="0" type="line" smooth="yes"/>
      <point x="1038" y="0"/>
      <point x="1239" y="169"/>
      <point x="1239" y="454" type="curve" smooth="yes"/>
      <point x="1239" y="685"/>
      <point x="1106" y="832"/>
      <point x="869" y="867" type="curve"/>
      <point x="1016" y="936"/>
      <point x="1092" y="1061"/>
      <point x="1092" y="1234" type="curve" smooth="yes"/>
      <point x="1092" y="1507"/>
      <point x="904" y="1650"/>
      <point x="585" y="1650" type="curve" smooth="yes"/>
      <point x="164" y="1650" type="line"/>
      <point x="164" y="0" type="line"/>
    </contour>
    <contour>
      <point x="414" y="1455" type="line"/>
      <point x="530" y="1455" type="line" smooth="yes"/>
      <point x="741" y="1455"/>
      <point x="852" y="1368"/>
      <point x="852" y="1204" type="curve" smooth="yes"/>
      <point x="852" y="1041"/>
      <point x="738" y="951"/>
      <point x="530" y="951" type="curve" smooth="yes"/>
      <point x="414" y="951" type="line"/>
    </contour>
    <contour>
      <point x="414" y="733" type="line"/>
      <point x="632" y="733" type="line" smooth="yes"/>
      <point x="853" y="733"/>
      <point x="979" y="634"/>
      <point x="979" y="461" type="curve" smooth="yes"/>
      <point x="979" y="289"/>
      <point x="858" y="196"/>
      <point x="632" y="196" type="curve" smooth="yes"/>
      <point x="414" y="196" type="line"/>
    </contour>
  </outline>
</glyph>
<glyph name="C" format="2">
  <advance width="1563"/>
  <unicode hex="0043"/>
  <anchor x="888" y="0" name="bottom"/>
  <anchor x="888" y="1650" name="top"/>
  <outline>
    <contour>
      <point x="102" y="824" type="curve" smooth="yes"/>
      <point x="102" y="344"/>
      <point x="471" y="-32"/>
      <point x="977" y="-32" type="curve" smooth="yes"/>
      <point x="1181" y="-32"/>
      <point x="1370" y="31"/>
      <point x="1504" y="130" type="curve"/>
      <point x="1381" y="334" type="line"/>
      <point x="1280" y="257"/>
      <point x="1140" y="214"/>
      <point x="993" y="214" type="curve" smooth="yes"/>
      <point x="617" y="214"/>
      <point x="373" y="480"/>
      <point x="373" y="824" type="curve" smooth="yes"/>
      <point x="373" y="1168"/>
      <point x="617" y="1434"/>
      <point x="993" y="1434" type="curve" smooth="yes"/>
      <point x="1140" y="1434"/>
      <point x="1280" y="1391"/>
      <point x="1381" y="1314" type="curve"/>
      <point x="1504" y="1518" type="line"/>
      <point x="1370" y="1617"/>
      <point x="1181" y="1680"/>
      <point x="977" y="1680" type="curve" smooth="yes"/>
      <point x="471" y="1680"/>
      <point x="102" y="1304"/>
    </contour>
  </outline>
</glyph>
<glyph name="D" format="2">
  <advance width="1623"/>
  <unicode hex="0044"/>
  <anchor x="811" y="0" name="bottom"/>
  <anchor x="811" y="825" name="center"/>
  <anchor x="811" y="1650" name="top"/>
  <outline>
    <contour>
      <point x="662" y="0" type="line" smooth="yes"/>
      <point x="1132" y="0"/>
      <point x="1494" y="360"/>
      <point x="1494" y="825" type="curve" smooth="yes"/>
      <point x="1494" y="1290"/>
      <point x="1131" y="1650"/>
      <point x="662" y="1650" type="curve" smooth="yes"/>
      <point x="244" y="1650" type="line"/>
      <point x="244" y="0" type="line"/>
    </contour>
    <contour>
      <point x="494" y="1426" type="line"/>
      <point x="636" y="1426" type="line" smooth="yes"/>
      <point x="972" y="1426"/>
      <point x="1227" y="1168"/>
      <point x="1227" y="825" type="curve" smooth="yes"/>
      <point x="1227" y="482"/>
      <point x="972" y="224"/>
      <point x="636" y="224" type="curve" smooth="yes"/>
      <point x="494" y="224" type="line"/>
    </contour>
  </outline>
</glyph>
<glyph name="E" format="2">
  <advance width="1297"/>
  <unicode hex="0045"/>
  <anchor x="688" y="0" name="bottom"/>
  <anchor x="1125" y="0" name="ogonek"/>
  <anchor x="688" y="1650" name="top"/>
  <outline>
    <contour>
      <point x="1125" y="0" type="line"/>
      <point x="1125" y="220" type="line"/>
      <point x="494" y="220" type="line"/>
      <point x="494" y="717" type="line"/>
      <point x="1101" y="717" type="line"/>
      <point x="1101" y="937" type="line"/>
      <point x="494" y="937" type="line"/>
      <point x="494" y="1430" type="line"/>
      <point x="1125" y="1430" type="line"/>
      <point x="1125" y="1650" type="line"/>
      <point x="244" y="1650" type="line"/>
      <point x="244" y="0" type="line"/>
    </contour>
  </outline>
</glyph>
<glyph name="F" format="2">
  <advance width="1250"/>
  <unicode hex="0046"/>
  <anchor x="624" y="0" name="bottom"/>
  <anchor x="624" y="1650" name="top"/>
  <outline>
    <contour>
      <point x="244" y="1650" type="line"/>
      <point x="244" y="0" type="line"/>
      <point x="494" y="0" type="line"/>
      <point x="494" y="716" type="line"/>
      <point x="1086" y="716" type="line"/>
      <point x="1086" y="936" type="line"/>
      <point x="494" y="936" type="line"/>
      <point x="494" y="1430" type="line"/>
      <point x="1131" y="1430" type="line"/>
      <point x="1131" y="1650" type="line"/>
    </contour>
  </outline>
</glyph>
<glyph name="G" format="2">
  <advance width="1826"/>
  <unicode hex="0047"/>
  <anchor x="929" y="0" name="bottom"/>
  <anchor x="929" y="1650" name="top"/>
  <outline>
    <contour>
      <point x="953" y="-32" type="curve" smooth="yes"/>
      <point x="1321" y="-32"/>
      <point x="1701" y="204"/>
      <point x="1701" y="691" type="curve" smooth="yes"/>
      <point x="1701" y="863" type="line"/>
      <point x="938" y="863" type="line"/>
      <point x="938" y="667" type="line"/>
      <point x="1446" y="667" type="line"/>
      <point x="1446" y="629" type="line" smooth="yes"/>
      <point x="1446" y="370"/>
      <point x="1207" y="198"/>
      <point x="958" y="198" type="curve" smooth="yes"/>
      <point x="638" y="198"/>
      <point x="403" y="480"/>
      <point x="403" y="824" type="curve" smooth="yes"/>
      <point x="403" y="1150"/>
      <point x="609" y="1454"/>
      <point x="975" y="1454" type="curve" smooth="yes"/>
      <point x="1158" y="1454"/>
      <point x="1319" y="1378"/>
      <point x="1417" y="1262" type="curve"/>
      <point x="1572" y="1409" type="line"/>
      <point x="1419" y="1572"/>
      <point x="1222" y="1680"/>
      <point x="961" y="1680" type="curve" smooth="yes"/>
      <point x="454" y="1680"/>
      <point x="134" y="1274"/>
      <point x="134" y="823" type="curve" smooth="yes"/>
      <point x="134" y="350"/>
      <point x="483" y="-32"/>
    </contour>
  </outline>
</glyph>
<glyph name="H" format="2">
  <advance width="1727"/>
  <unicode hex="0048"/>
  <anchor x="863" y="0" name="bottom"/>
  <anchor x="863" y="825" name="center"/>
  <anchor x="863" y="1650" name="top"/>
  <outline>
    <contour>
      <point x="494" y="0" type="line"/>
      <point x="494" y="717" type="line"/>
      <point x="1232" y="717" type="line"/>
      <point x="1232" y="0" type="line"/>
      <point x="1482" y="0" type="line"/>
      <point x="1482" y="1650" type="line"/>
      <point x="1232" y="1650" type="line"/>
      <point x="1232" y="937" type="line"/>
      <point x="494" y="937" type="line"/>
      <point x="494" y="1650" type="line"/>
      <point x="244" y="1650" type="line"/>
      <point x="244" y="0" type="line"/>
    </contour>
  </outline>
</glyph>
<glyph name="I" format="2">
  <advance width="737"/>
  <unicode hex="0049"/>
  <anchor x="369" y="0" name="bottom"/>
  <anchor x="494" y="0" name="ogonek"/>
  <anchor x="369" y="1650" name="top"/>
  <outline>
    <contour>
      <point x="494" y="0" type="line"/>
      <point x="494" y="1650" type="line"/>
      <point x="244" y="1650" type="line"/>
      <point x="244" y="0" type="line"/>
    </contour>
  </outline>
</glyph>
<glyph name="J" format="2">
  <advance width="1209"/>
  <unicode hex="004A"/>
  <anchor x="496" y="-16" name="bottom"/>
  <anchor x="673" y="1650" name="top"/>
  <outline>
    <contour>
      <point x="490" y="-32" type="curve" smooth="yes"/>
      <point x="799" y="-32"/>
      <point x="983" y="150"/>
      <point x="983" y="464" type="curve" smooth="yes"/>
      <point x="983" y="1650" type="line"/>
      <point x="733" y="1650" type="line"/>
      <point x="733" y="531" type="line" smooth="yes"/>
      <point x="733" y="327"/>
      <point x="630" y="207"/>
      <point x="454" y="207" type="curve" smooth="yes"/>
      <point x="363" y="207"/>
      <point x="277" y="242"/>
      <point x="200" y="321" type="curve"/>
      <point x="62" y="164" type="line"/>
      <point x="186" y="28"/>
      <point x="318" y="-32"/>
    </contour>
  </outline>
</glyph>
<glyph name="K" format="2">
  <advance width="1586"/>
  <unicode hex="004B"/>
  <anchor x="797" y="0" name="bottom"/>
  <anchor x="798" y="1650" name="top"/>
  <outline>
    <contour>
      <point x="494" y="0" type="line"/>
      <point x="494" y="719" type="line"/>
      <point x="1211" y="0" type="line"/>
      <point x="1558" y="0" type="line"/>
      <point x="719" y="846" type="line"/>
      <point x="1466" y="1650" type="line"/>
      <point x="1157" y="1650" type="line"/>
      <point x="494" y="933" type="line"/>
      <point x="494" y="1650" type="line"/>
      <point x="244" y="1650" type="line"/>
      <point x="244" y="0" type="line"/>
    </contour>
  </outline>
</glyph>
<glyph name="L" format="2">
  <advance width="1200"/>
  <unicode hex="004C"/>
  <anchor x="673" y="0" name="bottom"/>
  <anchor x="601" y="825" name="center"/>
  <anchor x="600" y="1650" name="top"/>
  <anchor x="1180" y="1650" name="topright"/>
  <outline>
    <contour>
      <point x="1131" y="0" type="line"/>
      <point x="1131" y="220" type="line"/>
      <point x="494" y="220" type="line"/>
      <point x="494" y="1650" type="line"/>
      <point x="244" y="1650" type="line"/>
      <point x="244" y="0" type="line"/>
    </contour>
  </outline>
</glyph>
<glyph name="M" format="2">
  <advance width="2018"/>
  <unicode hex="004D"/>
  <anchor x="1009" y="66" name="bottom"/>
  <anchor x="1009" y="1650" name="top"/>
  <outline>
    <contour>
      <point x="494" y="0" type="line"/>
      <point x="494" y="1111" type="line"/>
      <point x="929" y="66" type="line"/>
      <point x="1089" y="66" type="line"/>
      <point x="1524" y="1111" type="line"/>
      <point x="1524" y="0" type="line"/>
      <point x="1774" y="0" type="line"/>
      <point x="1774" y="1650" type="line"/>
      <point x="1490" y="1650" type="line"/>
      <point x="1009" y="507" type="line"/>
      <point x="528" y="1650" type="line"/>
      <point x="244" y="1650" type="line"/>
      <point x="244" y="0" type="line"/>
    </contour>
  </outline>
</glyph>
<glyph name="N" format="2">
  <advance width="1774"/>
  <unicode hex="004E"/>
  <anchor x="887" y="0" name="bottom"/>
  <anchor x="887" y="1650" name="top"/>
  <outline>
    <contour>
      <point x="494" y="0" type="line"/>
      <point x="494" y="1230" type="line"/>
      <point x="1280" y="0" type="line"/>
      <point x="1530" y="0" type="line"/>
      <point x="1530" y="1650" type="line"/>
      <point x="1280" y="1650" type="line"/>
      <point x="1280" y="419" type="line"/>
      <point x="494" y="1650" type="line"/>
      <point x="244" y="1650" type="line"/>
      <point x="244" y="0" type="line"/>
    </contour>
  </outline>
</glyph>
<glyph name="O" format="2">
  <advance width="1926"/>
  <unicode hex="004F"/>
  <anchor x="963" y="0" name="bottom"/>
  <anchor x="963" y="824" name="center"/>
  <anchor x="1001" y="0" name="ogonek"/>
  <anchor x="963" y="1650" name="top"/>
  <anchor x="19" y="1650" name="topleft"/>
  <anchor x="1906" y="1650" name="topright"/>
  <outline>
    <contour>
      <point x="963" y="-32" type="curve" smooth="yes"/>
      <point x="1425" y="-32"/>
      <point x="1795" y="348"/>
      <point x="1795" y="824" type="curve" smooth="yes"/>
      <point x="1795" y="1300"/>
      <point x="1425" y="1680"/>
      <point x="963" y="1680" type="curve" smooth="yes"/>
      <point x="501" y="1680"/>
      <point x="131" y="1300"/>
      <point x="131" y="824" type="curve" smooth="yes"/>
      <point x="131" y="348"/>
      <point x="501" y="-32"/>
    </contour>
    <contour>
      <point x="963" y="209" type="curve" smooth="yes"/>
      <point x="641" y="209"/>
      <point x="401" y="473"/>
      <point x="401" y="824" type="curve" smooth="yes"/>
      <point x="401" y="1175"/>
      <point x="641" y="1439"/>
      <point x="963" y="1439" type="curve" smooth="yes"/>
      <point x="1285" y="1439"/>
      <point x="1526" y="1175"/>
      <point x="1526" y="824" type="curve" smooth="yes"/>
      <point x="1526" y="473"/>
      <point x="1285" y="209"/>
    </contour>
  </outline>
</glyph>
<glyph name="P" format="2">
  <advance width="1396"/>
  <unicode hex="0050"/>
  <outline>
    <contour>
      <point x="494" y="0" type="line"/>
      <point x="494" y="660" type="line"/>
      <point x="748" y="660" type="line" smooth="yes"/>
      <point x="1070" y="660"/>
      <point x="1290" y="842"/>
      <point x="1290" y="1155" type="curve" smooth="yes"/>
      <point x="1290" y="1468"/>
      <point x="1070" y="1650"/>
      <point x="748" y="1650" type="curve" smooth="yes"/>
      <point x="244" y="1650" type="line"/>
      <point x="244" y="0" type="line"/>
    </contour>
    <contour>
      <point x="494" y="1450" type="line"/>
      <point x="675" y="1450" type="line" smooth="yes"/>
      <point x="879" y="1450"/>
      <point x="1030" y="1352"/>
      <point x="1030" y="1155" type="curve" smooth="yes"/>
      <point x="1030" y="958"/>
      <point x="879" y="860"/>
      <point x="675" y="860" type="curve" smooth="yes"/>
      <point x="494" y="860" type="line"/>
    </contour>
  </outline>
</glyph>
<glyph name="Q" format="2">
  <advance width="1943"/>
  <unicode hex="0051"/>
  <outline>
    <component base="O" xOffset="-20" yOffset="-1"/>
    <contour>
      <point x="935" y="533" type="line"/>
      <point x="1131" y="292"/>
      <point x="1440" y="62"/>
      <point x="1732" y="-54" type="curve"/>
      <point x="1843" y="170" type="line"/>
      <point x="1540" y="264"/>
      <point x="1276" y="426"/>
      <point x="1066" y="640" type="curve"/>
    </contour>
  </outline>
</glyph>
<glyph name="R" format="2">
  <advance width="1462"/>
  <unicode hex="0052"/>
  <anchor x="730" y="0" name="bottom"/>
  <anchor x="730" y="1650" name="top"/>
  <outline>
    <contour>
      <point x="494" y="1450" type="line"/>
      <point x="676" y="1450" type="line" smooth="yes"/>
      <point x="890" y="1450"/>
      <point x="1030" y="1349"/>
      <point x="1030" y="1159" type="curve" smooth="yes"/>
      <point x="1030" y="969"/>
      <point x="890" y="868"/>
      <point x="676" y="868" type="curve" smooth="yes"/>
      <point x="494" y="868" type="line"/>
    </contour>
    <contour>
      <point x="494" y="0" type="line"/>
      <point x="494" y="653" type="line"/>
      <point x="618" y="653" type="line"/>
      <point x="1116" y="0" type="line"/>
      <point x="1434" y="0" type="line"/>
      <point x="888" y="682" type="line"/>
      <point x="1136" y="727"/>
      <point x="1291" y="898"/>
      <point x="1291" y="1159" type="curve" smooth="yes"/>
      <point x="1291" y="1467"/>
      <point x="1075" y="1650"/>
      <point x="748" y="1650" type="curve" smooth="yes"/>
      <point x="244" y="1650" type="line"/>
      <point x="244" y="0" type="line"/>
    </contour>
  </outline>
</glyph>
<glyph name="S" format="2">
  <advance width="1365"/>
  <unicode hex="0053"/>
  <anchor x="689" y="0" name="bottom"/>
  <anchor x="712" y="1670" name="top"/>
  <anchor x="721" y="0" name="cedilla"/>
  <outline>
    <contour>
      <point x="679" y="-32" type="curve" smooth="yes"/>
      <point x="996" y="-32"/>
      <point x="1236" y="146"/>
      <point x="1236" y="455" type="curve" smooth="yes"/>
      <point x="1236" y="709"/>
      <point x="1059" y="837"/>
      <point x="735" y="957" type="curve" smooth="yes"/>
      <point x="513" y="1039"/>
      <point x="428" y="1118"/>
      <point x="428" y="1227" type="curve" smooth="yes"/>
      <point x="428" y="1346"/>
      <point x="523" y="1452"/>
      <point x="691" y="1452" type="curve" smooth="yes"/>
      <point x="815" y="1452"/>
      <point x="929" y="1397"/>
      <point x="1006" y="1329" type="curve"/>
      <point x="1143" y="1489" type="line"/>
      <point x="1060" y="1588"/>
      <point x="889" y="1680"/>
      <point x="694" y="1680" type="curve" smooth="yes"/>
      <point x="388" y="1680"/>
      <point x="185" y="1469"/>
      <point x="185" y="1222" type="curve" smooth="yes"/>
      <point x="185" y="1021"/>
      <point x="315" y="877"/>
      <point x="606" y="766" type="curve" smooth="yes"/>
      <point x="877" y="663"/>
      <point x="966" y="586"/>
      <point x="966" y="449" type="curve" smooth="yes"/>
      <point x="966" y="291"/>
      <point x="833" y="199"/>
      <point x="669" y="199" type="curve" smooth="yes"/>
      <point x="513" y="199"/>
      <point x="357" y="279"/>
      <point x="243" y="402" type="curve"/>
      <point x="90" y="251" type="line"/>
      <point x="194" y="91"/>
      <point x="424" y="-32"/>
    </contour>
  </outline>
</glyph>
<glyph name="T" format="2">
  <advance width="1299"/>
  <unicode hex="0054"/>
  <anchor x="650" y="0" name="bottom"/>
  <anchor x="650" y="1650" name="top"/>
  <outline>
    <contour>
      <point x="775" y="0" type="line"/>
      <point x="775" y="1427" type="line"/>
      <point x="1230" y="1427" type="line"/>
      <point x="1230" y="1650" type="line"/>
      <point x="70" y="1650" type="line"/>
      <point x="70" y="1427" type="line"/>
      <point x="525" y="1427" type="line"/>
      <point x="525" y="0" type="line"/>
    </contour>
  </outline>
</glyph>
<glyph name="U" format="2">
  <advance width="1642"/>
  <unicode hex="0055"/>
  <anchor x="821" y="0" name="bottom"/>
  <anchor x="903" y="0" name="ogonek"/>
  <anchor x="821" y="1650" name="top"/>
  <outline>
    <contour>
      <point x="821" y="-32" type="curve" smooth="yes"/>
      <point x="1222" y="-32"/>
      <point x="1425" y="177"/>
      <point x="1425" y="588" type="curve" smooth="yes"/>
      <point x="1425" y="1650" type="line"/>
      <point x="1175" y="1650" type="line"/>
      <point x="1175" y="654" type="line" smooth="yes"/>
      <point x="1175" y="350"/>
      <point x="1065" y="214"/>
      <point x="821" y="214" type="curve" smooth="yes"/>
      <point x="578" y="214"/>
      <point x="467" y="350"/>
      <point x="467" y="654" type="curve" smooth="yes"/>
      <point x="467" y="1650" type="line"/>
      <point x="217" y="1650" type="line"/>
      <point x="217" y="588" type="line" smooth="yes"/>
      <point x="217" y="177"/>
      <point x="422" y="-32"/>
    </contour>
  </outline>
</glyph>
<glyph name="V" format="2">
  <advance width="1691"/>
  <unicode hex="0056"/>
  <anchor x="847" y="0" name="bottom"/>
  <anchor x="846" y="1650" name="top"/>
  <outline>
    <contour>
      <point x="944" y="0" type="line"/>
      <point x="1636" y="1650" type="line"/>
      <point x="1353" y="1650" type="line"/>
      <point x="846" y="376" type="line"/>
      <point x="339" y="1650" type="line"/>
      <point x="56" y="1650" type="line"/>
      <point x="748" y="0" type="line"/>
    </contour>
  </outline>
</glyph>
<glyph name="W" format="2">
  <advance width="2425"/>
  <unicode hex="0057"/>
  <anchor x="1212" y="0" name="bottom"/>
  <anchor x="1212" y="1650" name="top"/>
  <outline>
    <contour>
      <point x="837" y="0" type="line"/>
      <point x="1212" y="1165" type="line"/>
      <point x="1588" y="0" type="line"/>
      <point x="1867" y="0" type="line"/>
      <point x="2349" y="1650" type="line"/>
      <point x="2071" y="1650" type="line"/>
      <point x="1715" y="338" type="line"/>
      <point x="1307" y="1650" type="line"/>
      <point x="1117" y="1650" type="line"/>
      <point x="710" y="338" type="line"/>
      <point x="354" y="1650" type="line"/>
      <point x="76" y="1650" type="line"/>
      <point x="558" y="0" type="line"/>
    </contour>
  </outline>
</glyph>
<glyph name="X" format="2">
  <advance width="1661"/>
  <unicode hex="0058"/>
  <outline>
    <contour>
      <point x="358" y="0" type="line"/>
      <point x="830" y="673" type="line"/>
      <point x="1302" y="0" type="line"/>
      <point x="1612" y="0" type="line"/>
      <point x="985" y="890" type="line"/>
      <point x="1513" y="1650" type="line"/>
      <point x="1213" y="1650" type="line"/>
      <point x="830" y="1098" type="line"/>
      <point x="447" y="1650" type="line"/>
      <point x="147" y="1650" type="line"/>
      <point x="675" y="890" type="line"/>
      <point x="48" y="0" type="line"/>
    </contour>
  </outline>
</glyph>
<glyph name="Y" format="2">
  <advance width="1500"/>
  <unicode hex="0059"/>
  <anchor x="750" y="0" name="bottom"/>
  <anchor x="750" y="1650" name="top"/>
  <outline>
    <contour>
      <point x="875" y="0" type="line"/>
      <point x="875" y="726" type="line"/>
      <point x="1460" y="1650" type="line"/>
      <point x="1159" y="1650" type="line"/>
      <point x="750" y="984" type="line"/>
      <point x="341" y="1650" type="line"/>
      <point x="40" y="1650" type="line"/>
      <point x="625" y="726" type="line"/>
      <point x="625" y="0" type="line"/>
    </contour>
  </outline>
</glyph>
<glyph name="Z" format="2">
  <advance width="1562"/>
  <unicode hex="005A"/>
  <anchor x="781" y="0" name="bottom"/>
  <anchor x="781" y="825" name="center"/>
  <anchor x="781" y="1650" name="top"/>
  <outline>
    <contour>
      <point x="1423" y="0" type="line"/>
      <point x="1423" y="221" type="line"/>
      <point x="513" y="221" type="line"/>
      <point x="1477" y="1650" type="line"/>
      <point x="186" y="1650" type="line"/>
      <point x="186" y="1429" type="line"/>
      <point x="1034" y="1429" type="line"/>
      <point x="71" y="0" type="line"/>
    </contour>
  </outline>
</glyph>
<glyph name="bracketleft" format="2">
  <advance width="823"/>
  <unicode hex="005B"/>
  <outline>
    <contour>
      <point x="753" y="-520" type="line"/>
      <point x="753" y="-356" type="line"/>
      <point x="442" y="-356" type="line"/>
      <point x="442" y="1556" type="line"/>
      <point x="753" y="1556" type="line"/>
      <point x="753" y="1720" type="line"/>
      <point x="235" y="1720" type="line"/>
      <point x="235" y="-520" type="line"/>
    </contour>
  </outline>
</glyph>
<glyph name="backslash" format="2">
  <advance width="1026"/>
  <unicode hex="005C"/>
  <outline>
    <contour>
      <point x="1025" y="0" type="line"/>
      <point x="201" y="1720" type="line"/>
      <point x="0" y="1720" type="line"/>
      <point x="824" y="0" type="line"/>
    </contour>
  </outline>
</glyph>
<glyph name="asciicircum" format="2">
  <advance width="1218"/>
  <unicode hex="005E"/>
  <outline>
    <contour>
      <point x="347" y="1210" type="line"/>
      <point x="609" y="1514" type="line"/>
      <point x="871" y="1210" type="line"/>
      <point x="1084" y="1210" type="line"/>
      <point x="670" y="1681" type="line"/>
      <point x="548" y="1681" type="line"/>
      <point x="134" y="1210" type="line"/>
    </contour>
  </outline>
</glyph>
<glyph name="underscore" format="2">
  <advance width="1417"/>
  <unicode hex="005F"/>
  <outline>
    <contour>
      <point x="1222" y="-201" type="line"/>
      <point x="1222" y="-82" type="line"/>
      <point x="196" y="-82" type="line"/>
      <point x="196" y="-201" type="line"/>
    </contour>
  </outline>
</glyph>
<glyph name="a" format="2">
  <advance width="1222"/>
  <unicode hex="0061"/>
  <anchor x="602" y="0" name="bottom"/>
  <anchor x="1090" y="10" name="ogonek"/>
  <anchor x="602" y="1025" name="top"/>
  <outline>
    <contour>
      <point x="498" y="-32" type="curve" smooth="yes"/>
      <point x="619" y="-32"/>
      <point x="731" y="6"/>
      <point x="815" y="74" type="curve"/>
      <point x="815" y="0" type="line" name=".hr01"/>
      <point x="1053" y="0" type="line"/>
      <point x="1053" y="609" type="line" smooth="yes"/>
      <point x="1053" y="880"/>
      <point x="855" y="1056"/>
      <point x="552" y="1056" type="curve" smooth="yes"/>
      <point x="397" y="1056"/>
      <point x="266" y="1009"/>
      <point x="170" y="930" type="curve"/>
      <point x="271" y="787" type="line"/>
      <point x="344" y="838"/>
      <point x="446" y="866"/>
      <point x="534" y="866" type="curve" smooth="yes"/>
      <point x="704" y="866"/>
      <point x="815" y="763"/>
      <point x="815" y="608" type="curve" smooth="yes"/>
      <point x="815" y="507" type="line"/>
      <point x="738" y="574"/>
      <point x="616" y="615"/>
      <point x="493" y="615" type="curve" smooth="yes"/>
      <point x="261" y="615"/>
      <point x="104" y="478"/>
      <point x="104" y="288" type="curve" smooth="yes"/>
      <point x="104" y="98"/>
      <point x="264" y="-32" name=".hr02"/>
    </contour>
    <contour>
      <point x="581" y="118" type="curve" smooth="yes"/>
      <point x="442" y="118"/>
      <point x="338" y="196"/>
      <point x="338" y="302" type="curve" smooth="yes"/>
      <point x="338" y="405"/>
      <point x="438" y="480"/>
      <point x="579" y="480" type="curve" smooth="yes"/>
      <point x="720" y="480"/>
      <point x="825" y="403"/>
      <point x="825" y="299" type="curve" smooth="yes"/>
      <point x="825" y="195"/>
      <point x="720" y="118"/>
    </contour>
  </outline>
</glyph>
<glyph name="b" format="2">
  <advance width="1446"/>
  <unicode hex="0062"/>
  <anchor x="723" y="0" name="bottom"/>
  <anchor x="723" y="1720" name="top"/>
  <outline>
    <contour>
      <point x="426" y="512" type="curve" smooth="yes"/>
      <point x="426" y="711"/>
      <point x="562" y="852"/>
      <point x="752" y="852" type="curve" smooth="yes"/>
      <point x="941" y="852"/>
      <point x="1079" y="710"/>
      <point x="1079" y="512" type="curve" smooth="yes"/>
      <point x="1079" y="314"/>
      <point x="941" y="172"/>
      <point x="752" y="172" type="curve" smooth="yes"/>
      <point x="562" y="172"/>
      <point x="426" y="314"/>
    </contour>
    <contour>
      <point x="196" y="1720" type="line"/>
      <point x="196" y="0" type="line"/>
      <point x="433" y="0" type="line" name=".hr01"/>
      <point x="433" y="170" type="line"/>
      <point x="522" y="41"/>
      <point x="659" y="-32"/>
      <point x="819" y="-32" type="curve" smooth="yes" name=".hr02"/>
      <point x="1114" y="-32"/>
      <point x="1327" y="203"/>
      <point x="1327" y="512" type="curve" smooth="yes"/>
      <point x="1327" y="822"/>
      <point x="1114" y="1056"/>
      <point x="819" y="1056" type="curve" smooth="yes"/>
      <point x="659" y="1056"/>
      <point x="522" y="983"/>
      <point x="433" y="854" type="curve"/>
      <point x="433" y="1720" type="line"/>
    </contour>
  </outline>
</glyph>
<glyph name="c" format="2">
  <advance width="1098"/>
  <unicode hex="0063"/>
  <anchor x="637" y="0" name="bottom"/>
  <anchor x="637" y="1024" name="top"/>
  <anchor x="669" y="0" name="cedilla"/>
  <outline>
    <contour>
      <point x="672" y="-32" type="curve" smooth="yes"/>
      <point x="807" y="-32"/>
      <point x="934" y="11"/>
      <point x="1015" y="74" type="curve"/>
      <point x="919" y="226" type="line"/>
      <point x="861" y="186"/>
      <point x="786" y="164"/>
      <point x="706" y="164" type="curve" smooth="yes"/>
      <point x="496" y="164"/>
      <point x="356" y="320"/>
      <point x="356" y="512" type="curve" smooth="yes"/>
      <point x="356" y="704"/>
      <point x="496" y="860"/>
      <point x="706" y="860" type="curve" smooth="yes"/>
      <point x="786" y="860"/>
      <point x="861" y="838"/>
      <point x="919" y="798" type="curve"/>
      <point x="1015" y="950" type="line"/>
      <point x="934" y="1013"/>
      <point x="807" y="1056"/>
      <point x="672" y="1056" type="curve" smooth="yes"/>
      <point x="352" y="1056"/>
      <point x="108" y="816"/>
      <point x="108" y="512" type="curve" smooth="yes"/>
      <point x="108" y="208"/>
      <point x="352" y="-32"/>
    </contour>
  </outline>
</glyph>
<glyph name="d" format="2">
  <advance width="1446"/>
  <unicode hex="0064"/>
  <anchor x="631" y="0" name="bottom"/>
  <anchor x="644" y="1408" name="top"/>
  <outline>
    <contour>
      <point x="367" y="512" type="curve" smooth="yes"/>
      <point x="367" y="710"/>
      <point x="505" y="852"/>
      <point x="694" y="852" type="curve" smooth="yes"/>
      <point x="884" y="852"/>
      <point x="1020" y="711"/>
      <point x="1020" y="512" type="curve" smooth="yes"/>
      <point x="1020" y="314"/>
      <point x="884" y="172"/>
      <point x="694" y="172" type="curve" smooth="yes"/>
      <point x="505" y="172"/>
      <point x="367" y="314"/>
    </contour>
    <contour>
      <point x="119" y="512" type="curve" smooth="yes"/>
      <point x="119" y="203"/>
      <point x="332" y="-32"/>
      <point x="627" y="-32" type="curve" smooth="yes"/>
      <point x="787" y="-32"/>
      <point x="924" y="41"/>
      <point x="1013" y="170" type="curve"/>
      <point x="1013" y="0" type="line"/>
      <point x="1250" y="0" type="line" name=".hr01"/>
      <point x="1250" y="1720" type="line"/>
      <point x="1013" y="1720" type="line"/>
      <point x="1013" y="854" type="line"/>
      <point x="924" y="983"/>
      <point x="787" y="1056"/>
      <point x="627" y="1056" type="curve" smooth="yes"/>
      <point x="332" y="1056"/>
      <point x="119" y="822"/>
    </contour>
  </outline>
</glyph>
<glyph name="e" format="2">
  <advance width="1311"/>
  <unicode hex="0065"/>
  <anchor x="695" y="0" name="bottom"/>
  <anchor x="717" y="0" name="ogonek"/>
  <anchor x="663" y="1030" name="top"/>
  <outline>
    <contour>
      <point x="683" y="-32" type="curve" smooth="yes"/>
      <point x="893" y="-32"/>
      <point x="1074" y="64"/>
      <point x="1172" y="226" type="curve"/>
      <point x="1000" y="315" type="line"/>
      <point x="920" y="211"/>
      <point x="821" y="159"/>
      <point x="695" y="159" type="curve" smooth="yes"/>
      <point x="492" y="159"/>
      <point x="353" y="291"/>
      <point x="353" y="483" type="curve"/>
      <point x="1199" y="483" type="line"/>
      <point x="1200" y="501"/>
      <point x="1201" y="515"/>
      <point x="1201" y="534" type="curve" smooth="yes"/>
      <point x="1201" y="824"/>
      <point x="968" y="1056"/>
      <point x="669" y="1056" type="curve" smooth="yes"/>
      <point x="358" y="1056"/>
      <point x="110" y="820"/>
      <point x="110" y="509" type="curve" smooth="yes"/>
      <point x="110" y="203"/>
      <point x="352" y="-32"/>
    </contour>
    <contour>
      <point x="360" y="607" type="line"/>
      <point x="372" y="770"/>
      <point x="498" y="886"/>
      <point x="663" y="886" type="curve" smooth="yes"/>
      <point x="825" y="886"/>
      <point x="949" y="772"/>
      <point x="968" y="607" type="curve"/>
    </contour>
  </outline>
</glyph>
<glyph name="f" format="2">
  <advance width="780"/>
  <unicode hex="0066"/>
  <anchor x="349" y="0" name="bottom"/>
  <anchor x="569" y="1720" name="top"/>
  <outline>
    <contour>
      <point x="467" y="0" type="line"/>
      <point x="467" y="843" type="line"/>
      <point x="718" y="843" type="line"/>
      <point x="718" y="1024" type="line"/>
      <point x="467" y="1024" type="line"/>
      <point x="467" y="1334" type="line" smooth="yes"/>
      <point x="467" y="1469"/>
      <point x="514" y="1537"/>
      <point x="600" y="1537" type="curve" smooth="yes"/>
      <point x="635" y="1537"/>
      <point x="674" y="1525"/>
      <point x="705" y="1489" type="curve"/>
      <point x="822" y="1640" type="line"/>
      <point x="758" y="1712"/>
      <point x="659" y="1750"/>
      <point x="558" y="1750" type="curve" smooth="yes"/>
      <point x="363" y="1750"/>
      <point x="230" y="1607"/>
      <point x="230" y="1327" type="curve" smooth="yes"/>
      <point x="230" y="1024" type="line"/>
      <point x="107" y="1024" type="line"/>
      <point x="107" y="843" type="line"/>
      <point x="230" y="843" type="line"/>
      <point x="230" y="0" type="line"/>
    </contour>
  </outline>
</glyph>
<glyph name="g" format="2">
  <advance width="1446"/>
  <unicode hex="0067"/>
  <anchor x="695" y="-520" name="bottom"/>
  <anchor x="695" y="1024" name="top"/>
  <outline>
    <contour>
      <point x="120" y="512" type="curve" smooth="yes"/>
      <point x="120" y="203"/>
      <point x="333" y="-32"/>
      <point x="628" y="-32" type="curve" smooth="yes"/>
      <point x="787" y="-32"/>
      <point x="924" y="41"/>
      <point x="1013" y="170" type="curve"/>
      <point x="1013" y="-19" type="line" smooth="yes"/>
      <point x="1013" y="-220"/>
      <point x="870" y="-345"/>
      <point x="671" y="-345" type="curve" smooth="yes"/>
      <point x="518" y="-345"/>
      <point x="384" y="-272"/>
      <point x="325" y="-158" type="curve"/>
      <point x="129" y="-252" type="line"/>
      <point x="216" y="-447"/>
      <point x="402" y="-550"/>
      <point x="671" y="-550" type="curve" smooth="yes"/>
      <point x="1049" y="-550"/>
      <point x="1251" y="-346"/>
      <point x="1251" y="-28" type="curve" smooth="yes"/>
      <point x="1251" y="1024" type="line"/>
      <point x="1013" y="1024" type="line"/>
      <point x="1013" y="854" type="line"/>
      <point x="924" y="983"/>
      <point x="787" y="1056" name=".hr01"/>
      <point x="628" y="1056" type="curve" smooth="yes"/>
      <point x="333" y="1056"/>
      <point x="120" y="822"/>
    </contour>
    <contour>
      <point x="368" y="512" type="curve" smooth="yes"/>
      <point x="368" y="710"/>
      <point x="506" y="852"/>
      <point x="695" y="852" type="curve" smooth="yes"/>
      <point x="885" y="852"/>
      <point x="1021" y="711"/>
      <point x="1021" y="512" type="curve" smooth="yes"/>
      <point x="1021" y="314"/>
      <point x="885" y="172"/>
      <point x="695" y="172" type="curve" smooth="yes"/>
      <point x="506" y="172"/>
      <point x="368" y="314"/>
    </contour>
  </outline>
</glyph>
<glyph name="h" format="2">
  <advance width="1346"/>
  <unicode hex="0068"/>
  <anchor x="673" y="0" name="bottom"/>
  <anchor x="673" y="860" name="center"/>
  <anchor x="673" y="1720" name="top"/>
  <outline>
    <contour>
      <point x="433" y="0" type="line"/>
      <point x="433" y="632" type="line" smooth="yes"/>
      <point x="433" y="761"/>
      <point x="528" y="868"/>
      <point x="688" y="868" type="curve" smooth="yes"/>
      <point x="841" y="868"/>
      <point x="932" y="769"/>
      <point x="932" y="595" type="curve" smooth="yes"/>
      <point x="932" y="0" type="line"/>
      <point x="1169" y="0" type="line"/>
      <point x="1169" y="644" type="line" smooth="yes"/>
      <point x="1169" y="896"/>
      <point x="1013" y="1056"/>
      <point x="777" y="1056" type="curve" smooth="yes"/>
      <point x="623" y="1056"/>
      <point x="501" y="990"/>
      <point x="433" y="899" type="curve"/>
      <point x="433" y="1720" type="line"/>
      <point x="196" y="1720" type="line"/>
      <point x="196" y="0" type="line"/>
    </contour>
  </outline>
</glyph>
<glyph name="i" format="2">
  <advance width="627"/>
  <unicode hex="0069"/>
  <anchor x="314" y="0" name="bottom"/>
  <anchor x="432" y="0" name="ogonek"/>
  <outline>
    <component base="idotless"/>
    <contour>
      <point x="314" y="1234" type="curve" smooth="yes"/>
      <point x="395" y="1234"/>
      <point x="458" y="1299"/>
      <point x="458" y="1379" type="curve" smooth="yes"/>
      <point x="458" y="1460"/>
      <point x="395" y="1524"/>
      <point x="314" y="1524" type="curve" smooth="yes"/>
      <point x="234" y="1524"/>
      <point x="168" y="1460"/>
      <point x="168" y="1379" type="curve" smooth="yes"/>
      <point x="168" y="1299"/>
      <point x="234" y="1234"/>
    </contour>
  </outline>
</glyph>
<glyph name="j" format="2">
  <advance width="629"/>
  <unicode hex="006A"/>
  <outline>
    <contour>
      <point x="112" y="-550" type="curve" smooth="yes"/>
      <point x="311" y="-550"/>
      <point x="433" y="-419"/>
      <point x="433" y="-195" type="curve" smooth="yes"/>
      <point x="433" y="1024" type="line"/>
      <point x="196" y="1024" type="line"/>
      <point x="196" y="-159" type="line" smooth="yes"/>
      <point x="196" y="-269"/>
      <point x="149" y="-337"/>
      <point x="64" y="-337" type="curve" smooth="yes"/>
      <point x="29" y="-337"/>
      <point x="-11" y="-325"/>
      <point x="-41" y="-289" type="curve"/>
      <point x="-158" y="-440" type="line"/>
      <point x="-94" y="-512"/>
      <point x="5" y="-550"/>
    </contour>
    <contour>
      <point x="315" y="1235" type="curve" smooth="yes"/>
      <point x="394" y="1235"/>
      <point x="460" y="1300"/>
      <point x="460" y="1380" type="curve" smooth="yes" name=".hr01"/>
      <point x="460" y="1460"/>
      <point x="394" y="1525"/>
      <point x="315" y="1525" type="curve" smooth="yes"/>
      <point x="235" y="1525"/>
      <point x="170" y="1460"/>
      <point x="170" y="1380" type="curve" smooth="yes"/>
      <point x="170" y="1300"/>
      <point x="235" y="1235"/>
    </contour>
  </outline>
</glyph>
<glyph name="k" format="2">
  <advance width="1213"/>
  <unicode hex="006B"/>
  <anchor x="606" y="0" name="bottom"/>
  <anchor x="606" y="1720" name="top"/>
  <outline>
    <contour>
      <point x="434" y="0" type="line"/>
      <point x="434" y="439" type="line"/>
      <point x="853" y="0" type="line"/>
      <point x="1158" y="0" type="line"/>
      <point x="648" y="531" type="line"/>
      <point x="1134" y="1024" type="line"/>
      <point x="826" y="1024" type="line"/>
      <point x="434" y="631" type="line"/>
      <point x="434" y="1720" type="line"/>
      <point x="196" y="1720" type="line"/>
      <point x="196" y="0" type="line"/>
    </contour>
  </outline>
</glyph>
<glyph name="l" format="2">
  <advance width="629"/>
  <unicode hex="006C"/>
  <anchor x="314" y="0" name="bottom"/>
  <anchor x="314" y="860" name="center"/>
  <anchor x="314" y="1720" name="top"/>
  <anchor x="433" y="1720" name="topright"/>
  <outline>
    <contour>
      <point x="433" y="0" type="line"/>
      <point x="433" y="1720" type="line"/>
      <point x="196" y="1720" type="line"/>
      <point x="196" y="0" type="line"/>
    </contour>
  </outline>
</glyph>
<glyph name="m" format="2">
  <advance width="2025"/>
  <unicode hex="006D"/>
  <anchor x="1141" y="0" name="bottom"/>
  <anchor x="1072" y="1025" name="top"/>
  <outline>
    <contour>
      <point x="196" y="1024" type="line"/>
      <point x="196" y="0" type="line"/>
      <point x="434" y="0" type="line"/>
      <point x="434" y="594" type="line" smooth="yes"/>
      <point x="434" y="763"/>
      <point x="541" y="864" name=".hr01"/>
      <point x="682" y="864" type="curve" smooth="yes"/>
      <point x="818" y="864"/>
      <point x="903" y="769"/>
      <point x="903" y="621" type="curve" smooth="yes"/>
      <point x="903" y="0" type="line"/>
      <point x="1141" y="0" type="line"/>
      <point x="1141" y="597" type="line" smooth="yes"/>
      <point x="1141" y="764"/>
      <point x="1244" y="864"/>
      <point x="1386" y="864" type="curve" smooth="yes"/>
      <point x="1522" y="864"/>
      <point x="1610" y="767"/>
      <point x="1610" y="611" type="curve" smooth="yes"/>
      <point x="1610" y="0" type="line"/>
      <point x="1848" y="0" type="line"/>
      <point x="1848" y="676" type="line" smooth="yes"/>
      <point x="1848" y="913"/>
      <point x="1688" y="1056"/>
      <point x="1469" y="1056" type="curve" smooth="yes"/>
      <point x="1312" y="1056"/>
      <point x="1197" y="982"/>
      <point x="1107" y="852" type="curve"/>
      <point x="1055" y="977"/>
      <point x="919" y="1056"/>
      <point x="758" y="1056" type="curve" smooth="yes"/>
      <point x="627" y="1056"/>
      <point x="521" y="1004"/>
      <point x="434" y="877" type="curve"/>
      <point x="434" y="1024" type="line" name=".hr02"/>
    </contour>
  </outline>
</glyph>
<glyph name="n" format="2">
  <advance width="1346"/>
  <unicode hex="006E"/>
  <anchor x="688" y="0" name="bottom"/>
  <anchor x="688" y="1024" name="top"/>
  <outline>
    <contour>
      <point x="433" y="0" type="line"/>
      <point x="433" y="576" type="line" smooth="yes"/>
      <point x="433" y="762"/>
      <point x="528" y="868"/>
      <point x="688" y="868" type="curve" smooth="yes"/>
      <point x="841" y="868"/>
      <point x="932" y="770"/>
      <point x="932" y="596" type="curve" smooth="yes"/>
      <point x="932" y="0" type="line"/>
      <point x="1169" y="0" type="line"/>
      <point x="1169" y="645" type="line" smooth="yes"/>
      <point x="1169" y="897"/>
      <point x="1013" y="1056"/>
      <point x="777" y="1056" type="curve" smooth="yes"/>
      <point x="623" y="1056"/>
      <point x="501" y="990"/>
      <point x="433" y="883" type="curve"/>
      <point x="433" y="1024" type="line" name=".hr01"/>
      <point x="196" y="1024" type="line"/>
      <point x="196" y="0" type="line"/>
    </contour>
  </outline>
</glyph>
<glyph name="o" format="2">
  <advance width="1393"/>
  <unicode hex="006F"/>
  <anchor x="697" y="0" name="bottom"/>
  <anchor x="697" y="512" name="center"/>
  <anchor x="721" y="0" name="ogonek"/>
  <anchor x="697" y="1024" name="top"/>
  <outline>
    <contour>
      <point x="697" y="-32" type="curve" smooth="yes"/>
      <point x="1028" y="-32"/>
      <point x="1283" y="191"/>
      <point x="1283" y="512" type="curve" smooth="yes"/>
      <point x="1283" y="833"/>
      <point x="1028" y="1056"/>
      <point x="697" y="1056" type="curve" smooth="yes"/>
      <point x="366" y="1056"/>
      <point x="111" y="833"/>
      <point x="111" y="512" type="curve" smooth="yes"/>
      <point x="111" y="191"/>
      <point x="366" y="-32"/>
    </contour>
    <contour>
      <point x="697" y="173" type="curve" smooth="yes"/>
      <point x="504" y="173"/>
      <point x="359" y="314"/>
      <point x="359" y="512" type="curve" smooth="yes"/>
      <point x="359" y="710"/>
      <point x="504" y="851"/>
      <point x="697" y="851" type="curve" smooth="yes"/>
      <point x="890" y="851"/>
      <point x="1035" y="710"/>
      <point x="1035" y="512" type="curve" smooth="yes"/>
      <point x="1035" y="314"/>
      <point x="890" y="173"/>
    </contour>
  </outline>
</glyph>
<glyph name="q" format="2">
  <advance width="1404"/>
  <unicode hex="0071"/>
  <anchor x="707" y="0" name="bottom"/>
  <anchor x="690" y="1024" name="top"/>
  <outline>
    <contour>
      <point x="352" y="512" type="curve" smooth="yes"/>
      <point x="352" y="710"/>
      <point x="490" y="852"/>
      <point x="679" y="852" type="curve" smooth="yes"/>
      <point x="869" y="852"/>
      <point x="1005" y="711"/>
      <point x="1005" y="512" type="curve" smooth="yes"/>
      <point x="1005" y="314"/>
      <point x="869" y="172"/>
      <point x="679" y="172" type="curve" smooth="yes"/>
      <point x="490" y="172"/>
      <point x="352" y="314"/>
    </contour>
    <contour>
      <point x="104" y="512" type="curve" smooth="yes"/>
      <point x="104" y="203"/>
      <point x="317" y="-32"/>
      <point x="612" y="-32" type="curve" smooth="yes"/>
      <point x="772" y="-32"/>
      <point x="909" y="41"/>
      <point x="998" y="170" type="curve"/>
      <point x="998" y="-520" type="line"/>
      <point x="1235" y="-520" type="line"/>
      <point x="1235" y="1024" type="line"/>
      <point x="998" y="1024" type="line" name=".hr01"/>
      <point x="998" y="854" type="line"/>
      <point x="909" y="983"/>
      <point x="772" y="1056"/>
      <point x="612" y="1056" type="curve" smooth="yes" name=".hr02"/>
      <point x="317" y="1056"/>
      <point x="104" y="822"/>
    </contour>
  </outline>
</glyph>
<glyph name="r" format="2">
  <advance width="962"/>
  <unicode hex="0072"/>
  <anchor x="496" y="0" name="bottom"/>
  <anchor x="539" y="1024" name="top"/>
  <outline>
    <contour>
      <point x="434" y="0" type="line"/>
      <point x="434" y="533" type="line" smooth="yes"/>
      <point x="434" y="739"/>
      <point x="552" y="850"/>
      <point x="685" y="850" type="curve" smooth="yes"/>
      <point x="737" y="850"/>
      <point x="796" y="833"/>
      <point x="841" y="807" type="curve"/>
      <point x="939" y="1008" type="line"/>
      <point x="889" y="1036"/>
      <point x="818" y="1056"/>
      <point x="746" y="1056" type="curve" smooth="yes"/>
      <point x="615" y="1056"/>
      <point x="496" y="993"/>
      <point x="434" y="849" type="curve"/>
      <point x="434" y="1024" type="line" name=".hr01"/>
      <point x="196" y="1024" type="line"/>
      <point x="196" y="0" type="line"/>
    </contour>
  </outline>
</glyph>
<glyph name="s" format="2">
  <advance width="1010"/>
  <unicode hex="0073"/>
  <anchor x="505" y="0" name="bottom"/>
  <anchor x="495" y="1024" name="top"/>
  <outline>
    <contour>
      <point x="491" y="-32" type="curve" smooth="yes"/>
      <point x="737" y="-32"/>
      <point x="894" y="80"/>
      <point x="894" y="279" type="curve" smooth="yes"/>
      <point x="894" y="451"/>
      <point x="759" y="539"/>
      <point x="562" y="612" type="curve" smooth="yes"/>
      <point x="428" y="661"/>
      <point x="352" y="696"/>
      <point x="352" y="773" type="curve" smooth="yes"/>
      <point x="352" y="842"/>
      <point x="412" y="891"/>
      <point x="515" y="891" type="curve" smooth="yes"/>
      <point x="591" y="891"/>
      <point x="667" y="866"/>
      <point x="728" y="811" type="curve"/>
      <point x="828" y="927" type="line"/>
      <point x="742" y="1010"/>
      <point x="627" y="1055"/>
      <point x="500" y="1055" type="curve" smooth="yes"/>
      <point x="276" y="1055"/>
      <point x="127" y="928"/>
      <point x="127" y="760" type="curve" smooth="yes"/>
      <point x="127" y="581"/>
      <point x="297" y="512"/>
      <point x="430" y="462" type="curve" smooth="yes"/>
      <point x="559" y="414"/>
      <point x="648" y="374"/>
      <point x="648" y="285" type="curve" smooth="yes"/>
      <point x="648" y="191"/>
      <point x="567" y="146"/>
      <point x="469" y="146" type="curve" smooth="yes"/>
      <point x="379" y="146"/>
      <point x="284" y="182"/>
      <point x="209" y="263" type="curve"/>
      <point x="92" y="146" type="line"/>
      <point x="193" y="20"/>
      <point x="329" y="-32"/>
    </contour>
  </outline>
</glyph>
<glyph name="t" format="2">
  <advance width="812"/>
  <unicode hex="0074"/>
  <anchor x="512" y="0" name="bottom"/>
  <anchor x="406" y="512" name="center"/>
  <anchor x="428" y="1407" name="top"/>
  <anchor x="741" y="1024" name="topright"/>
  <outline>
    <contour>
      <point x="507" y="-32" type="curve" smooth="yes"/>
      <point x="589" y="-32"/>
      <point x="681" y="-6"/>
      <point x="738" y="35" type="curve"/>
      <point x="644" y="203" type="line"/>
      <point x="620" y="188"/>
      <point x="591" y="180"/>
      <point x="563" y="180" type="curve" smooth="yes"/>
      <point x="494" y="180"/>
      <point x="457" y="230"/>
      <point x="457" y="322" type="curve" smooth="yes"/>
      <point x="457" y="843" type="line"/>
      <point x="695" y="843" type="line"/>
      <point x="695" y="1024" type="line"/>
      <point x="457" y="1024" type="line"/>
      <point x="457" y="1407" type="line"/>
      <point x="219" y="1407" type="line"/>
      <point x="219" y="1024" type="line"/>
      <point x="96" y="1024" type="line"/>
      <point x="96" y="843" type="line"/>
      <point x="219" y="843" type="line"/>
      <point x="219" y="306" type="line" smooth="yes"/>
      <point x="219" y="93"/>
      <point x="325" y="-32"/>
    </contour>
  </outline>
</glyph>
<glyph name="u" format="2">
  <advance width="1321"/>
  <unicode hex="0075"/>
  <anchor x="660" y="0" name="bottom"/>
  <anchor x="684" y="0" name="ogonek"/>
  <anchor x="660" y="1024" name="top"/>
  <outline>
    <contour>
      <point x="661" y="-32" type="curve" smooth="yes"/>
      <point x="988" y="-32"/>
      <point x="1147" y="138"/>
      <point x="1147" y="478" type="curve" smooth="yes"/>
      <point x="1147" y="1024" type="line"/>
      <point x="910" y="1024" type="line"/>
      <point x="910" y="531" type="line" smooth="yes"/>
      <point x="910" y="272"/>
      <point x="837" y="163"/>
      <point x="661" y="163" type="curve" smooth="yes"/>
      <point x="484" y="163"/>
      <point x="411" y="272"/>
      <point x="411" y="531" type="curve" smooth="yes"/>
      <point x="411" y="1024" type="line"/>
      <point x="174" y="1024" type="line"/>
      <point x="174" y="478" type="line" smooth="yes"/>
      <point x="174" y="138"/>
      <point x="333" y="-32"/>
    </contour>
  </outline>
</glyph>
<glyph name="v" format="2">
  <advance width="1240"/>
  <unicode hex="0076"/>
  <anchor x="620" y="0" name="bottom"/>
  <anchor x="620" y="1024" name="top"/>
  <outline>
    <contour>
      <point x="699" y="0" type="line"/>
      <point x="1220" y="1024" type="line"/>
      <point x="939" y="1024" type="line"/>
      <point x="620" y="321" type="line"/>
      <point x="300" y="1024" type="line"/>
      <point x="20" y="1024" type="line"/>
      <point x="540" y="0" type="line"/>
    </contour>
  </outline>
</glyph>
<glyph name="w" format="2">
  <advance width="1965"/>
  <unicode hex="0077"/>
  <anchor x="982" y="0" name="bottom"/>
  <anchor x="982" y="1024" name="top"/>
  <outline>
    <contour>
      <point x="699" y="0" type="line"/>
      <point x="982" y="680" type="line"/>
      <point x="1265" y="0" type="line"/>
      <point x="1424" y="0" type="line"/>
      <point x="1945" y="1024" type="line"/>
      <point x="1672" y="1024" type="line"/>
      <point x="1352" y="323" type="line"/>
      <point x="1062" y="1024" type="line"/>
      <point x="902" y="1024" type="line"/>
      <point x="613" y="323" type="line"/>
      <point x="292" y="1024" type="line"/>
      <point x="20" y="1024" type="line"/>
      <point x="540" y="0" type="line"/>
    </contour>
  </outline>
</glyph>
<glyph name="x" format="2">
  <advance width="1207"/>
  <unicode hex="0078"/>
  <anchor x="604" y="0" name="bottom"/>
  <anchor x="604" y="1024" name="top"/>
  <outline>
    <contour>
      <point x="306" y="0" type="line"/>
      <point x="604" y="372" type="line"/>
      <point x="902" y="0" type="line"/>
      <point x="1186" y="0" type="line"/>
      <point x="751" y="534" type="line"/>
      <point x="1125" y="1024" type="line"/>
      <point x="851" y="1024" type="line"/>
      <point x="604" y="697" type="line"/>
      <point x="357" y="1024" type="line"/>
      <point x="83" y="1024" type="line"/>
      <point x="457" y="534" type="line"/>
      <point x="22" y="0" type="line"/>
    </contour>
  </outline>
</glyph>
<glyph name="y" format="2">
  <advance width="1249"/>
  <unicode hex="0079"/>
  <anchor x="625" y="0" name="bottom"/>
  <anchor x="625" y="1024" name="top"/>
  <outline>
    <contour>
      <point x="478" y="-520" type="line"/>
      <point x="1227" y="1024" type="line"/>
      <point x="954" y="1024" type="line"/>
      <point x="642" y="317" type="line"/>
      <point x="290" y="1024" type="line"/>
      <point x="18" y="1024" type="line"/>
      <point x="504" y="84" type="line"/>
      <point x="207" y="-520" type="line"/>
    </contour>
  </outline>
</glyph>
<glyph name="z" format="2">
  <advance width="1192"/>
  <unicode hex="007A"/>
  <anchor x="596" y="0" name="bottom"/>
  <anchor x="596" y="1023" name="top"/>
  <outline>
    <contour>
      <point x="1086" y="0" type="line"/>
      <point x="1086" y="186" type="line"/>
      <point x="467" y="186" type="line"/>
      <point x="1117" y="1024" type="line"/>
      <point x="138" y="1024" type="line"/>
      <point x="138" y="838" type="line"/>
      <point x="706" y="838" type="line"/>
      <point x="59" y="0" type="line"/>
    </contour>
  </outline>
</glyph>
<glyph name="braceleft" format="2">
  <advance width="782"/>
  <unicode hex="007B"/>
  <outline>
    <contour>
      <point x="682" y="-520" type="line"/>
      <point x="682" y="-343" type="line"/>
      <point x="621" y="-343" type="line" smooth="yes"/>
      <point x="506" y="-343"/>
      <point x="442" y="-265"/>
      <point x="442" y="-140" type="curve" smooth="yes"/>
      <point x="442" y="440" type="line" smooth="yes"/>
      <point x="442" y="524"/>
      <point x="405" y="574"/>
      <point x="356" y="600" type="curve"/>
      <point x="405" y="626"/>
      <point x="442" y="674"/>
      <point x="442" y="760" type="curve" smooth="yes"/>
      <point x="442" y="1340" type="line" smooth="yes"/>
      <point x="442" y="1465"/>
      <point x="506" y="1543"/>
      <point x="621" y="1543" type="curve" smooth="yes"/>
      <point x="682" y="1543" type="line"/>
      <point x="682" y="1720" type="line"/>
      <point x="552" y="1720" type="line" smooth="yes"/>
      <point x="296" y="1720"/>
      <point x="234" y="1524"/>
      <point x="234" y="1358" type="curve" smooth="yes"/>
      <point x="234" y="778" type="line" smooth="yes"/>
      <point x="234" y="699"/>
      <point x="193" y="666"/>
      <point x="122" y="666" type="curve"/>
      <point x="122" y="534" type="line"/>
      <point x="193" y="534"/>
      <point x="234" y="501"/>
      <point x="234" y="422" type="curve" smooth="yes"/>
      <point x="234" y="-158" type="line" smooth="yes"/>
      <point x="234" y="-324"/>
      <point x="296" y="-520"/>
      <point x="552" y="-520" type="curve" smooth="yes"/>
    </contour>
  </outline>
</glyph>
<glyph name="bar" format="2">
  <advance width="793"/>
  <unicode hex="007C"/>
  <outline>
    <contour>
      <point x="501" y="0" type="line"/>
      <point x="501" y="1720" type="line"/>
      <point x="293" y="1720" type="line"/>
      <point x="293" y="0" type="line"/>
    </contour>
  </outline>
</glyph>
<glyph name="asciitilde" format="2">
  <advance width="1494"/>
  <unicode hex="007E"/>
  <outline>
    <contour>
      <point x="228" y="779" type="curve"/>
      <point x="356" y="696" type="line"/>
      <point x="399" y="772"/>
      <point x="462" y="823"/>
      <point x="548" y="823" type="curve" smooth="yes"/>
      <point x="702" y="823"/>
      <point x="772" y="662" name=".hr01"/>
      <point x="956" y="662" type="curve" smooth="yes"/>
      <point x="1080" y="662"/>
      <point x="1190" y="735"/>
      <point x="1268" y="887" type="curve"/>
      <point x="1141" y="970" type="line"/>
      <point x="1094" y="887"/>
      <point x="1028" y="843"/>
      <point x="947" y="843" type="curve" smooth="yes"/>
      <point x="794" y="843"/>
      <point x="725" y="1004" name=".hr02"/>
      <point x="540" y="1004" type="curve" smooth="yes"/>
      <point x="408" y="1004"/>
      <point x="302" y="922"/>
    </contour>
  </outline>
</glyph>
<glyph name="cent" format="2">
  <advance width="1269"/>
  <unicode hex="00A2"/>
  <outline>
    <component base="c" xOffset="68"/>
    <contour>
      <point x="600" y="1272" type="line"/>
      <point x="600" y="1010" type="line"/>
      <point x="749" y="1010" type="line"/>
      <point x="749" y="1272" type="line"/>
    </contour>
    <contour>
      <point x="654" y="0" type="line" name=".hr01"/>
      <point x="654" y="-258" type="line"/>
      <point x="803" y="-258" type="line"/>
      <point x="803" y="0" type="line"/>
    </contour>
  </outline>
</glyph>
<glyph name="sterling" format="2">
  <advance width="1648"/>
  <unicode hex="00A3"/>
  <outline>
    <contour>
      <point x="1133" y="-30" type="curve" smooth="yes"/>
      <point x="1332" y="-30"/>
      <point x="1470" y="94"/>
      <point x="1502" y="271" type="curve"/>
      <point x="1314" y="363" type="line"/>
      <point x="1299" y="251"/>
      <point x="1235" y="165"/>
      <point x="1104" y="165" type="curve" smooth="yes"/>
      <point x="971" y="165"/>
      <point x="839" y="265"/>
      <point x="710" y="277" type="curve"/>
      <point x="740" y="340"/>
      <point x="753" y="402"/>
      <point x="753" y="458" type="curve" smooth="yes"/>
      <point x="753" y="515"/>
      <point x="740" y="559"/>
      <point x="718" y="603" type="curve"/>
      <point x="1112" y="603" type="line"/>
      <point x="1112" y="740" type="line"/>
      <point x="678" y="740" type="line"/>
      <point x="610" y="878"/>
      <point x="549" y="1006"/>
      <point x="549" y="1151" type="curve" smooth="yes"/>
      <point x="549" y="1352"/>
      <point x="666" y="1475"/>
      <point x="860" y="1475" type="curve" smooth="yes"/>
      <point x="1066" y="1475"/>
      <point x="1168" y="1340"/>
      <point x="1205" y="1186" type="curve"/>
      <point x="1409" y="1282" type="line"/>
      <point x="1350" y="1524"/>
      <point x="1144" y="1682"/>
      <point x="863" y="1682" type="curve" smooth="yes"/>
      <point x="539" y="1682"/>
      <point x="315" y="1472" name=".hr01"/>
      <point x="315" y="1142" type="curve" smooth="yes"/>
      <point x="315" y="978"/>
      <point x="374" y="851"/>
      <point x="444" y="740" type="curve"/>
      <point x="199" y="740" type="line"/>
      <point x="199" y="603" type="line"/>
      <point x="509" y="603" type="line"/>
      <point x="532" y="564"/>
      <point x="549" y="519"/>
      <point x="549" y="459" type="curve" smooth="yes"/>
      <point x="549" y="399"/>
      <point x="534" y="336"/>
      <point x="514" y="295" type="curve"/>
      <point x="348" y="289"/>
      <point x="227" y="158"/>
      <point x="224" y="0" type="curve"/>
      <point x="432" y="0" type="line"/>
      <point x="440" y="72"/>
      <point x="511" y="114"/>
      <point x="598" y="114" type="curve" smooth="yes"/>
      <point x="761" y="114"/>
      <point x="923" y="-30"/>
    </contour>
  </outline>
</glyph>
<glyph name="currency" format="2">
  <advance width="1230"/>
  <unicode hex="00A4"/>
  <outline>
    <contour>
      <point x="332" y="263" type="line"/>
      <point x="409" y="202"/>
      <point x="507" y="167"/>
      <point x="616" y="167" type="curve" smooth="yes"/>
      <point x="723" y="167"/>
      <point x="822" y="202"/>
      <point x="899" y="263" type="curve"/>
      <point x="1036" y="125" type="line"/>
      <point x="1122" y="211" type="line"/>
      <point x="984" y="348" type="line"/>
      <point x="1043" y="426"/>
      <point x="1079" y="523"/>
      <point x="1079" y="632" type="curve" smooth="yes"/>
      <point x="1079" y="740"/>
      <point x="1043" y="837"/>
      <point x="984" y="915" type="curve"/>
      <point x="1122" y="1052" type="line"/>
      <point x="1036" y="1138" type="line"/>
      <point x="899" y="1000" type="line"/>
      <point x="822" y="1061"/>
      <point x="723" y="1096"/>
      <point x="616" y="1096" type="curve" smooth="yes"/>
      <point x="507" y="1096"/>
      <point x="409" y="1061"/>
      <point x="332" y="1000" type="curve"/>
      <point x="195" y="1138" type="line"/>
      <point x="109" y="1052" type="line"/>
      <point x="247" y="915" type="line"/>
      <point x="188" y="837"/>
      <point x="152" y="740"/>
      <point x="152" y="632" type="curve" smooth="yes"/>
      <point x="152" y="523"/>
      <point x="188" y="426"/>
      <point x="247" y="348" type="curve"/>
      <point x="109" y="211" type="line"/>
      <point x="195" y="125" type="line"/>
    </contour>
    <contour>
      <point x="616" y="364" type="curve" smooth="yes"/>
      <point x="463" y="364"/>
      <point x="346" y="478"/>
      <point x="346" y="632" type="curve" smooth="yes"/>
      <point x="346" y="785"/>
      <point x="463" y="899"/>
      <point x="616" y="899" type="curve" smooth="yes"/>
      <point x="768" y="899"/>
      <point x="885" y="785"/>
      <point x="885" y="632" type="curve" smooth="yes"/>
      <point x="885" y="478"/>
      <point x="768" y="364"/>
    </contour>
  </outline>
</glyph>
<glyph name="yen" format="2">
  <advance width="1695"/>
  <unicode hex="00A5"/>
  <outline>
    <component base="Y" xOffset="97"/>
    <contour>
      <point x="314" y="820" type="line"/>
      <point x="314" y="641" type="line"/>
      <point x="1381" y="641" type="line"/>
      <point x="1381" y="820" type="line"/>
    </contour>
    <contour>
      <point x="314" y="454" type="line"/>
      <point x="314" y="275" type="line"/>
      <point x="1381" y="275" type="line"/>
      <point x="1381" y="454" type="line"/>
    </contour>
  </outline>
</glyph>
<glyph name="section" format="2">
  <advance width="1459"/>
  <unicode hex="00A7"/>
  <outline>
    <contour>
      <point x="719" y="-550" type="curve" smooth="yes"/>
      <point x="1005" y="-550"/>
      <point x="1234" y="-391"/>
      <point x="1234" y="-115" type="curve" smooth="yes"/>
      <point x="1234" y="35"/>
      <point x="1166" y="147"/>
      <point x="1042" y="233" type="curve"/>
      <point x="1192" y="296"/>
      <point x="1281" y="414"/>
      <point x="1285" y="552" type="curve" smooth="yes"/>
      <point x="1291" y="781"/>
      <point x="1054" y="907"/>
      <point x="857" y="994" type="curve"/>
      <point x="714" y="1054"/>
      <point x="527" y="1125"/>
      <point x="527" y="1273" type="curve" smooth="yes"/>
      <point x="527" y="1386"/>
      <point x="617" y="1478"/>
      <point x="748" y="1478" type="curve" smooth="yes"/>
      <point x="870" y="1478"/>
      <point x="958" y="1403"/>
      <point x="981" y="1316" type="curve"/>
      <point x="1197" y="1366" type="line"/>
      <point x="1151" y="1522"/>
      <point x="1015" y="1680"/>
      <point x="740" y="1680" type="curve" smooth="yes"/>
      <point x="442" y="1680"/>
      <point x="267" y="1493"/>
      <point x="267" y="1256" type="curve" smooth="yes"/>
      <point x="267" y="1110"/>
      <point x="333" y="1002"/>
      <point x="461" y="920" type="curve"/>
      <point x="310" y="859"/>
      <point x="221" y="740"/>
      <point x="216" y="601" type="curve" smooth="yes"/>
      <point x="207" y="376"/>
      <point x="422" y="256"/>
      <point x="606" y="173" type="curve"/>
      <point x="813" y="85"/>
      <point x="972" y="22"/>
      <point x="972" y="-127" type="curve" smooth="yes"/>
      <point x="972" y="-255"/>
      <point x="873" y="-348"/>
      <point x="717" y="-348" type="curve" smooth="yes"/>
      <point x="556" y="-348"/>
      <point x="434" y="-252"/>
      <point x="389" y="-127" type="curve"/>
      <point x="174" y="-178" type="line"/>
      <point x="217" y="-348"/>
      <point x="393" y="-550"/>
    </contour>
    <contour>
      <point x="882" y="325" type="curve"/>
      <point x="820" y="355"/>
      <point x="778" y="374"/>
      <point x="678" y="420" type="curve"/>
      <point x="528" y="485"/>
      <point x="454" y="538"/>
      <point x="454" y="635" type="curve" smooth="yes"/>
      <point x="454" y="735"/>
      <point x="539" y="801"/>
      <point x="620" y="824" type="curve"/>
      <point x="672" y="800"/>
      <point x="697" y="788"/>
      <point x="735" y="773" type="curve" smooth="yes"/>
      <point x="968" y="679"/>
      <point x="1047" y="610"/>
      <point x="1047" y="514" type="curve" smooth="yes"/>
      <point x="1047" y="422"/>
      <point x="962" y="352"/>
    </contour>
  </outline>
</glyph>
<glyph name="copyright" format="2">
  <advance width="2041"/>
  <unicode hex="00A9"/>
  <outline>
    <component base="c" xScale="0.8501" yScale="0.8501" xOffset="482" yOffset="390"/>
    <contour>
      <point x="1020" y="-31" type="curve" smooth="yes"/>
      <point x="1491" y="-31"/>
      <point x="1868" y="348"/>
      <point x="1868" y="822" type="curve" smooth="yes"/>
      <point x="1868" y="1298"/>
      <point x="1490" y="1680"/>
      <point x="1019" y="1680" type="curve" smooth="yes"/>
      <point x="550" y="1680"/>
      <point x="174" y="1296"/>
      <point x="174" y="824" type="curve" smooth="yes"/>
      <point x="174" y="346"/>
      <point x="550" y="-31"/>
    </contour>
    <contour>
      <point x="1020" y="129" type="curve" smooth="yes"/>
      <point x="638" y="129"/>
      <point x="336" y="434"/>
      <point x="336" y="823" type="curve" smooth="yes"/>
      <point x="336" y="1209"/>
      <point x="641" y="1521"/>
      <point x="1019" y="1521" type="curve" smooth="yes"/>
      <point x="1399" y="1521"/>
      <point x="1706" y="1209"/>
      <point x="1706" y="822" type="curve" smooth="yes"/>
      <point x="1706" y="436"/>
      <point x="1402" y="129"/>
    </contour>
  </outline>
</glyph>
<glyph name="ordfeminine" format="2">
  <advance width="1071"/>
  <unicode hex="00AA"/>
  <outline>
    <contour>
      <point x="470" y="1008" type="curve" smooth="yes"/>
      <point x="574" y="1008"/>
      <point x="660" y="1059"/>
      <point x="709" y="1134" type="curve"/>
      <point x="709" y="1028" type="line"/>
      <point x="856" y="1028" type="line"/>
      <point x="856" y="1660" type="line"/>
      <point x="709" y="1660" type="line"/>
      <point x="709" y="1560" type="line"/>
      <point x="657" y="1635"/>
      <point x="572" y="1680"/>
      <point x="475" y="1680" type="curve" smooth="yes"/>
      <point x="288" y="1680"/>
      <point x="157" y="1534"/>
      <point x="157" y="1344" type="curve" smooth="yes"/>
      <point x="157" y="1150"/>
      <point x="294" y="1008"/>
    </contour>
    <contour>
      <point x="512" y="1133" type="curve" smooth="yes"/>
      <point x="394" y="1133"/>
      <point x="310" y="1223"/>
      <point x="310" y="1344" type="curve" smooth="yes"/>
      <point x="310" y="1467"/>
      <point x="397" y="1555"/>
      <point x="512" y="1555" type="curve" smooth="yes"/>
      <point x="626" y="1555"/>
      <point x="712" y="1467"/>
      <point x="712" y="1344" type="curve" smooth="yes"/>
      <point x="712" y="1223"/>
      <point x="628" y="1133"/>
    </contour>
  </outline>
</glyph>
<glyph name="guillemetleft" format="2">
  <advance width="1161"/>
  <unicode hex="00AB"/>
  <outline>
    <contour>
      <point x="616" y="156" type="line"/>
      <point x="303" y="557" type="line"/>
      <point x="616" y="958" type="line"/>
      <point x="491" y="1057" type="line"/>
      <point x="101" y="557" type="line"/>
      <point x="491" y="57" type="line"/>
    </contour>
    <contour>
      <point x="1040" y="156" type="line"/>
      <point x="726" y="557" type="line"/>
      <point x="1040" y="958" type="line"/>
      <point x="915" y="1057" type="line"/>
      <point x="525" y="557" type="line"/>
      <point x="915" y="57" type="line"/>
    </contour>
  </outline>
</glyph>
<glyph name="logicalnot" format="2">
  <advance width="1380"/>
  <unicode hex="00AC"/>
  <outline>
    <contour>
      <point x="1203" y="316" type="line"/>
      <point x="1203" y="932" type="line"/>
      <point x="177" y="932" type="line"/>
      <point x="177" y="726" type="line"/>
      <point x="998" y="726" type="line"/>
      <point x="998" y="316" type="line"/>
    </contour>
  </outline>
</glyph>
<glyph name="softhyphen" format="2">
  <advance width="1035"/>
  <unicode hex="00AD"/>
  <outline>
    <contour>
      <point x="840" y="477" type="line"/>
      <point x="840" y="681" type="line"/>
      <point x="196" y="681" type="line"/>
      <point x="196" y="477" type="line"/>
    </contour>
  </outline>
</glyph>
<glyph name="registered" format="2">
  <advance width="1321"/>
  <unicode hex="00AE"/>
  <outline>
    <component base="R" xScale="0.3011" yScale="0.3011" xOffset="429" yOffset="984"/>
    <contour>
      <point x="660" y="774" type="curve" smooth="yes"/>
      <point x="911" y="774"/>
      <point x="1114" y="981"/>
      <point x="1114" y="1231" type="curve" smooth="yes"/>
      <point x="1114" y="1480"/>
      <point x="911" y="1687"/>
      <point x="660" y="1687" type="curve" smooth="yes"/>
      <point x="409" y="1687"/>
      <point x="206" y="1480"/>
      <point x="206" y="1231" type="curve" smooth="yes"/>
      <point x="206" y="981"/>
      <point x="409" y="774"/>
    </contour>
    <contour>
      <point x="660" y="863" type="curve" smooth="yes"/>
      <point x="458" y="863"/>
      <point x="295" y="1030"/>
      <point x="295" y="1231" type="curve" smooth="yes"/>
      <point x="295" y="1431"/>
      <point x="458" y="1598"/>
      <point x="660" y="1598" type="curve" smooth="yes"/>
      <point x="862" y="1598"/>
      <point x="1025" y="1431"/>
      <point x="1025" y="1231" type="curve" smooth="yes"/>
      <point x="1025" y="1030"/>
      <point x="862" y="863"/>
    </contour>
  </outline>
</glyph>
<glyph name="degree" format="2">
  <advance width="948"/>
  <unicode hex="00B0"/>
  <outline>
    <contour>
      <point x="474" y="1338" type="curve" smooth="yes"/>
      <point x="601" y="1338"/>
      <point x="695" y="1423"/>
      <point x="695" y="1544" type="curve" smooth="yes"/>
      <point x="695" y="1666"/>
      <point x="598" y="1750"/>
      <point x="474" y="1750" type="curve" smooth="yes"/>
      <point x="350" y="1750"/>
      <point x="253" y="1666"/>
      <point x="253" y="1543" type="curve" smooth="yes"/>
      <point x="253" y="1425"/>
      <point x="345" y="1338"/>
    </contour>
    <contour>
      <point x="474" y="1428" type="curve" smooth="yes"/>
      <point x="407" y="1428"/>
      <point x="360" y="1475"/>
      <point x="360" y="1543" type="curve" smooth="yes"/>
      <point x="360" y="1612"/>
      <point x="409" y="1660"/>
      <point x="474" y="1660" type="curve" smooth="yes"/>
      <point x="536" y="1660"/>
      <point x="587" y="1614"/>
      <point x="587" y="1543" type="curve" smooth="yes"/>
      <point x="587" y="1476"/>
      <point x="540" y="1428"/>
    </contour>
  </outline>
</glyph>
<glyph name="plusminus" format="2">
  <advance width="1452"/>
  <unicode hex="00B1"/>
  <outline>
    <contour>
      <point x="829" y="376" type="line"/>
      <point x="829" y="757" type="line"/>
      <point x="1239" y="757" type="line"/>
      <point x="1239" y="961" type="line"/>
      <point x="829" y="961" type="line"/>
      <point x="829" y="1341" type="line"/>
      <point x="623" y="1341" type="line"/>
      <point x="623" y="961" type="line"/>
      <point x="213" y="961" type="line"/>
      <point x="213" y="757" type="line"/>
      <point x="623" y="757" type="line"/>
      <point x="623" y="376" type="line"/>
    </contour>
    <contour>
      <point x="1239" y="0" type="line"/>
      <point x="1239" y="205" type="line"/>
      <point x="213" y="205" type="line"/>
      <point x="213" y="0" type="line"/>
    </contour>
  </outline>
</glyph>
<glyph name="twosuperior" format="2">
  <advance width="864"/>
  <unicode hex="00B2"/>
  <outline>
    <contour>
      <point x="674" y="1026" type="line"/>
      <point x="674" y="1128" type="line"/>
      <point x="397" y="1128" type="line"/>
      <point x="593" y="1270"/>
      <point x="662" y="1361"/>
      <point x="662" y="1465" type="curve" smooth="yes"/>
      <point x="662" y="1592"/>
      <point x="563" y="1681"/>
      <point x="429" y="1681" type="curve" smooth="yes"/>
      <point x="311" y="1681"/>
      <point x="223" y="1608"/>
      <point x="192" y="1489" type="curve"/>
      <point x="291" y="1443" type="line"/>
      <point x="313" y="1529"/>
      <point x="363" y="1581"/>
      <point x="429" y="1581" type="curve" smooth="yes"/>
      <point x="490" y="1581"/>
      <point x="536" y="1537"/>
      <point x="536" y="1473" type="curve" smooth="yes"/>
      <point x="536" y="1379"/>
      <point x="434" y="1265"/>
      <point x="189" y="1090" type="curve"/>
      <point x="189" y="1026" type="line"/>
    </contour>
  </outline>
</glyph>
<glyph name="threesuperior" format="2">
  <advance width="835"/>
  <unicode hex="00B3"/>
  <outline>
    <contour>
      <point x="422" y="1026" type="curve" smooth="yes"/>
      <point x="552" y="1026"/>
      <point x="645" y="1094"/>
      <point x="645" y="1212" type="curve" smooth="yes"/>
      <point x="645" y="1284"/>
      <point x="609" y="1345"/>
      <point x="545" y="1373" type="curve"/>
      <point x="595" y="1408"/>
      <point x="625" y="1462"/>
      <point x="625" y="1520" type="curve" smooth="yes"/>
      <point x="625" y="1618"/>
      <point x="543" y="1680"/>
      <point x="426" y="1680" type="curve" smooth="yes"/>
      <point x="313" y="1680"/>
      <point x="243" y="1623"/>
      <point x="220" y="1535" type="curve"/>
      <point x="312" y="1494" type="line"/>
      <point x="318" y="1548"/>
      <point x="364" y="1587"/>
      <point x="417" y="1587" type="curve" smooth="yes"/>
      <point x="469" y="1587"/>
      <point x="510" y="1549"/>
      <point x="510" y="1500" type="curve" smooth="yes"/>
      <point x="510" y="1448"/>
      <point x="461" y="1404"/>
      <point x="406" y="1404" type="curve" smooth="yes"/>
      <point x="378" y="1404" type="line"/>
      <point x="378" y="1326" type="line"/>
      <point x="386" y="1330"/>
      <point x="395" y="1331"/>
      <point x="404" y="1331" type="curve" smooth="yes"/>
      <point x="468" y="1331"/>
      <point x="521" y="1284"/>
      <point x="521" y="1219" type="curve" smooth="yes"/>
      <point x="521" y="1165"/>
      <point x="482" y="1126"/>
      <point x="416" y="1126" type="curve" smooth="yes"/>
      <point x="345" y="1126"/>
      <point x="299" y="1170"/>
      <point x="296" y="1233" type="curve"/>
      <point x="189" y="1183" type="line"/>
      <point x="215" y="1089"/>
      <point x="296" y="1026"/>
    </contour>
  </outline>
</glyph>
<glyph name="micro" format="2">
  <advance width="1540"/>
  <unicode hex="00B5"/>
  <outline>
    <contour>
      <point x="543" y="-320" type="line"/>
      <point x="543" y="51" type="line"/>
      <point x="581" y="-4"/>
      <point x="646" y="-32"/>
      <point x="732" y="-32" type="curve" smooth="yes"/>
      <point x="855" y="-32"/>
      <point x="980" y="32"/>
      <point x="1042" y="125" type="curve"/>
      <point x="1042" y="0" type="line" name=".hr01"/>
      <point x="1280" y="0" type="line"/>
      <point x="1280" y="1024" type="line"/>
      <point x="1042" y="1024" type="line"/>
      <point x="1042" y="396" type="line" smooth="yes"/>
      <point x="1042" y="265"/>
      <point x="927" y="156" name=".hr02"/>
      <point x="786" y="156" type="curve" smooth="yes"/>
      <point x="631" y="156"/>
      <point x="543" y="254"/>
      <point x="543" y="427" type="curve" smooth="yes"/>
      <point x="543" y="1024" type="line"/>
      <point x="306" y="1024" type="line"/>
      <point x="306" y="429" type="line" smooth="yes"/>
      <point x="306" y="115"/>
      <point x="258" y="-43"/>
      <point x="258" y="-320" type="curve"/>
    </contour>
  </outline>
</glyph>
<glyph name="paragraph" format="2">
  <advance width="1542"/>
  <unicode hex="00B6"/>
  <outline>
    <contour>
      <point x="1009" y="0" type="line"/>
      <point x="1009" y="1505" type="line"/>
      <point x="1103" y="1505" type="line"/>
      <point x="1103" y="0" type="line"/>
      <point x="1250" y="0" type="line"/>
      <point x="1250" y="1650" type="line"/>
      <point x="669" y="1650" type="line" smooth="yes"/>
      <point x="347" y="1650"/>
      <point x="152" y="1443"/>
      <point x="152" y="1165" type="curve" smooth="yes"/>
      <point x="152" y="891"/>
      <point x="347" y="661"/>
      <point x="669" y="661" type="curve" smooth="yes"/>
      <point x="862" y="661" type="line"/>
      <point x="862" y="0" type="line"/>
    </contour>
  </outline>
</glyph>
<glyph name="onesuperior" format="2">
  <advance width="580"/>
  <unicode hex="00B9"/>
  <outline>
    <contour>
      <point x="390" y="1026" type="line"/>
      <point x="390" y="1650" type="line"/>
      <point x="189" y="1650" type="line"/>
      <point x="189" y="1537" type="line"/>
      <point x="277" y="1537" type="line"/>
      <point x="277" y="1026" type="line"/>
    </contour>
  </outline>
</glyph>
<glyph name="ordmasculine" format="2">
  <advance width="981"/>
  <unicode hex="00BA"/>
  <outline>
    <contour>
      <point x="490" y="1006" type="curve" smooth="yes"/>
      <point x="692" y="1006"/>
      <point x="848" y="1145"/>
      <point x="848" y="1343" type="curve" smooth="yes"/>
      <point x="848" y="1542"/>
      <point x="692" y="1680"/>
      <point x="490" y="1680" type="curve" smooth="yes"/>
      <point x="287" y="1680"/>
      <point x="131" y="1542"/>
      <point x="131" y="1343" type="curve" smooth="yes"/>
      <point x="131" y="1145"/>
      <point x="287" y="1006"/>
    </contour>
    <contour>
      <point x="489" y="1131" type="curve" smooth="yes"/>
      <point x="372" y="1131"/>
      <point x="285" y="1218"/>
      <point x="285" y="1343" type="curve" smooth="yes"/>
      <point x="285" y="1466"/>
      <point x="371" y="1555"/>
      <point x="490" y="1555" type="curve" smooth="yes"/>
      <point x="607" y="1555"/>
      <point x="694" y="1466"/>
      <point x="694" y="1343" type="curve" smooth="yes"/>
      <point x="694" y="1219"/>
      <point x="607" y="1131"/>
    </contour>
  </outline>
</glyph>
<glyph name="AE" format="2">
  <advance width="1883"/>
  <unicode hex="00C6"/>
  <outline>
    <contour>
      <point x="830" y="1315" type="line"/>
      <point x="830" y="661" type="line"/>
      <point x="579" y="661" type="line"/>
    </contour>
    <contour>
      <point x="715" y="1651" type="line"/>
      <point x="57" y="0" type="line"/>
      <point x="327" y="0" type="line"/>
      <point x="493" y="441" type="line"/>
      <point x="830" y="441" type="line"/>
      <point x="830" y="0" type="line"/>
      <point x="1711" y="0" type="line"/>
      <point x="1711" y="220" type="line" name=".hr01"/>
      <point x="1080" y="220" type="line"/>
      <point x="1080" y="717" type="line"/>
      <point x="1687" y="717" type="line"/>
      <point x="1687" y="937" type="line"/>
      <point x="1080" y="937" type="line"/>
      <point x="1080" y="1431" type="line"/>
      <point x="1711" y="1431" type="line"/>
      <point x="1711" y="1651" type="line"/>
    </contour>
  </outline>
</glyph>
<glyph name="Eth" format="2">
  <advance width="1664"/>
  <unicode hex="00D0"/>
  <outline>
    <component base="D" xOffset="40"/>
    <contour>
      <point x="120" y="926" type="line"/>
      <point x="120" y="723" type="line"/>
      <point x="878" y="723" type="line"/>
      <point x="878" y="926" type="line"/>
    </contour>
  </outline>
</glyph>
<glyph name="multiply" format="2">
  <advance width="1305"/>
  <unicode hex="00D7"/>
  <outline>
    <contour>
      <point x="652" y="685" type="line"/>
      <point x="992" y="344" type="line"/>
      <point x="1137" y="487" type="line"/>
      <point x="796" y="829" type="line"/>
      <point x="1137" y="1171" type="line"/>
      <point x="994" y="1313" type="line"/>
      <point x="652" y="973" type="line"/>
      <point x="312" y="1313" type="line"/>
      <point x="168" y="1171" type="line"/>
      <point x="509" y="829" type="line"/>
      <point x="168" y="487" type="line"/>
      <point x="311" y="344" type="line"/>
    </contour>
  </outline>
</glyph>
<glyph name="Oslash" format="2">
  <advance width="1926"/>
  <unicode hex="00D8"/>
  <outline>
    <component base="O"/>
    <contour>
      <point x="1671" y="1564" type="line"/>
      <point x="1517" y="1682" type="line"/>
      <point x="267" y="99" type="line"/>
      <point x="420" y="-14" type="line"/>
    </contour>
  </outline>
</glyph>
<glyph name="Thorn" format="2">
  <advance width="1396"/>
  <unicode hex="00DE"/>
  <anchor x="698" y="0" name="bottom"/>
  <anchor x="698" y="1650" name="top"/>
  <outline>
    <contour>
      <point x="494" y="0" type="line"/>
      <point x="494" y="326" type="line"/>
      <point x="748" y="326" type="line" smooth="yes"/>
      <point x="1070" y="326"/>
      <point x="1290" y="508"/>
      <point x="1290" y="821" type="curve" smooth="yes"/>
      <point x="1290" y="1133"/>
      <point x="1070" y="1315"/>
      <point x="748" y="1315" type="curve" smooth="yes"/>
      <point x="494" y="1315" type="line"/>
      <point x="494" y="1650" type="line"/>
      <point x="244" y="1650" type="line"/>
      <point x="244" y="0" type="line"/>
    </contour>
    <contour>
      <point x="494" y="1115" type="line"/>
      <point x="675" y="1115" type="line" smooth="yes"/>
      <point x="879" y="1115"/>
      <point x="1030" y="1018"/>
      <point x="1030" y="821" type="curve" smooth="yes"/>
      <point x="1030" y="624"/>
      <point x="879" y="526"/>
      <point x="675" y="526" type="curve" smooth="yes"/>
      <point x="494" y="526" type="line"/>
    </contour>
  </outline>
</glyph>
<glyph name="germandbls" format="2">
  <advance width="1366"/>
  <unicode hex="00DF"/>
  <anchor x="684" y="0" name="bottom"/>
  <anchor x="684" y="1025" name="top"/>
  <outline>
    <contour>
      <point x="714" y="-32" type="line"/>
      <point x="1025" y="-28"/>
      <point x="1256" y="194"/>
      <point x="1256" y="489" type="curve" smooth="yes"/>
      <point x="1256" y="686"/>
      <point x="1149" y="844"/>
      <point x="965" y="921" type="curve"/>
      <point x="1111" y="991"/>
      <point x="1194" y="1124"/>
      <point x="1194" y="1286" type="curve" smooth="yes"/>
      <point x="1194" y="1547"/>
      <point x="986" y="1750"/>
      <point x="717" y="1750" type="curve" smooth="yes"/>
      <point x="445" y="1750"/>
      <point x="236" y="1542"/>
      <point x="236" y="1274" type="curve" smooth="yes"/>
      <point x="236" y="879" type="line"/>
      <point x="104" y="879" type="line"/>
      <point x="104" y="692" type="line"/>
      <point x="236" y="692" type="line"/>
      <point x="236" y="0" type="line" name=".hr01"/>
      <point x="473" y="0" type="line"/>
      <point x="473" y="1282" type="line" smooth="yes"/>
      <point x="473" y="1436"/>
      <point x="576" y="1547"/>
      <point x="714" y="1547" type="curve" smooth="yes"/>
      <point x="857" y="1547"/>
      <point x="969" y="1431"/>
      <point x="969" y="1281" type="curve" smooth="yes"/>
      <point x="969" y="1127"/>
      <point x="857" y="1008"/>
      <point x="714" y="1008" type="curve" smooth="yes"/>
      <point x="605" y="1008" type="line"/>
      <point x="605" y="822" type="line"/>
      <point x="714" y="822" type="line" smooth="yes"/>
      <point x="879" y="822"/>
      <point x="1006" y="686"/>
      <point x="1006" y="505" type="curve" smooth="yes"/>
      <point x="1006" y="325"/>
      <point x="879" y="187" name=".hr02"/>
      <point x="714" y="187" type="curve" smooth="yes"/>
      <point x="605" y="187" type="line"/>
      <point x="605" y="-32" type="line"/>
    </contour>
  </outline>
</glyph>
<glyph name="ae" format="2">
  <advance width="2024"/>
  <unicode hex="00E6"/>
  <outline>
    <contour>
      <point x="509" y="-32" type="curve" smooth="yes"/>
      <point x="671" y="-32"/>
      <point x="808" y="39"/>
      <point x="951" y="175" type="curve"/>
      <point x="1056" y="42"/>
      <point x="1209" y="-32"/>
      <point x="1391" y="-32" type="curve" smooth="yes"/>
      <point x="1607" y="-32"/>
      <point x="1786" y="61"/>
      <point x="1885" y="226" type="curve"/>
      <point x="1713" y="315" type="line"/>
      <point x="1634" y="210"/>
      <point x="1535" y="159" name=".hr01"/>
      <point x="1409" y="159" type="curve" smooth="yes"/>
      <point x="1205" y="159"/>
      <point x="1067" y="291"/>
      <point x="1067" y="483" type="curve"/>
      <point x="1912" y="483" type="line"/>
      <point x="1914" y="505"/>
      <point x="1914" y="511"/>
      <point x="1914" y="523" type="curve" smooth="yes"/>
      <point x="1914" y="832"/>
      <point x="1686" y="1056"/>
      <point x="1377" y="1056" type="curve" smooth="yes"/>
      <point x="1209" y="1056"/>
      <point x="1061" y="977"/>
      <point x="966" y="855" type="curve"/>
      <point x="895" y="986"/>
      <point x="756" y="1056"/>
      <point x="567" y="1056" type="curve" smooth="yes"/>
      <point x="412" y="1056"/>
      <point x="282" y="1010"/>
      <point x="185" y="930" type="curve"/>
      <point x="286" y="786" type="line"/>
      <point x="359" y="837"/>
      <point x="460" y="866"/>
      <point x="550" y="866" type="curve" smooth="yes"/>
      <point x="717" y="866"/>
      <point x="830" y="767"/>
      <point x="830" y="608" type="curve" smooth="yes"/>
      <point x="830" y="507" type="line"/>
      <point x="754" y="573"/>
      <point x="634" y="615" name=".hr02"/>
      <point x="512" y="615" type="curve" smooth="yes"/>
      <point x="285" y="615"/>
      <point x="119" y="482"/>
      <point x="119" y="288" type="curve" smooth="yes"/>
      <point x="119" y="90"/>
      <point x="279" y="-32"/>
    </contour>
    <contour>
      <point x="596" y="118" type="curve" smooth="yes"/>
      <point x="462" y="118"/>
      <point x="353" y="193"/>
      <point x="353" y="302" type="curve" smooth="yes"/>
      <point x="353" y="409"/>
      <point x="459" y="480"/>
      <point x="594" y="480" type="curve" smooth="yes"/>
      <point x="729" y="480"/>
      <point x="840" y="407"/>
      <point x="840" y="299" type="curve" smooth="yes"/>
      <point x="840" y="191"/>
      <point x="731" y="118"/>
    </contour>
    <contour>
      <point x="1074" y="617" type="line"/>
      <point x="1087" y="775"/>
      <point x="1213" y="891" name=".hr03"/>
      <point x="1379" y="891" type="curve" smooth="yes"/>
      <point x="1542" y="891"/>
      <point x="1663" y="778"/>
      <point x="1681" y="617" type="curve"/>
    </contour>
  </outline>
</glyph>
<glyph name="eth" format="2">
  <advance width="1428"/>
  <unicode hex="00F0"/>
  <outline>
    <contour>
      <point x="703" y="-32" type="curve" smooth="yes"/>
      <point x="1041" y="-32"/>
      <point x="1291" y="194"/>
      <point x="1291" y="512" type="curve" smooth="yes"/>
      <point x="1291" y="985"/>
      <point x="1075" y="1313"/>
      <point x="802" y="1519" type="curve"/>
      <point x="923" y="1639" type="line"/>
      <point x="816" y="1750" type="line"/>
      <point x="667" y="1602" type="line"/>
      <point x="555" y="1669"/>
      <point x="433" y="1718"/>
      <point x="325" y="1750" type="curve"/>
      <point x="266" y="1549" type="line"/>
      <point x="339" y="1526"/>
      <point x="425" y="1490"/>
      <point x="507" y="1442" type="curve"/>
      <point x="373" y="1309" type="line"/>
      <point x="483" y="1199" type="line"/>
      <point x="643" y="1359" type="line"/>
      <point x="774" y="1260"/>
      <point x="877" y="1120"/>
      <point x="938" y="935" type="curve"/>
      <point x="887" y="1015"/>
      <point x="794" y="1064"/>
      <point x="687" y="1064" type="curve" smooth="yes"/>
      <point x="408" y="1064"/>
      <point x="112" y="866"/>
      <point x="112" y="512" type="curve" smooth="yes"/>
      <point x="112" y="194"/>
      <point x="357" y="-32"/>
    </contour>
    <contour>
      <point x="702" y="172" type="curve" smooth="yes"/>
      <point x="502" y="172"/>
      <point x="362" y="315"/>
      <point x="362" y="512" type="curve" smooth="yes"/>
      <point x="362" y="711"/>
      <point x="508" y="852"/>
      <point x="702" y="852" type="curve" smooth="yes"/>
      <point x="894" y="852"/>
      <point x="1042" y="711"/>
      <point x="1042" y="512" type="curve" smooth="yes"/>
      <point x="1042" y="315"/>
      <point x="898" y="172"/>
    </contour>
  </outline>
</glyph>
<glyph name="divide" format="2">
  <advance width="1353"/>
  <unicode hex="00F7"/>
  <outline>
    <contour>
      <point x="150" y="727" type="line"/>
      <point x="1176" y="727" type="line"/>
      <point x="1176" y="932" type="line"/>
      <point x="150" y="932" type="line"/>
    </contour>
    <contour>
      <point x="663" y="241" type="curve" smooth="yes"/>
      <point x="727" y="241"/>
      <point x="779" y="293"/>
      <point x="779" y="360" type="curve" smooth="yes"/>
      <point x="779" y="427"/>
      <point x="727" y="479"/>
      <point x="663" y="479" type="curve" smooth="yes"/>
      <point x="599" y="479"/>
      <point x="547" y="427"/>
      <point x="547" y="360" type="curve" smooth="yes"/>
      <point x="547" y="293"/>
      <point x="599" y="241"/>
    </contour>
    <contour>
      <point x="663" y="1182" type="curve" smooth="yes"/>
      <point x="727" y="1182"/>
      <point x="779" y="1234"/>
      <point x="779" y="1301" type="curve" smooth="yes"/>
      <point x="779" y="1368"/>
      <point x="727" y="1420"/>
      <point x="663" y="1420" type="curve" smooth="yes"/>
      <point x="599" y="1420"/>
      <point x="547" y="1368"/>
      <point x="547" y="1301" type="curve" smooth="yes"/>
      <point x="547" y="1234"/>
      <point x="599" y="1182"/>
    </contour>
  </outline>
</glyph>
<glyph name="thorn" format="2">
  <advance width="1446"/>
  <unicode hex="00FE"/>
  <anchor x="729" y="0" name="bottom"/>
  <anchor x="729" y="1025" name="top"/>
  <outline>
    <contour>
      <point x="426" y="512" type="curve" smooth="yes"/>
      <point x="426" y="711"/>
      <point x="562" y="852"/>
      <point x="752" y="852" type="curve" smooth="yes"/>
      <point x="941" y="852"/>
      <point x="1079" y="710"/>
      <point x="1079" y="512" type="curve" smooth="yes"/>
      <point x="1079" y="314"/>
      <point x="941" y="172"/>
      <point x="752" y="172" type="curve" smooth="yes"/>
      <point x="562" y="172"/>
      <point x="426" y="314"/>
    </contour>
    <contour>
      <point x="196" y="1720" type="line"/>
      <point x="196" y="-520" type="line"/>
      <point x="433" y="-520" type="line"/>
      <point x="433" y="170" type="line"/>
      <point x="522" y="41"/>
      <point x="659" y="-32"/>
      <point x="819" y="-32" type="curve" smooth="yes"/>
      <point x="1114" y="-32"/>
      <point x="1327" y="203"/>
      <point x="1327" y="512" type="curve" smooth="yes"/>
      <point x="1327" y="822"/>
      <point x="1114" y="1056"/>
      <point x="819" y="1056" type="curve" smooth="yes"/>
      <point x="659" y="1056"/>
      <point x="522" y="983"/>
      <point x="433" y="854" type="curve"/>
      <point x="433" y="1720" type="line"/>
    </contour>
  </outline>
</glyph>
<glyph name="dcroat" format="2">
  <advance width="1537"/>
  <unicode hex="0111"/>
  <outline>
    <component base="d"/>
    <contour>
      <point x="677" y="1449" type="line"/>
      <point x="677" y="1293" type="line"/>
      <point x="1401" y="1293" type="line"/>
      <point x="1401" y="1449" type="line"/>
    </contour>
  </outline>
</glyph>
<glyph name="eogonek" format="2">
  <advance width="1311"/>
  <unicode hex="0119"/>
  <anchor x="695" y="0" name="bottom"/>
  <anchor x="717" y="0" name="ogonek"/>
  <anchor x="663" y="1030" name="top"/>
  <anchor x="717" y="0" name="_ogonek"/>
  <outline>
    <contour>
      <point x="683" y="-32" type="curve" smooth="yes"/>
      <point x="755" y="-32"/>
      <point x="822" y="-21"/>
      <point x="885" y="0" type="curve"/>
      <point x="843" y="0" type="line"/>
      <point x="729" y="-125"/>
      <point x="666" y="-242"/>
      <point x="666" y="-334" type="curve" smooth="yes"/>
      <point x="666" y="-458"/>
      <point x="772" y="-559"/>
      <point x="918" y="-559" type="curve" smooth="yes"/>
      <point x="1026" y="-559"/>
      <point x="1132" y="-504"/>
      <point x="1193" y="-415" type="curve"/>
      <point x="1092" y="-340" type="line"/>
      <point x="1047" y="-394"/>
      <point x="996" y="-422"/>
      <point x="938" y="-422" type="curve" smooth="yes"/>
      <point x="854" y="-422"/>
      <point x="811" y="-368"/>
      <point x="811" y="-301" type="curve" smooth="yes"/>
      <point x="811" y="-198"/>
      <point x="909" y="-29"/>
      <point x="1058" y="94" type="curve" smooth="yes"/>
      <point x="1103" y="131"/>
      <point x="1142" y="175"/>
      <point x="1172" y="226" type="curve"/>
      <point x="1000" y="315" type="line"/>
      <point x="920" y="211"/>
      <point x="821" y="159"/>
      <point x="695" y="159" type="curve" smooth="yes"/>
      <point x="492" y="159"/>
      <point x="353" y="291"/>
      <point x="353" y="483" type="curve"/>
      <point x="1199" y="483" type="line"/>
      <point x="1200" y="501"/>
      <point x="1201" y="515"/>
      <point x="1201" y="534" type="curve" smooth="yes"/>
      <point x="1201" y="824"/>
      <point x="968" y="1056"/>
      <point x="669" y="1056" type="curve" smooth="yes"/>
      <point x="358" y="1056"/>
      <point x="110" y="820"/>
      <point x="110" y="509" type="curve" smooth="yes"/>
      <point x="110" y="203"/>
      <point x="352" y="-32"/>
    </contour>
    <contour>
      <point x="360" y="607" type="line"/>
      <point x="372" y="770"/>
      <point x="498" y="886"/>
      <point x="663" y="886" type="curve" smooth="yes"/>
      <point x="825" y="886"/>
      <point x="949" y="772"/>
      <point x="968" y="607" type="curve"/>
    </contour>
  </outline>
</glyph>
<glyph name="Hbar" format="2">
  <advance width="1726"/>
  <unicode hex="0126"/>
  <outline>
    <contour>
      <point x="494" y="0" type="line"/>
      <point x="494" y="675" type="line"/>
      <point x="1232" y="675" type="line"/>
      <point x="1232" y="0" type="line"/>
      <point x="1482" y="0" type="line"/>
      <point x="1482" y="1650" type="line"/>
      <point x="1232" y="1650" type="line"/>
      <point x="1232" y="848" type="line"/>
      <point x="494" y="848" type="line"/>
      <point x="494" y="1650" type="line"/>
      <point x="244" y="1650" type="line"/>
      <point x="244" y="0" type="line"/>
    </contour>
    <contour>
      <point x="1614" y="1067" type="line"/>
      <point x="1614" y="1240" type="line"/>
      <point x="112" y="1240" type="line"/>
      <point x="112" y="1067" type="line"/>
    </contour>
  </outline>
</glyph>
<glyph name="hbar" format="2">
  <advance width="1346"/>
  <unicode hex="0127"/>
  <outline>
    <component base="h"/>
    <contour>
      <point x="654" y="1278" type="line"/>
      <point x="654" y="1428" type="line"/>
      <point x="55" y="1428" type="line"/>
      <point x="55" y="1278" type="line"/>
    </contour>
  </outline>
</glyph>
<glyph name="idotless" format="2">
  <advance width="629"/>
  <unicode hex="0131"/>
  <anchor x="315" y="0" name="bottom"/>
  <anchor x="433" y="0" name="ogonek"/>
  <anchor x="314" y="1025" name="top"/>
  <outline>
    <contour>
      <point x="433" y="0" type="line"/>
      <point x="433" y="1024" type="line"/>
      <point x="196" y="1024" type="line"/>
      <point x="196" y="0" type="line"/>
    </contour>
  </outline>
</glyph>
<glyph name="Lslash" format="2">
  <advance width="1238"/>
  <unicode hex="0141"/>
  <outline>
    <component base="L" xOffset="39"/>
    <contour>
      <point x="745" y="1031" type="line"/>
      <point x="745" y="1234" type="line"/>
      <point x="125" y="747" type="line"/>
      <point x="125" y="543" type="line"/>
    </contour>
  </outline>
</glyph>
<glyph name="lslash" format="2">
  <advance width="965"/>
  <unicode hex="0142"/>
  <outline>
    <component base="l" xOffset="168"/>
    <contour>
      <point x="769" y="1041" type="line"/>
      <point x="769" y="1250" type="line"/>
      <point x="196" y="800" type="line"/>
      <point x="196" y="592" type="line"/>
    </contour>
  </outline>
</glyph>
<glyph name="Eng" format="2">
  <advance width="1756"/>
  <unicode hex="014A"/>
  <outline>
    <contour>
      <point x="244" y="1650" type="line"/>
      <point x="244" y="0" type="line"/>
      <point x="494" y="0" type="line"/>
      <point x="494" y="1230" type="line"/>
      <point x="1280" y="0" type="line"/>
      <point x="1280" y="-15" type="line" smooth="yes"/>
      <point x="1280" y="-188"/>
      <point x="1180" y="-312"/>
      <point x="1001" y="-312" type="curve" smooth="yes"/>
      <point x="915" y="-312"/>
      <point x="826" y="-280"/>
      <point x="747" y="-198" type="curve"/>
      <point x="609" y="-354" type="line"/>
      <point x="731" y="-492"/>
      <point x="861" y="-551"/>
      <point x="1037" y="-551" type="curve" smooth="yes"/>
      <point x="1345" y="-551"/>
      <point x="1530" y="-369"/>
      <point x="1530" y="-55" type="curve" smooth="yes"/>
      <point x="1530" y="1650" type="line"/>
      <point x="1280" y="1650" type="line"/>
      <point x="1280" y="419" type="line"/>
      <point x="494" y="1650" type="line"/>
    </contour>
  </outline>
</glyph>
<glyph name="eng" format="2">
  <advance width="1338"/>
  <unicode hex="014B"/>
  <outline>
    <contour>
      <point x="196" y="1024" type="line"/>
      <point x="196" y="0" type="line"/>
      <point x="434" y="0" type="line"/>
      <point x="434" y="576" type="line" smooth="yes"/>
      <point x="434" y="761"/>
      <point x="529" y="868" name=".hr01"/>
      <point x="688" y="868" type="curve" smooth="yes"/>
      <point x="840" y="868"/>
      <point x="932" y="769"/>
      <point x="932" y="595" type="curve" smooth="yes"/>
      <point x="932" y="-159" type="line" smooth="yes"/>
      <point x="932" y="-269"/>
      <point x="885" y="-337"/>
      <point x="799" y="-337" type="curve" smooth="yes"/>
      <point x="764" y="-337"/>
      <point x="725" y="-325"/>
      <point x="695" y="-289" type="curve"/>
      <point x="578" y="-440" type="line"/>
      <point x="640" y="-512"/>
      <point x="740" y="-550"/>
      <point x="848" y="-550" type="curve" smooth="yes"/>
      <point x="1048" y="-550"/>
      <point x="1169" y="-419"/>
      <point x="1169" y="-195" type="curve" smooth="yes"/>
      <point x="1169" y="644" type="line" smooth="yes"/>
      <point x="1169" y="897"/>
      <point x="1013" y="1056"/>
      <point x="777" y="1056" type="curve" smooth="yes"/>
      <point x="624" y="1056"/>
      <point x="502" y="990"/>
      <point x="434" y="891" type="curve"/>
      <point x="434" y="1024" type="line" name=".hr02"/>
    </contour>
  </outline>
</glyph>
<glyph name="OE" format="2">
  <advance width="2076"/>
  <unicode hex="0152"/>
  <outline>
    <contour>
      <point x="1904" y="0" type="line"/>
      <point x="1904" y="220" type="line"/>
      <point x="1273" y="220" type="line"/>
      <point x="1273" y="717" type="line"/>
      <point x="1880" y="717" type="line"/>
      <point x="1880" y="937" type="line"/>
      <point x="1273" y="937" type="line"/>
      <point x="1273" y="1431" type="line"/>
      <point x="1904" y="1431" type="line"/>
      <point x="1904" y="1650" type="line"/>
      <point x="1067" y="1650" type="line" smooth="yes"/>
      <point x="483" y="1650"/>
      <point x="131" y="1302"/>
      <point x="131" y="825" type="curve" smooth="yes"/>
      <point x="131" y="348"/>
      <point x="483" y="0"/>
      <point x="1067" y="0" type="curve" smooth="yes"/>
    </contour>
    <contour>
      <point x="1023" y="224" type="line"/>
      <point x="651" y="224"/>
      <point x="401" y="470"/>
      <point x="401" y="825" type="curve" smooth="yes"/>
      <point x="401" y="1180"/>
      <point x="659" y="1427"/>
      <point x="1023" y="1427" type="curve"/>
    </contour>
  </outline>
</glyph>
<glyph name="oe" format="2">
  <advance width="2226"/>
  <unicode hex="0153"/>
  <anchor x="1113" y="0" name="bottom"/>
  <anchor x="1113" y="1025" name="top"/>
  <outline>
    <contour>
      <point x="687" y="-32" type="curve" smooth="yes"/>
      <point x="891" y="-32"/>
      <point x="1056" y="60"/>
      <point x="1137" y="214" type="curve"/>
      <point x="1232" y="58"/>
      <point x="1392" y="-32"/>
      <point x="1592" y="-32" type="curve" smooth="yes"/>
      <point x="1808" y="-32"/>
      <point x="1987" y="62"/>
      <point x="2087" y="226" type="curve"/>
      <point x="1915" y="315" type="line"/>
      <point x="1835" y="210"/>
      <point x="1737" y="159" name=".hr01"/>
      <point x="1611" y="159" type="curve" smooth="yes"/>
      <point x="1407" y="159"/>
      <point x="1269" y="291"/>
      <point x="1269" y="483" type="curve"/>
      <point x="2114" y="483" type="line"/>
      <point x="2116" y="511"/>
      <point x="2116" y="514"/>
      <point x="2116" y="525" type="curve" smooth="yes"/>
      <point x="2116" y="830"/>
      <point x="1887" y="1056"/>
      <point x="1580" y="1056" type="curve" smooth="yes"/>
      <point x="1391" y="1056"/>
      <point x="1231" y="960"/>
      <point x="1138" y="808" type="curve"/>
      <point x="1055" y="964"/>
      <point x="889" y="1056"/>
      <point x="687" y="1056" type="curve" smooth="yes"/>
      <point x="355" y="1056"/>
      <point x="111" y="832"/>
      <point x="111" y="512" type="curve" smooth="yes"/>
      <point x="111" y="192"/>
      <point x="355" y="-32"/>
    </contour>
    <contour>
      <point x="697" y="172" type="curve" smooth="yes"/>
      <point x="501" y="172"/>
      <point x="357" y="315"/>
      <point x="357" y="512" type="curve" smooth="yes"/>
      <point x="357" y="709"/>
      <point x="501" y="852"/>
      <point x="697" y="852" type="curve" smooth="yes"/>
      <point x="893" y="852"/>
      <point x="1038" y="709"/>
      <point x="1038" y="512" type="curve" smooth="yes"/>
      <point x="1038" y="315"/>
      <point x="893" y="172"/>
    </contour>
    <contour>
      <point x="1276" y="617" type="line"/>
      <point x="1289" y="775"/>
      <point x="1415" y="891"/>
      <point x="1581" y="891" type="curve" smooth="yes"/>
      <point x="1743" y="891" name=".hr02"/>
      <point x="1865" y="778"/>
      <point x="1883" y="617" type="curve"/>
    </contour>
  </outline>
</glyph>
<glyph name="Tbar" format="2">
  <advance width="1299"/>
  <unicode hex="0166"/>
  <outline>
    <component base="T"/>
    <contour>
      <point x="1027" y="884" type="line"/>
      <point x="1027" y="1057" type="line"/>
      <point x="272" y="1057" type="line"/>
      <point x="272" y="884" type="line"/>
    </contour>
  </outline>
</glyph>
<glyph name="tbar" format="2">
  <advance width="812"/>
  <unicode hex="0167"/>
  <outline>
    <contour>
      <point x="507" y="-32" type="curve" smooth="yes"/>
      <point x="589" y="-32"/>
      <point x="681" y="-6"/>
      <point x="738" y="35" type="curve"/>
      <point x="644" y="203" type="line"/>
      <point x="620" y="188"/>
      <point x="591" y="180"/>
      <point x="563" y="180" type="curve" smooth="yes"/>
      <point x="494" y="180"/>
      <point x="457" y="230"/>
      <point x="457" y="322" type="curve" smooth="yes"/>
      <point x="457" y="694" type="line"/>
      <point x="695" y="694" type="line"/>
      <point x="695" y="824" type="line"/>
      <point x="457" y="824" type="line"/>
      <point x="457" y="945" type="line"/>
      <point x="695" y="945" type="line"/>
      <point x="695" y="1075" type="line"/>
      <point x="457" y="1075" type="line"/>
      <point x="457" y="1407" type="line"/>
      <point x="219" y="1407" type="line"/>
      <point x="219" y="1075" type="line"/>
      <point x="96" y="1075" type="line"/>
      <point x="96" y="945" type="line"/>
      <point x="219" y="945" type="line"/>
      <point x="219" y="824" type="line"/>
      <point x="96" y="824" type="line"/>
      <point x="96" y="694" type="line"/>
      <point x="219" y="694" type="line"/>
      <point x="219" y="306" type="line" smooth="yes"/>
      <point x="219" y="93"/>
      <point x="325" y="-32"/>
    </contour>
  </outline>
</glyph>
<glyph name="Uogonek" format="2">
  <advance width="1642"/>
  <unicode hex="0172"/>
  <outline>
    <contour>
      <point x="820" y="-32" type="curve" smooth="yes"/>
      <point x="910" y="-32"/>
      <point x="991" y="-21"/>
      <point x="1062" y="0" type="curve"/>
      <point x="1026" y="0" type="line"/>
      <point x="912" y="-125"/>
      <point x="849" y="-242"/>
      <point x="849" y="-334" type="curve" smooth="yes"/>
      <point x="849" y="-458"/>
      <point x="954" y="-559"/>
      <point x="1100" y="-559" type="curve" smooth="yes"/>
      <point x="1208" y="-559"/>
      <point x="1314" y="-504"/>
      <point x="1375" y="-415" type="curve"/>
      <point x="1275" y="-340" type="line"/>
      <point x="1230" y="-395"/>
      <point x="1179" y="-422"/>
      <point x="1121" y="-422" type="curve" smooth="yes"/>
      <point x="1037" y="-422"/>
      <point x="994" y="-369"/>
      <point x="994" y="-301" type="curve" smooth="yes"/>
      <point x="994" y="-199"/>
      <point x="1092" y="-31"/>
      <point x="1239" y="92" type="curve" smooth="yes"/>
      <point x="1362" y="195"/>
      <point x="1425" y="360"/>
      <point x="1425" y="588" type="curve" smooth="yes"/>
      <point x="1425" y="1650" type="line"/>
      <point x="1175" y="1650" type="line"/>
      <point x="1175" y="654" type="line" smooth="yes"/>
      <point x="1175" y="350"/>
      <point x="1064" y="214"/>
      <point x="820" y="214" type="curve" smooth="yes"/>
      <point x="577" y="214"/>
      <point x="467" y="350"/>
      <point x="467" y="654" type="curve" smooth="yes"/>
      <point x="467" y="1650" type="line"/>
      <point x="217" y="1650" type="line"/>
      <point x="217" y="588" type="line" smooth="yes"/>
      <point x="217" y="177"/>
      <point x="421" y="-32"/>
    </contour>
  </outline>
</glyph>
<glyph name="uogonek" format="2">
  <advance width="1322"/>
  <unicode hex="0173"/>
  <outline>
    <contour>
      <point x="661" y="-32" type="curve" smooth="yes"/>
      <point x="743" y="-32"/>
      <point x="814" y="-21"/>
      <point x="876" y="0" type="curve"/>
      <point x="814" y="0" type="line"/>
      <point x="700" y="-125"/>
      <point x="637" y="-232"/>
      <point x="637" y="-331" type="curve" smooth="yes"/>
      <point x="637" y="-458"/>
      <point x="743" y="-559"/>
      <point x="889" y="-559" type="curve" smooth="yes"/>
      <point x="997" y="-559"/>
      <point x="1103" y="-504"/>
      <point x="1163" y="-415" type="curve"/>
      <point x="1063" y="-340" type="line"/>
      <point x="1018" y="-395"/>
      <point x="967" y="-422"/>
      <point x="909" y="-422" type="curve" smooth="yes"/>
      <point x="825" y="-422"/>
      <point x="782" y="-369"/>
      <point x="782" y="-297" type="curve" smooth="yes"/>
      <point x="782" y="-194"/>
      <point x="869" y="-45"/>
      <point x="1004" y="73" type="curve" smooth="yes"/>
      <point x="1100" y="158"/>
      <point x="1148" y="292"/>
      <point x="1148" y="478" type="curve" smooth="yes"/>
      <point x="1148" y="1024" type="line"/>
      <point x="911" y="1024" type="line"/>
      <point x="911" y="531" type="line" smooth="yes"/>
      <point x="911" y="272"/>
      <point x="838" y="163"/>
      <point x="661" y="163" type="curve" smooth="yes"/>
      <point x="484" y="163"/>
      <point x="411" y="272"/>
      <point x="411" y="531" type="curve" smooth="yes"/>
      <point x="411" y="1024" type="line"/>
      <point x="174" y="1024" type="line"/>
      <point x="174" y="478" type="line" smooth="yes"/>
      <point x="174" y="138"/>
      <point x="334" y="-32"/>
    </contour>
  </outline>
</glyph>
<glyph name="florin" format="2">
  <advance width="914"/>
  <unicode hex="0192"/>
  <outline>
    <contour>
      <point x="69" y="-551" type="curve" smooth="yes"/>
      <point x="279" y="-551"/>
      <point x="422" y="-390"/>
      <point x="447" y="-128" type="curve" smooth="yes"/>
      <point x="542" y="845" type="line"/>
      <point x="792" y="845" type="line"/>
      <point x="808" y="1025" type="line"/>
      <point x="558" y="1025" type="line"/>
      <point x="589" y="1325" type="line" smooth="yes"/>
      <point x="604" y="1476"/>
      <point x="655" y="1541"/>
      <point x="750" y="1541" type="curve" smooth="yes"/>
      <point x="788" y="1541"/>
      <point x="828" y="1530"/>
      <point x="854" y="1511" type="curve"/>
      <point x="956" y="1676" type="line"/>
      <point x="900" y="1723"/>
      <point x="817" y="1750"/>
      <point x="730" y="1750" type="curve" smooth="yes"/>
      <point x="520" y="1750"/>
      <point x="377" y="1589"/>
      <point x="351" y="1327" type="curve" smooth="yes"/>
      <point x="321" y="1025" type="line"/>
      <point x="198" y="1025" type="line"/>
      <point x="182" y="845" type="line"/>
      <point x="304" y="845" type="line"/>
      <point x="209" y="-126" type="line" smooth="yes"/>
      <point x="194" y="-277"/>
      <point x="142" y="-342"/>
      <point x="48" y="-342" type="curve" smooth="yes"/>
      <point x="9" y="-342"/>
      <point x="-31" y="-331"/>
      <point x="-57" y="-312" type="curve"/>
      <point x="-158" y="-477" type="line"/>
      <point x="-103" y="-524"/>
      <point x="-18" y="-551"/>
    </contour>
  </outline>
</glyph>
<glyph name="gravecomb" format="2">
  <advance width="431"/>
  <unicode hex="0300"/>
  <anchor x="299" y="1024" name="_top"/>
  <anchor x="215" y="1668" name="top"/>
  <outline>
    <contour>
      <point x="466" y="1305" type="line"/>
      <point x="76" y="1582" type="line"/>
      <point x="-36" y="1410" type="line"/>
      <point x="390" y="1192" type="line"/>
    </contour>
  </outline>
</glyph>
<glyph name="acutecomb" format="2">
  <advance width="406"/>
  <unicode hex="0301"/>
  <anchor x="132" y="1024" name="_top"/>
  <anchor x="164" y="1689" name="top"/>
  <outline>
    <contour>
      <point x="-61" y="1305" type="line"/>
      <point x="15" y="1192" type="line"/>
      <point x="431" y="1404" type="line"/>
      <point x="329" y="1582" type="line"/>
    </contour>
  </outline>
</glyph>
<glyph name="circumflexcomb" format="2">
  <advance width="799"/>
  <unicode hex="0302"/>
  <anchor x="399" y="1025" name="_top"/>
  <anchor x="399" y="1680" name="top"/>
  <outline>
    <contour>
      <point x="400" y="1484" type="line"/>
      <point x="706" y="1260" type="line"/>
      <point x="800" y="1387" type="line"/>
      <point x="400" y="1680" type="line"/>
      <point x="0" y="1387" type="line"/>
      <point x="94" y="1260" type="line"/>
    </contour>
  </outline>
</glyph>
<glyph name="tildecomb" format="2">
  <advance width="1040"/>
  <unicode hex="0303"/>
  <anchor x="520" y="1024" name="_top"/>
  <anchor x="520" y="1556" name="top"/>
  <outline>
    <contour>
      <point x="0" y="1332" type="curve"/>
      <point x="128" y="1248" type="line"/>
      <point x="171" y="1324"/>
      <point x="233" y="1375"/>
      <point x="320" y="1375" type="curve" smooth="yes"/>
      <point x="474" y="1375"/>
      <point x="544" y="1214"/>
      <point x="728" y="1214" type="curve" smooth="yes"/>
      <point x="860" y="1214"/>
      <point x="966" y="1296"/>
      <point x="1040" y="1438" type="curve"/>
      <point x="912" y="1522" type="line"/>
      <point x="869" y="1446"/>
      <point x="807" y="1395"/>
      <point x="720" y="1395" type="curve" smooth="yes"/>
      <point x="566" y="1395"/>
      <point x="496" y="1556"/>
      <point x="312" y="1556" type="curve" smooth="yes"/>
      <point x="180" y="1556"/>
      <point x="74" y="1474"/>
    </contour>
  </outline>
</glyph>
<glyph name="brevecomb" format="2">
  <advance width="866"/>
  <unicode hex="0306"/>
  <anchor x="433" y="1024" name="_top"/>
  <anchor x="433" y="1680" name="top"/>
  <outline>
    <contour>
      <point x="433" y="1298" type="curve" smooth="yes"/>
      <point x="665" y="1298"/>
      <point x="835" y="1436"/>
      <point x="866" y="1638" type="curve"/>
      <point x="694" y="1680" type="line"/>
      <point x="674" y="1557"/>
      <point x="586" y="1451"/>
      <point x="433" y="1451" type="curve" smooth="yes"/>
      <point x="280" y="1451"/>
      <point x="192" y="1557"/>
      <point x="172" y="1680" type="curve"/>
      <point x="0" y="1638" type="line"/>
      <point x="31" y="1436"/>
      <point x="201" y="1298"/>
    </contour>
  </outline>
</glyph>
<glyph name="dotaccentcomb" format="2">
  <advance width="290"/>
  <unicode hex="0307"/>
  <anchor x="145" y="1024" name="_top"/>
  <anchor x="145" y="1622" name="top"/>
  <outline>
    <contour>
      <point x="145" y="1332" type="curve" smooth="yes"/>
      <point x="225" y="1332"/>
      <point x="290" y="1397"/>
      <point x="290" y="1477" type="curve" smooth="yes"/>
      <point x="290" y="1557"/>
      <point x="225" y="1622"/>
      <point x="145" y="1622" type="curve" smooth="yes"/>
      <point x="65" y="1622"/>
      <point x="0" y="1557"/>
      <point x="0" y="1477" type="curve" smooth="yes"/>
      <point x="0" y="1397"/>
      <point x="65" y="1332"/>
    </contour>
  </outline>
</glyph>
<glyph name="dieresiscomb" format="2">
  <advance width="732"/>
  <unicode hex="0308"/>
  <anchor x="365" y="1024" name="_top"/>
  <anchor x="366" y="1529" name="top"/>
  <outline>
    <contour>
      <point x="601" y="1267" type="curve" smooth="yes"/>
      <point x="674" y="1267"/>
      <point x="732" y="1326"/>
      <point x="732" y="1398" type="curve" smooth="yes"/>
      <point x="732" y="1470"/>
      <point x="674" y="1529"/>
      <point x="601" y="1529" type="curve" smooth="yes"/>
      <point x="528" y="1529"/>
      <point x="470" y="1470"/>
      <point x="470" y="1398" type="curve" smooth="yes"/>
      <point x="470" y="1326"/>
      <point x="528" y="1267"/>
    </contour>
    <contour>
      <point x="131" y="1267" type="curve" smooth="yes"/>
      <point x="204" y="1267"/>
      <point x="262" y="1326"/>
      <point x="262" y="1398" type="curve" smooth="yes"/>
      <point x="262" y="1470"/>
      <point x="204" y="1529"/>
      <point x="131" y="1529" type="curve" smooth="yes"/>
      <point x="58" y="1529"/>
      <point x="0" y="1470"/>
      <point x="0" y="1398" type="curve" smooth="yes"/>
      <point x="0" y="1326"/>
      <point x="58" y="1267"/>
    </contour>
  </outline>
</glyph>
<glyph name="ringcomb" format="2">
  <advance width="544"/>
  <unicode hex="030A"/>
  <anchor x="272" y="1024" name="_top"/>
  <anchor x="272" y="1704" name="top"/>
  <outline>
    <contour>
      <point x="272" y="1226" type="curve" smooth="yes"/>
      <point x="424" y="1226"/>
      <point x="544" y="1324"/>
      <point x="544" y="1465" type="curve" smooth="yes"/>
      <point x="544" y="1606"/>
      <point x="424" y="1704"/>
      <point x="272" y="1704" type="curve" smooth="yes"/>
      <point x="120" y="1704"/>
      <point x="0" y="1606"/>
      <point x="0" y="1465" type="curve" smooth="yes"/>
      <point x="0" y="1324"/>
      <point x="120" y="1226"/>
    </contour>
    <contour>
      <point x="272" y="1343" type="curve" smooth="yes"/>
      <point x="200" y="1343"/>
      <point x="142" y="1396"/>
      <point x="142" y="1465" type="curve" smooth="yes"/>
      <point x="142" y="1534"/>
      <point x="200" y="1587"/>
      <point x="272" y="1587" type="curve" smooth="yes"/>
      <point x="344" y="1587"/>
      <point x="402" y="1534"/>
      <point x="402" y="1465" type="curve" smooth="yes"/>
      <point x="402" y="1396"/>
      <point x="344" y="1343"/>
    </contour>
  </outline>
</glyph>
<glyph name="hungarumlautcomb" format="2">
  <advance width="877"/>
  <unicode hex="030B"/>
  <anchor x="363" y="1024" name="_top"/>
  <anchor x="363" y="1680" name="top"/>
  <outline>
    <contour>
      <point x="877" y="1516" type="line"/>
      <point x="724" y="1680" type="line"/>
      <point x="440" y="1400" type="line"/>
      <point x="535" y="1290" type="line"/>
    </contour>
    <contour>
      <point x="437" y="1516" type="line"/>
      <point x="285" y="1680" type="line"/>
      <point x="0" y="1400" type="line"/>
      <point x="96" y="1290" type="line"/>
    </contour>
  </outline>
</glyph>
<glyph name="caroncomb" format="2">
  <advance width="800"/>
  <unicode hex="030C"/>
  <anchor x="400" y="1024" name="_top"/>
  <anchor x="400" y="1680" name="top"/>
  <outline>
    <contour>
      <point x="800" y="1484" type="line"/>
      <point x="706" y="1611" type="line"/>
      <point x="400" y="1387" type="line"/>
      <point x="94" y="1611" type="line"/>
      <point x="0" y="1484" type="line"/>
      <point x="400" y="1190" type="line"/>
    </contour>
  </outline>
</glyph>
<glyph name="commaaccentcomb" format="2">
  <advance width="743"/>
  <unicode hex="0326"/>
  <anchor x="373" y="0" name="_bottom"/>
  <anchor x="373" y="-626" name="bottom"/>
  <outline>
    <contour>
      <point x="326" y="-496" type="line"/>
      <point x="410" y="-428"/>
      <point x="468" y="-319"/>
      <point x="468" y="-230" type="curve" smooth="yes"/>
      <point x="468" y="-157"/>
      <point x="430" y="-118"/>
      <point x="373" y="-118" type="curve" smooth="yes"/>
      <point x="317" y="-118"/>
      <point x="278" y="-157"/>
      <point x="278" y="-210" type="curve" smooth="yes"/>
      <point x="278" y="-258"/>
      <point x="310" y="-293"/>
      <point x="356" y="-301" type="curve"/>
      <point x="351" y="-363"/>
      <point x="322" y="-430"/>
      <point x="291" y="-466" type="curve"/>
    </contour>
  </outline>
</glyph>
<glyph name="cedillacomb" format="2">
  <advance width="535"/>
  <unicode hex="0327"/>
  <anchor x="329" y="18" name="_cedilla"/>
  <anchor x="257" y="-569" name="bottom"/>
  <outline>
    <contour>
      <point x="219" y="18" type="line"/>
      <point x="139" y="-231" type="line"/>
      <point x="152" y="-241" type="line"/>
      <point x="177" y="-226"/>
      <point x="227" y="-215"/>
      <point x="268" y="-215" type="curve" smooth="yes"/>
      <point x="346" y="-215"/>
      <point x="400" y="-255"/>
      <point x="400" y="-316" type="curve" smooth="yes"/>
      <point x="400" y="-377"/>
      <point x="349" y="-419"/>
      <point x="273" y="-419" type="curve" smooth="yes"/>
      <point x="203" y="-419"/>
      <point x="140" y="-384"/>
      <point x="98" y="-322" type="curve"/>
      <point x="0" y="-393" type="line"/>
      <point x="70" y="-489"/>
      <point x="165" y="-541"/>
      <point x="277" y="-541" type="curve" smooth="yes"/>
      <point x="427" y="-541"/>
      <point x="535" y="-449"/>
      <point x="535" y="-320" type="curve" smooth="yes"/>
      <point x="535" y="-190"/>
      <point x="415" y="-132"/>
      <point x="302" y="-132" type="curve" smooth="yes"/>
      <point x="286" y="-132"/>
      <point x="270" y="-133"/>
      <point x="255" y="-136" type="curve"/>
      <point x="273" y="-151" type="line"/>
      <point x="329" y="18" type="line"/>
    </contour>
  </outline>
</glyph>
<glyph name="ogonekcomb" format="2">
  <advance width="526"/>
  <unicode hex="0328"/>
  <anchor x="295" y="18" name="_ogonek"/>
  <outline>
    <contour>
      <point x="251" y="-540" type="curve" smooth="yes"/>
      <point x="359" y="-540"/>
      <point x="465" y="-485"/>
      <point x="526" y="-396" type="curve"/>
      <point x="425" y="-321" type="line"/>
      <point x="380" y="-376"/>
      <point x="329" y="-403"/>
      <point x="272" y="-403" type="curve" smooth="yes"/>
      <point x="188" y="-403"/>
      <point x="145" y="-350"/>
      <point x="145" y="-283" type="curve" smooth="yes"/>
      <point x="145" y="-204"/>
      <point x="202" y="-88"/>
      <point x="295" y="18" type="curve"/>
      <point x="177" y="18" type="line"/>
      <point x="63" y="-107"/>
      <point x="0" y="-224"/>
      <point x="0" y="-315" type="curve" smooth="yes"/>
      <point x="0" y="-439"/>
      <point x="106" y="-540"/>
    </contour>
  </outline>
</glyph>
<glyph name="Delta" format="2">
  <advance width="1476"/>
  <unicode hex="0394"/>
  <outline>
    <contour>
      <point x="703" y="1650" type="line"/>
      <point x="57" y="0" type="line"/>
      <point x="1418" y="0" type="line"/>
      <point x="772" y="1650" type="line"/>
    </contour>
    <contour>
      <point x="687" y="1496" type="line"/>
      <point x="1168" y="161" type="line"/>
      <point x="307" y="161" type="line"/>
      <point x="788" y="1496" type="line"/>
    </contour>
  </outline>
</glyph>
<glyph name="Omega" format="2">
  <advance width="1828"/>
  <unicode hex="03A9"/>
  <outline>
    <contour>
      <point x="914" y="1680" type="curve" smooth="yes"/>
      <point x="467" y="1680"/>
      <point x="131" y="1339"/>
      <point x="131" y="892" type="curve" smooth="yes"/>
      <point x="131" y="522"/>
      <point x="369" y="245"/>
      <point x="648" y="148" type="curve"/>
      <point x="209" y="168" type="line"/>
      <point x="209" y="0" type="line"/>
      <point x="869" y="0" type="line"/>
      <point x="869" y="113" type="line"/>
      <point x="846" y="125" type="line" smooth="yes"/>
      <point x="586" y="255"/>
      <point x="362" y="555"/>
      <point x="362" y="862" type="curve" smooth="yes"/>
      <point x="362" y="1163"/>
      <point x="563" y="1473"/>
      <point x="914" y="1473" type="curve" smooth="yes"/>
      <point x="1266" y="1473"/>
      <point x="1466" y="1163"/>
      <point x="1466" y="862" type="curve" smooth="yes"/>
      <point x="1466" y="555"/>
      <point x="1241" y="255"/>
      <point x="982" y="125" type="curve" smooth="yes"/>
      <point x="959" y="113" type="line"/>
      <point x="959" y="0" type="line"/>
      <point x="1618" y="0" type="line"/>
      <point x="1618" y="168" type="line"/>
      <point x="1179" y="148" type="line"/>
      <point x="1459" y="245"/>
      <point x="1697" y="522"/>
      <point x="1697" y="892" type="curve" smooth="yes"/>
      <point x="1697" y="1339"/>
      <point x="1361" y="1680"/>
    </contour>
  </outline>
</glyph>
<glyph name="mu" format="2">
  <advance width="1540"/>
  <unicode hex="03BC"/>
  <outline>
    <contour>
      <point x="543" y="-320" type="line"/>
      <point x="543" y="51" type="line"/>
      <point x="577" y="-1"/>
      <point x="639" y="-32"/>
      <point x="732" y="-32" type="curve" smooth="yes"/>
      <point x="845" y="-32"/>
      <point x="980" y="24"/>
      <point x="1042" y="125" type="curve"/>
      <point x="1042" y="0" type="line"/>
      <point x="1279" y="0" type="line"/>
      <point x="1279" y="1024" type="line"/>
      <point x="1042" y="1024" type="line"/>
      <point x="1042" y="396" type="line" smooth="yes"/>
      <point x="1042" y="277"/>
      <point x="941" y="156"/>
      <point x="786" y="156" type="curve" smooth="yes"/>
      <point x="624" y="156"/>
      <point x="543" y="261"/>
      <point x="543" y="427" type="curve" smooth="yes"/>
      <point x="543" y="1024" type="line"/>
      <point x="306" y="1024" type="line"/>
      <point x="306" y="429" type="line" smooth="yes"/>
      <point x="306" y="114"/>
      <point x="257" y="-43"/>
      <point x="257" y="-320" type="curve"/>
    </contour>
  </outline>
</glyph>
<glyph name="pi" format="2">
  <advance width="1329"/>
  <unicode hex="03C0"/>
  <outline>
    <contour>
      <point x="549" y="0" type="line"/>
      <point x="549" y="851" type="line"/>
      <point x="799" y="851" type="line"/>
      <point x="799" y="246" type="line" smooth="yes"/>
      <point x="799" y="67"/>
      <point x="878" y="0"/>
      <point x="1088" y="0" type="curve"/>
      <point x="1088" y="186" type="line"/>
      <point x="1009" y="186"/>
      <point x="985" y="209"/>
      <point x="985" y="283" type="curve" smooth="yes"/>
      <point x="985" y="851" type="line"/>
      <point x="1152" y="851" type="line"/>
      <point x="1152" y="1024" type="line"/>
      <point x="196" y="1024" type="line"/>
      <point x="196" y="851" type="line"/>
      <point x="363" y="851" type="line"/>
      <point x="363" y="0" type="line"/>
    </contour>
  </outline>
</glyph>
<glyph name="Germandbls" format="2">
  <advance width="1625"/>
  <unicode hex="1E9E"/>
  <outline>
    <contour>
      <point x="1020" y="-28" type="curve" smooth="yes"/>
      <point x="1283" y="-28"/>
      <point x="1496" y="139"/>
      <point x="1496" y="408" type="curve" smooth="yes"/>
      <point x="1496" y="766"/>
      <point x="1122" y="772"/>
      <point x="1122" y="872" type="curve" smooth="yes"/>
      <point x="1122" y="942"/>
      <point x="1304" y="985" name=".hr01"/>
      <point x="1304" y="1245" type="curve" smooth="yes"/>
      <point x="1304" y="1527"/>
      <point x="1092" y="1681"/>
      <point x="813" y="1681" type="curve" smooth="yes"/>
      <point x="452" y="1681"/>
      <point x="244" y="1427"/>
      <point x="244" y="1003" type="curve" smooth="yes"/>
      <point x="244" y="0" type="line"/>
      <point x="494" y="0" type="line"/>
      <point x="494" y="1024" type="line" smooth="yes"/>
      <point x="494" y="1288"/>
      <point x="598" y="1437"/>
      <point x="795" y="1437" type="curve" smooth="yes"/>
      <point x="939" y="1437"/>
      <point x="1050" y="1357"/>
      <point x="1050" y="1199" type="curve" smooth="yes"/>
      <point x="1050" y="991"/>
      <point x="854" y="992"/>
      <point x="854" y="840" type="curve" smooth="yes"/>
      <point x="854" y="625"/>
      <point x="1250" y="675" name=".hr02"/>
      <point x="1250" y="428" type="curve" smooth="yes"/>
      <point x="1250" y="294"/>
      <point x="1148" y="212"/>
      <point x="1006" y="212" type="curve" smooth="yes"/>
      <point x="916" y="212"/>
      <point x="833" y="242"/>
      <point x="734" y="298" type="curve"/>
      <point x="628" y="87" type="line"/>
      <point x="765" y="11"/>
      <point x="898" y="-28"/>
    </contour>
  </outline>
</glyph>
<glyph name="endash" format="2">
  <advance width="1351"/>
  <unicode hex="2013"/>
  <outline>
    <contour>
      <point x="1155" y="477" type="line"/>
      <point x="1155" y="680" type="line"/>
      <point x="196" y="680" type="line"/>
      <point x="196" y="477" type="line"/>
    </contour>
  </outline>
</glyph>
<glyph name="emdash" format="2">
  <advance width="2292"/>
  <unicode hex="2014"/>
  <outline>
    <contour>
      <point x="2096" y="477" type="line"/>
      <point x="2096" y="680" type="line"/>
      <point x="196" y="680" type="line"/>
      <point x="196" y="477" type="line"/>
    </contour>
  </outline>
</glyph>
<glyph name="quotesinglbase" format="2">
  <advance width="743"/>
  <unicode hex="201A"/>
  <outline>
    <contour>
      <point x="255" y="-267" type="line"/>
      <point x="388" y="-158"/>
      <point x="475" y="-12"/>
      <point x="475" y="109" type="curve" smooth="yes"/>
      <point x="475" y="213"/>
      <point x="410" y="274"/>
      <point x="327" y="274" type="curve" smooth="yes"/>
      <point x="243" y="274"/>
      <point x="179" y="211"/>
      <point x="179" y="130" type="curve" smooth="yes"/>
      <point x="179" y="62"/>
      <point x="223" y="8"/>
      <point x="292" y="-7" type="curve"/>
      <point x="283" y="-79"/>
      <point x="236" y="-175"/>
      <point x="195" y="-217" type="curve"/>
    </contour>
  </outline>
</glyph>
<glyph name="dagger" format="2">
  <advance width="1099"/>
  <unicode hex="2020"/>
  <outline>
    <contour>
      <point x="654" y="0" type="line"/>
      <point x="654" y="1070" type="line"/>
      <point x="952" y="1070" type="line"/>
      <point x="952" y="1258" type="line"/>
      <point x="654" y="1258" type="line"/>
      <point x="654" y="1720" type="line"/>
      <point x="446" y="1720" type="line"/>
      <point x="446" y="1258" type="line"/>
      <point x="148" y="1258" type="line"/>
      <point x="148" y="1070" type="line"/>
      <point x="446" y="1070" type="line"/>
      <point x="446" y="0" type="line"/>
    </contour>
  </outline>
</glyph>
<glyph name="daggerdbl" format="2">
  <advance width="1180"/>
  <unicode hex="2021"/>
  <outline>
    <contour>
      <point x="694" y="0" type="line"/>
      <point x="694" y="502" type="line"/>
      <point x="992" y="502" type="line"/>
      <point x="992" y="690" type="line"/>
      <point x="694" y="690" type="line"/>
      <point x="694" y="1046" type="line"/>
      <point x="992" y="1046" type="line"/>
      <point x="992" y="1234" type="line"/>
      <point x="694" y="1234" type="line"/>
      <point x="694" y="1720" type="line"/>
      <point x="486" y="1720" type="line"/>
      <point x="486" y="1234" type="line"/>
      <point x="188" y="1234" type="line"/>
      <point x="188" y="1046" type="line"/>
      <point x="486" y="1046" type="line"/>
      <point x="486" y="690" type="line"/>
      <point x="188" y="690" type="line"/>
      <point x="188" y="502" type="line"/>
      <point x="486" y="502" type="line"/>
      <point x="486" y="0" type="line"/>
    </contour>
  </outline>
</glyph>
<glyph name="bullet" format="2">
  <advance width="952"/>
  <unicode hex="2022"/>
  <outline>
    <contour>
      <point x="475" y="454" type="curve" smooth="yes"/>
      <point x="620" y="454"/>
      <point x="735" y="569"/>
      <point x="735" y="714" type="curve" smooth="yes"/>
      <point x="735" y="859"/>
      <point x="620" y="974"/>
      <point x="475" y="974" type="curve" smooth="yes"/>
      <point x="330" y="974"/>
      <point x="215" y="859"/>
      <point x="215" y="714" type="curve" smooth="yes"/>
      <point x="215" y="569"/>
      <point x="330" y="454"/>
    </contour>
  </outline>
</glyph>
<glyph name="perthousand" format="2">
  <advance width="3079"/>
  <unicode hex="2030"/>
  <outline>
    <component base="percent"/>
    <contour>
      <point x="2517" y="-32" type="curve" smooth="yes"/>
      <point x="2758" y="-32"/>
      <point x="2943" y="130"/>
      <point x="2943" y="362" type="curve" smooth="yes"/>
      <point x="2943" y="594"/>
      <point x="2758" y="756"/>
      <point x="2517" y="756" type="curve" smooth="yes"/>
      <point x="2276" y="756"/>
      <point x="2091" y="594"/>
      <point x="2091" y="362" type="curve" smooth="yes"/>
      <point x="2091" y="130"/>
      <point x="2276" y="-32"/>
    </contour>
    <contour>
      <point x="2517" y="117" type="curve" smooth="yes"/>
      <point x="2379" y="117"/>
      <point x="2272" y="218"/>
      <point x="2272" y="362" type="curve" smooth="yes"/>
      <point x="2272" y="506"/>
      <point x="2379" y="607"/>
      <point x="2517" y="607" type="curve" smooth="yes"/>
      <point x="2655" y="607"/>
      <point x="2762" y="506"/>
      <point x="2762" y="362" type="curve" smooth="yes"/>
      <point x="2762" y="218"/>
      <point x="2655" y="117"/>
    </contour>
  </outline>
</glyph>
<glyph name="guilsinglleft" format="2">
  <advance width="743"/>
  <unicode hex="2039"/>
  <outline>
    <contour>
      <point x="622" y="160" type="line"/>
      <point x="312" y="557" type="line"/>
      <point x="622" y="954" type="line"/>
      <point x="491" y="1057" type="line"/>
      <point x="101" y="557" type="line"/>
      <point x="491" y="57" type="line"/>
    </contour>
  </outline>
</glyph>
<glyph name="guilsinglright" format="2">
  <advance width="741"/>
  <unicode hex="203A"/>
  <outline>
    <contour>
      <point x="640" y="557" type="line"/>
      <point x="250" y="1057" type="line"/>
      <point x="119" y="954" type="line"/>
      <point x="430" y="557" type="line"/>
      <point x="119" y="160" type="line"/>
      <point x="250" y="57" type="line"/>
    </contour>
  </outline>
</glyph>
<glyph name="fraction" format="2">
  <advance width="322"/>
  <unicode hex="2044"/>
  <outline>
    <contour>
      <point x="-289" y="0" type="line"/>
      <point x="770" y="1650" type="line"/>
      <point x="611" y="1650" type="line"/>
      <point x="-448" y="0" type="line"/>
    </contour>
  </outline>
</glyph>
<glyph name="foursuperior" format="2">
  <advance width="905"/>
  <unicode hex="2074"/>
  <outline>
    <contour>
      <point x="636" y="1040" type="line"/>
      <point x="636" y="1150" type="line"/>
      <point x="715" y="1150" type="line"/>
      <point x="715" y="1251" type="line"/>
      <point x="636" y="1251" type="line"/>
      <point x="636" y="1650" type="line"/>
      <point x="523" y="1650" type="line"/>
      <point x="189" y="1189" type="line"/>
      <point x="189" y="1150" type="line"/>
      <point x="527" y="1150" type="line"/>
      <point x="527" y="1040" type="line"/>
    </contour>
    <contour>
      <point x="527" y="1508" type="line"/>
      <point x="527" y="1251" type="line"/>
      <point x="347" y="1251" type="line"/>
    </contour>
  </outline>
</glyph>
<glyph name="euro" format="2">
  <advance width="1906"/>
  <unicode hex="20AC"/>
  <outline>
    <component base="C" xOffset="233"/>
    <contour>
      <point x="180" y="1067" type="line"/>
      <point x="180" y="918" type="line"/>
      <point x="1425" y="918" type="line"/>
      <point x="1425" y="1067" type="line"/>
    </contour>
    <contour>
      <point x="180" y="728" type="line"/>
      <point x="180" y="579" type="line"/>
      <point x="1425" y="579" type="line"/>
      <point x="1425" y="728" type="line"/>
    </contour>
  </outline>
</glyph>
<glyph name="arrowleft" format="2">
  <advance width="2072"/>
  <unicode hex="2190"/>
  <outline>
    <contour>
      <point x="355" y="950" type="line"/>
      <point x="355" y="700" type="line"/>
      <point x="1876" y="700" type="line"/>
      <point x="1876" y="950" type="line"/>
    </contour>
    <contour>
      <point x="196" y="825" type="line"/>
      <point x="1021" y="0" type="line"/>
      <point x="1372" y="0" type="line"/>
      <point x="497" y="844" type="line"/>
      <point x="497" y="806" type="line"/>
      <point x="1372" y="1650" type="line"/>
      <point x="1021" y="1650" type="line"/>
    </contour>
  </outline>
</glyph>
<glyph name="arrowup" format="2">
  <advance width="2042"/>
  <unicode hex="2191"/>
  <outline>
    <contour>
      <point x="1146" y="1521" type="line"/>
      <point x="896" y="1521" type="line"/>
      <point x="896" y="0" type="line"/>
      <point x="1146" y="0" type="line"/>
    </contour>
    <contour>
      <point x="1021" y="1680" type="line"/>
      <point x="196" y="855" type="line"/>
      <point x="196" y="504" type="line"/>
      <point x="1040" y="1379" type="line"/>
      <point x="1002" y="1379" type="line"/>
      <point x="1846" y="504" type="line"/>
      <point x="1846" y="855" type="line"/>
    </contour>
  </outline>
</glyph>
<glyph name="arrowboth" format="2">
  <advance width="2622"/>
  <unicode hex="2194"/>
  <outline>
    <contour>
      <point x="350" y="950" type="line"/>
      <point x="350" y="700" type="line"/>
      <point x="2282" y="700" type="line"/>
      <point x="2282" y="950" type="line"/>
    </contour>
    <contour>
      <point x="805" y="1650" type="line"/>
      <point x="196" y="825" type="line"/>
      <point x="805" y="0" type="line"/>
      <point x="1123" y="0" type="line"/>
      <point x="487" y="844" type="line"/>
      <point x="487" y="806" type="line"/>
      <point x="1123" y="1650" type="line"/>
    </contour>
    <contour>
      <point x="1498" y="1650" type="line"/>
      <point x="2136" y="806" type="line"/>
      <point x="2136" y="844" type="line"/>
      <point x="1498" y="0" type="line"/>
      <point x="1817" y="0" type="line"/>
      <point x="2426" y="825" type="line"/>
      <point x="1817" y="1650" type="line"/>
    </contour>
  </outline>
</glyph>
<glyph name="arrowupdn" format="2">
  <advance width="1522"/>
  <unicode hex="2195"/>
  <outline>
    <contour>
      <point x="886" y="1521" type="line"/>
      <point x="636" y="1521" type="line"/>
      <point x="636" y="129" type="line"/>
      <point x="886" y="129" type="line"/>
    </contour>
    <contour>
      <point x="761" y="1680" type="line"/>
      <point x="196" y="1217" type="line"/>
      <point x="196" y="956" type="line"/>
      <point x="780" y="1441" type="line"/>
      <point x="742" y="1441" type="line"/>
      <point x="1326" y="956" type="line"/>
      <point x="1326" y="1217" type="line"/>
    </contour>
    <contour>
      <point x="196" y="694" type="line"/>
      <point x="196" y="433" type="line"/>
      <point x="761" y="-30" type="line"/>
      <point x="1326" y="433" type="line"/>
      <point x="1326" y="694" type="line"/>
      <point x="742" y="209" type="line"/>
      <point x="780" y="209" type="line"/>
    </contour>
  </outline>
</glyph>
<glyph name="arrowNW" format="2">
  <advance width="1956"/>
  <unicode hex="2196"/>
  <outline>
    <contour>
      <point x="397" y="1626" type="line"/>
      <point x="221" y="1449" type="line"/>
      <point x="1520" y="149" type="line"/>
      <point x="1698" y="326" type="line"/>
    </contour>
    <contour>
      <point x="196" y="1650" type="line"/>
      <point x="196" y="334" type="line"/>
      <point x="445" y="87" type="line"/>
      <point x="423" y="1451" type="line"/>
      <point x="396" y="1424" type="line"/>
      <point x="1760" y="1401" type="line"/>
      <point x="1512" y="1650" type="line"/>
    </contour>
  </outline>
</glyph>
<glyph name="arrowNE" format="2">
  <advance width="1955"/>
  <unicode hex="2197"/>
  <outline>
    <contour>
      <point x="1735" y="1450" type="line"/>
      <point x="1558" y="1626" type="line"/>
      <point x="258" y="327" type="line"/>
      <point x="435" y="149" type="line"/>
    </contour>
    <contour>
      <point x="1759" y="1651" type="line"/>
      <point x="443" y="1651" type="line"/>
      <point x="196" y="1402" type="line"/>
      <point x="1560" y="1424" type="line"/>
      <point x="1533" y="1451" type="line"/>
      <point x="1510" y="87" type="line"/>
      <point x="1759" y="335" type="line"/>
    </contour>
  </outline>
</glyph>
<glyph name="arrowSE" format="2">
  <advance width="1956"/>
  <unicode hex="2198"/>
  <outline>
    <contour>
      <point x="1559" y="24" type="line"/>
      <point x="1735" y="201" type="line"/>
      <point x="436" y="1501" type="line"/>
      <point x="258" y="1324" type="line"/>
    </contour>
    <contour>
      <point x="1760" y="0" type="line"/>
      <point x="1760" y="1316" type="line"/>
      <point x="1511" y="1563" type="line"/>
      <point x="1533" y="199" type="line"/>
      <point x="1560" y="226" type="line"/>
      <point x="196" y="249" type="line"/>
      <point x="444" y="0" type="line"/>
    </contour>
  </outline>
</glyph>
<glyph name="arrowSW" format="2">
  <advance width="1955"/>
  <unicode hex="2199"/>
  <outline>
    <contour>
      <point x="221" y="201" type="line"/>
      <point x="398" y="25" type="line"/>
      <point x="1697" y="1324" type="line"/>
      <point x="1520" y="1502" type="line"/>
    </contour>
    <contour>
      <point x="197" y="0" type="line"/>
      <point x="1512" y="0" type="line"/>
      <point x="1759" y="249" type="line"/>
      <point x="396" y="227" type="line"/>
      <point x="423" y="200" type="line"/>
      <point x="445" y="1564" type="line"/>
      <point x="196" y="1316" type="line"/>
    </contour>
  </outline>
</glyph>
<glyph name="partialdiff" format="2">
  <advance width="1485"/>
  <unicode hex="2202"/>
  <outline>
    <contour>
      <point x="762" y="-35" type="curve" smooth="yes"/>
      <point x="1131" y="-35"/>
      <point x="1343" y="225"/>
      <point x="1343" y="669" type="curve" smooth="yes"/>
      <point x="1343" y="1167"/>
      <point x="1072" y="1567"/>
      <point x="636" y="1812" type="curve"/>
      <point x="530" y="1635" type="line"/>
      <point x="829" y="1464"/>
      <point x="1015" y="1207"/>
      <point x="1065" y="886" type="curve"/>
      <point x="1007" y="1001"/>
      <point x="858" y="1074"/>
      <point x="702" y="1074" type="curve" smooth="yes"/>
      <point x="384" y="1074"/>
      <point x="145" y="825"/>
      <point x="145" y="525" type="curve" smooth="yes"/>
      <point x="145" y="204"/>
      <point x="414" y="-35"/>
    </contour>
    <contour>
      <point x="739" y="175" type="curve" smooth="yes"/>
      <point x="555" y="175"/>
      <point x="393" y="305"/>
      <point x="393" y="509" type="curve" smooth="yes"/>
      <point x="393" y="692"/>
      <point x="524" y="856"/>
      <point x="730" y="856" type="curve" smooth="yes"/>
      <point x="913" y="856"/>
      <point x="1075" y="724"/>
      <point x="1075" y="521" type="curve" smooth="yes"/>
      <point x="1075" y="338"/>
      <point x="943" y="175"/>
    </contour>
  </outline>
</glyph>
<glyph name="emptyset" format="2">
  <advance width="1200"/>
  <unicode hex="2205"/>
  <outline>
    <contour>
      <point x="1121" y="1052" type="line"/>
      <point x="1037" y="1138" type="line"/>
      <point x="109" y="210" type="line"/>
      <point x="195" y="125" type="line"/>
    </contour>
    <contour>
      <point x="615" y="166" type="curve" smooth="yes"/>
      <point x="874" y="166"/>
      <point x="1078" y="368"/>
      <point x="1078" y="631" type="curve" smooth="yes"/>
      <point x="1078" y="893"/>
      <point x="876" y="1096"/>
      <point x="616" y="1096" type="curve" smooth="yes"/>
      <point x="355" y="1096"/>
      <point x="152" y="890"/>
      <point x="152" y="630" type="curve" smooth="yes"/>
      <point x="152" y="371"/>
      <point x="355" y="166"/>
    </contour>
    <contour>
      <point x="615" y="323" type="curve" smooth="yes"/>
      <point x="439" y="323"/>
      <point x="305" y="453"/>
      <point x="305" y="631" type="curve" smooth="yes"/>
      <point x="305" y="809"/>
      <point x="439" y="939"/>
      <point x="615" y="939" type="curve" smooth="yes"/>
      <point x="792" y="939"/>
      <point x="926" y="809"/>
      <point x="926" y="631" type="curve" smooth="yes"/>
      <point x="926" y="453"/>
      <point x="792" y="323"/>
    </contour>
  </outline>
</glyph>
<glyph name="product" format="2">
  <advance width="1815"/>
  <unicode hex="220F"/>
  <outline>
    <contour>
      <point x="597" y="0" type="line"/>
      <point x="597" y="1547" type="line"/>
      <point x="1217" y="1547" type="line"/>
      <point x="1217" y="0" type="line"/>
      <point x="1403" y="0" type="line"/>
      <point x="1403" y="1547" type="line"/>
      <point x="1570" y="1547" type="line"/>
      <point x="1570" y="1720" type="line"/>
      <point x="244" y="1720" type="line"/>
      <point x="244" y="1547" type="line"/>
      <point x="411" y="1547" type="line"/>
      <point x="411" y="0" type="line"/>
    </contour>
  </outline>
</glyph>
<glyph name="summation" format="2">
  <advance width="1601"/>
  <unicode hex="2211"/>
  <outline>
    <contour>
      <point x="1356" y="0" type="line"/>
      <point x="1356" y="173" type="line"/>
      <point x="564" y="173" type="line"/>
      <point x="1028" y="860" type="line"/>
      <point x="564" y="1547" type="line"/>
      <point x="1356" y="1547" type="line"/>
      <point x="1356" y="1720" type="line"/>
      <point x="244" y="1720" type="line"/>
      <point x="828" y="860" type="line"/>
      <point x="244" y="0" type="line"/>
    </contour>
  </outline>
</glyph>
<glyph name="minus" format="2">
  <advance width="1612"/>
  <unicode hex="2212"/>
  <outline>
    <contour>
      <point x="1319" y="726" type="line"/>
      <point x="1319" y="931" type="line"/>
      <point x="293" y="931" type="line"/>
      <point x="293" y="726" type="line"/>
    </contour>
  </outline>
</glyph>
<glyph name="DivisionSlash" format="2">
  <advance width="1026"/>
  <unicode hex="2215"/>
  <outline>
    <contour>
      <point x="201" y="-240" type="line"/>
      <point x="1025" y="1720" type="line"/>
      <point x="824" y="1720" type="line"/>
      <point x="0" y="-240" type="line"/>
    </contour>
  </outline>
</glyph>
<glyph name="radical" format="2">
  <advance width="1747"/>
  <unicode hex="221A"/>
  <outline>
    <contour>
      <point x="724" y="-32" type="line"/>
      <point x="1115" y="1547" type="line"/>
      <point x="1502" y="1547" type="line"/>
      <point x="1502" y="1720" type="line"/>
      <point x="967" y="1720" type="line"/>
      <point x="603" y="178" type="line"/>
      <point x="431" y="609" type="line"/>
      <point x="244" y="609" type="line"/>
      <point x="503" y="-32" type="line"/>
    </contour>
  </outline>
</glyph>
<glyph name="infinity" format="2">
  <advance width="2124"/>
  <unicode hex="221E"/>
  <outline>
    <contour>
      <point x="566" y="81" type="curve" smooth="yes"/>
      <point x="755" y="81"/>
      <point x="906" y="216"/>
      <point x="1062" y="398" type="curve"/>
      <point x="1218" y="216"/>
      <point x="1369" y="81"/>
      <point x="1558" y="81" type="curve" smooth="yes"/>
      <point x="1789" y="81"/>
      <point x="2014" y="274"/>
      <point x="2014" y="545" type="curve" smooth="yes"/>
      <point x="2014" y="816"/>
      <point x="1788" y="1008"/>
      <point x="1558" y="1008" type="curve" smooth="yes"/>
      <point x="1369" y="1008"/>
      <point x="1218" y="873"/>
      <point x="1062" y="692" type="curve"/>
      <point x="906" y="873"/>
      <point x="755" y="1008"/>
      <point x="566" y="1008" type="curve" smooth="yes"/>
      <point x="337" y="1008"/>
      <point x="111" y="816"/>
      <point x="111" y="545" type="curve" smooth="yes"/>
      <point x="111" y="274"/>
      <point x="336" y="81"/>
    </contour>
    <contour>
      <point x="594" y="289" type="curve" smooth="yes"/>
      <point x="470" y="289"/>
      <point x="344" y="393"/>
      <point x="344" y="545" type="curve" smooth="yes"/>
      <point x="344" y="697"/>
      <point x="471" y="800"/>
      <point x="594" y="800" type="curve" smooth="yes"/>
      <point x="724" y="800"/>
      <point x="819" y="686"/>
      <point x="940" y="545" type="curve"/>
      <point x="819" y="403"/>
      <point x="724" y="289"/>
    </contour>
    <contour>
      <point x="1530" y="289" type="curve" smooth="yes"/>
      <point x="1400" y="289"/>
      <point x="1305" y="403"/>
      <point x="1184" y="545" type="curve"/>
      <point x="1305" y="686"/>
      <point x="1400" y="800"/>
      <point x="1530" y="800" type="curve" smooth="yes"/>
      <point x="1654" y="800"/>
      <point x="1780" y="697"/>
      <point x="1780" y="545" type="curve" smooth="yes"/>
      <point x="1780" y="393"/>
      <point x="1655" y="289"/>
    </contour>
  </outline>
</glyph>
<glyph name="integral" format="2">
  <advance width="914"/>
  <unicode hex="222B"/>
  <outline>
    <contour>
      <point x="70" y="-551" type="curve" smooth="yes"/>
      <point x="283" y="-551"/>
      <point x="422" y="-394"/>
      <point x="447" y="-128" type="curve"/>
      <point x="589" y="1325" type="line"/>
      <point x="603" y="1476"/>
      <point x="653" y="1541"/>
      <point x="750" y="1541" type="curve" smooth="yes"/>
      <point x="791" y="1541"/>
      <point x="831" y="1528"/>
      <point x="857" y="1509" type="curve"/>
      <point x="956" y="1675" type="line"/>
      <point x="900" y="1723"/>
      <point x="816" y="1750"/>
      <point x="727" y="1750" type="curve" smooth="yes"/>
      <point x="515" y="1750"/>
      <point x="376" y="1593"/>
      <point x="351" y="1327" type="curve"/>
      <point x="209" y="-126" type="line"/>
      <point x="195" y="-277"/>
      <point x="144" y="-342"/>
      <point x="48" y="-342" type="curve" smooth="yes"/>
      <point x="6" y="-342"/>
      <point x="-33" y="-329"/>
      <point x="-60" y="-310" type="curve"/>
      <point x="-158" y="-476" type="line"/>
      <point x="-103" y="-524"/>
      <point x="-18" y="-551"/>
    </contour>
  </outline>
</glyph>
<glyph name="notequal" format="2">
  <advance width="1481"/>
  <unicode hex="2260"/>
  <outline>
    <component base="equal" xOffset="-61"/>
    <contour>
      <point x="415" y="206" type="line"/>
      <point x="1133" y="1444" type="line"/>
      <point x="970" y="1444" type="line"/>
      <point x="252" y="206" type="line"/>
    </contour>
  </outline>
</glyph>
<glyph name="lessequal" format="2">
  <advance width="1503"/>
  <unicode hex="2264"/>
  <outline>
    <contour>
      <point x="1277" y="670" type="line"/>
      <point x="431" y="1040" type="line"/>
      <point x="1277" y="1414" type="line"/>
      <point x="1277" y="1605" type="line"/>
      <point x="181" y="1121" type="line"/>
      <point x="181" y="964" type="line"/>
      <point x="1277" y="481" type="line"/>
    </contour>
    <contour>
      <point x="1277" y="96" type="line"/>
      <point x="1277" y="301" type="line"/>
      <point x="181" y="301" type="line"/>
      <point x="181" y="96" type="line"/>
    </contour>
  </outline>
</glyph>
<glyph name="greaterequal" format="2">
  <advance width="1503"/>
  <unicode hex="2265"/>
  <outline>
    <contour>
      <point x="1322" y="964" type="line"/>
      <point x="1322" y="1121" type="line"/>
      <point x="227" y="1605" type="line"/>
      <point x="227" y="1414" type="line"/>
      <point x="1072" y="1040" type="line"/>
      <point x="227" y="670" type="line"/>
      <point x="227" y="481" type="line"/>
    </contour>
    <contour>
      <point x="1322" y="96" type="line"/>
      <point x="1322" y="301" type="line"/>
      <point x="227" y="301" type="line"/>
      <point x="227" y="96" type="line"/>
    </contour>
  </outline>
</glyph>
<glyph name="lozenge" format="2">
  <advance width="1200"/>
  <unicode hex="25CA"/>
  <outline>
    <contour>
      <point x="685" y="-80" type="line"/>
      <point x="1105" y="795" type="line"/>
      <point x="685" y="1670" type="line"/>
      <point x="515" y="1670" type="line"/>
      <point x="95" y="795" type="line"/>
      <point x="515" y="-80" type="line"/>
    </contour>
    <contour>
      <point x="305" y="795" type="line"/>
      <point x="600" y="1407" type="line"/>
      <point x="895" y="795" type="line"/>
      <point x="600" y="183" type="line"/>
    </contour>
  </outline>
</glyph>
<glyph name="f_f" format="2">
  <advance width="1454"/>
  <unicode hex="FB00"/>
  <anchor x="690" y="0" name="caret_1"/>
  <outline>
    <contour>
      <point x="473" y="0" type="line"/>
      <point x="473" y="843" type="line"/>
      <point x="819" y="843" type="line"/>
      <point x="819" y="0" type="line"/>
      <point x="1057" y="0" type="line"/>
      <point x="1057" y="843" type="line"/>
      <point x="1306" y="843" type="line"/>
      <point x="1306" y="1024" type="line"/>
      <point x="1057" y="1024" type="line"/>
      <point x="1057" y="1325" type="line" smooth="yes"/>
      <point x="1057" y="1479"/>
      <point x="1095" y="1541"/>
      <point x="1194" y="1541" type="curve" smooth="yes"/>
      <point x="1245" y="1541"/>
      <point x="1283" y="1526"/>
      <point x="1309" y="1509" type="curve"/>
      <point x="1391" y="1675" type="line"/>
      <point x="1347" y="1710"/>
      <point x="1267" y="1750"/>
      <point x="1155" y="1750" type="curve" smooth="yes"/>
      <point x="946" y="1750"/>
      <point x="819" y="1595"/>
      <point x="819" y="1327" type="curve" smooth="yes"/>
      <point x="819" y="1024" type="line"/>
      <point x="473" y="1024" type="line"/>
      <point x="473" y="1325" type="line" smooth="yes"/>
      <point x="473" y="1479"/>
      <point x="512" y="1541"/>
      <point x="611" y="1541" type="curve" smooth="yes"/>
      <point x="654" y="1541"/>
      <point x="690" y="1528"/>
      <point x="713" y="1515" type="curve"/>
      <point x="798" y="1682" type="line"/>
      <point x="753" y="1715"/>
      <point x="674" y="1750"/>
      <point x="572" y="1750" type="curve" smooth="yes"/>
      <point x="364" y="1750"/>
      <point x="236" y="1595"/>
      <point x="236" y="1327" type="curve" smooth="yes"/>
      <point x="236" y="1024" type="line"/>
      <point x="113" y="1024" type="line"/>
      <point x="113" y="843" type="line"/>
      <point x="236" y="843" type="line"/>
      <point x="236" y="0" type="line"/>
    </contour>
  </outline>
</glyph>
<glyph name="fi" format="2">
  <advance width="1178"/>
  <unicode hex="FB01"/>
  <anchor x="598" y="0" name="caret_1"/>
  <outline>
    <contour>
      <point x="465" y="0" type="line"/>
      <point x="465" y="843" type="line"/>
      <point x="792" y="843" type="line"/>
      <point x="792" y="0" type="line"/>
      <point x="1030" y="0" type="line"/>
      <point x="1030" y="1024" type="line"/>
      <point x="465" y="1024" type="line"/>
      <point x="465" y="1325" type="line" smooth="yes"/>
      <point x="465" y="1479"/>
      <point x="514" y="1542"/>
      <point x="631" y="1542" type="curve" smooth="yes"/>
      <point x="707" y="1542"/>
      <point x="795" y="1496"/>
      <point x="839" y="1443" type="curve"/>
      <point x="932" y="1601" type="line"/>
      <point x="862" y="1680"/>
      <point x="724" y="1750"/>
      <point x="564" y="1750" type="curve" smooth="yes"/>
      <point x="355" y="1750"/>
      <point x="227" y="1595"/>
      <point x="227" y="1327" type="curve" smooth="yes"/>
      <point x="227" y="1024" type="line"/>
      <point x="105" y="1024" type="line"/>
      <point x="105" y="843" type="line"/>
      <point x="227" y="843" type="line"/>
      <point x="227" y="0" type="line"/>
    </contour>
  </outline>
</glyph>
<glyph name="fl" format="2">
  <advance width="1273"/>
  <unicode hex="FB02"/>
  <anchor x="624" y="0" name="caret_1"/>
  <outline>
    <contour>
      <point x="467" y="0" type="line"/>
      <point x="467" y="843" type="line"/>
      <point x="717" y="843" type="line"/>
      <point x="717" y="1024" type="line"/>
      <point x="467" y="1024" type="line"/>
      <point x="467" y="1325" type="line" smooth="yes"/>
      <point x="467" y="1479"/>
      <point x="505" y="1541"/>
      <point x="605" y="1541" type="curve" smooth="yes"/>
      <point x="637" y="1541"/>
      <point x="666" y="1534"/>
      <point x="693" y="1522" type="curve"/>
      <point x="750" y="1708" type="line"/>
      <point x="714" y="1728"/>
      <point x="651" y="1750"/>
      <point x="565" y="1750" type="curve" smooth="yes"/>
      <point x="357" y="1750"/>
      <point x="231" y="1595"/>
      <point x="231" y="1327" type="curve" smooth="yes"/>
      <point x="231" y="1024" type="line"/>
      <point x="107" y="1024" type="line"/>
      <point x="107" y="843" type="line"/>
      <point x="231" y="843" type="line"/>
      <point x="231" y="0" type="line"/>
    </contour>
    <contour>
      <point x="1055" y="0" type="line"/>
      <point x="1055" y="1720" type="line" name=".hr01"/>
      <point x="819" y="1720" type="line"/>
      <point x="819" y="0" type="line"/>
    </contour>
  </outline>
</glyph>
<glyph name="f_f_i" format="2">
  <advance width="1807"/>
  <unicode hex="FB03"/>
  <anchor x="600" y="0" name="caret_1"/>
  <anchor x="1200" y="0" name="caret_2"/>
  <outline>
    <contour>
      <point x="488" y="0" type="line"/>
      <point x="488" y="843" type="line"/>
      <point x="834" y="843" type="line"/>
      <point x="834" y="0" type="line"/>
      <point x="1072" y="0" type="line"/>
      <point x="1072" y="843" type="line"/>
      <point x="1398" y="843" type="line"/>
      <point x="1398" y="0" type="line"/>
      <point x="1636" y="0" type="line"/>
      <point x="1636" y="1024" type="line"/>
      <point x="1072" y="1024" type="line"/>
      <point x="1072" y="1325" type="line" smooth="yes"/>
      <point x="1072" y="1479"/>
      <point x="1121" y="1542"/>
      <point x="1238" y="1542" type="curve" smooth="yes"/>
      <point x="1315" y="1542"/>
      <point x="1403" y="1496"/>
      <point x="1446" y="1443" type="curve"/>
      <point x="1539" y="1601" type="line"/>
      <point x="1469" y="1680"/>
      <point x="1331" y="1750"/>
      <point x="1172" y="1750" type="curve" smooth="yes"/>
      <point x="962" y="1750"/>
      <point x="834" y="1595"/>
      <point x="834" y="1327" type="curve" smooth="yes"/>
      <point x="834" y="1024" type="line"/>
      <point x="488" y="1024" type="line"/>
      <point x="488" y="1325" type="line" smooth="yes"/>
      <point x="488" y="1479"/>
      <point x="526" y="1541"/>
      <point x="625" y="1541" type="curve" smooth="yes"/>
      <point x="668" y="1541"/>
      <point x="705" y="1528"/>
      <point x="727" y="1515" type="curve"/>
      <point x="813" y="1682" type="line"/>
      <point x="767" y="1715"/>
      <point x="688" y="1750"/>
      <point x="586" y="1750" type="curve" smooth="yes"/>
      <point x="378" y="1750"/>
      <point x="250" y="1595"/>
      <point x="250" y="1327" type="curve" smooth="yes"/>
      <point x="250" y="1024" type="line"/>
      <point x="128" y="1024" type="line"/>
      <point x="128" y="843" type="line"/>
      <point x="250" y="843" type="line"/>
      <point x="250" y="0" type="line"/>
    </contour>
  </outline>
</glyph>
<glyph name="f_f_l" format="2">
  <advance width="1858"/>
  <unicode hex="FB04"/>
  <anchor x="596" y="0" name="caret_1"/>
  <anchor x="1212" y="0" name="caret_2"/>
  <outline>
    <contour>
      <point x="469" y="0" type="line"/>
      <point x="469" y="843" type="line"/>
      <point x="814" y="843" type="line"/>
      <point x="814" y="0" type="line"/>
      <point x="1051" y="0" type="line"/>
      <point x="1051" y="843" type="line"/>
      <point x="1301" y="843" type="line"/>
      <point x="1301" y="1024" type="line"/>
      <point x="1051" y="1024" type="line"/>
      <point x="1051" y="1325" type="line" smooth="yes"/>
      <point x="1051" y="1479"/>
      <point x="1089" y="1541"/>
      <point x="1189" y="1541" type="curve" smooth="yes"/>
      <point x="1221" y="1541"/>
      <point x="1250" y="1534"/>
      <point x="1277" y="1522" type="curve"/>
      <point x="1334" y="1708" type="line"/>
      <point x="1298" y="1728"/>
      <point x="1235" y="1750"/>
      <point x="1149" y="1750" type="curve" smooth="yes"/>
      <point x="941" y="1750"/>
      <point x="814" y="1595"/>
      <point x="814" y="1327" type="curve" smooth="yes"/>
      <point x="814" y="1024" type="line"/>
      <point x="469" y="1024" type="line"/>
      <point x="469" y="1325" type="line" smooth="yes"/>
      <point x="469" y="1479"/>
      <point x="506" y="1541"/>
      <point x="606" y="1541" type="curve" smooth="yes"/>
      <point x="648" y="1541"/>
      <point x="685" y="1528"/>
      <point x="708" y="1515" type="curve"/>
      <point x="793" y="1682" type="line"/>
      <point x="748" y="1715"/>
      <point x="669" y="1750"/>
      <point x="566" y="1750" type="curve" smooth="yes"/>
      <point x="358" y="1750"/>
      <point x="231" y="1595"/>
      <point x="231" y="1327" type="curve" smooth="yes"/>
      <point x="231" y="1024" type="line"/>
      <point x="108" y="1024" type="line"/>
      <point x="108" y="843" type="line"/>
      <point x="231" y="843" type="line"/>
      <point x="231" y="0" type="line"/>
    </contour>
    <contour>
      <point x="1640" y="0" type="line"/>
      <point x="1640" y="1720" type="line" name=".hr01"/>
      <point x="1402" y="1720" type="line"/>
      <point x="1402" y="0" type="line"/>
    </contour>
  </outline>
</glyph>
<glyph name="A.tnum" format="2">
  <advance width="1500"/>
  <anchor x="749" y="0" name="bottom"/>
  <anchor x="1522" y="0" name="ogonek"/>
  <anchor x="749" y="1650" name="top"/>
  <outline>
    <contour>
      <point x="246" y="0" type="line"/>
      <point x="412" y="440" type="line"/>
      <point x="1086" y="440" type="line"/>
      <point x="1252" y="0" type="line"/>
      <point x="1522" y="0" type="line"/>
      <point x="864" y="1650" type="line"/>
      <point x="634" y="1650" type="line"/>
      <point x="-24" y="0" type="line"/>
    </contour>
    <contour>
      <point x="749" y="1314" type="line"/>
      <point x="1000" y="660" type="line"/>
      <point x="498" y="660" type="line"/>
    </contour>
  </outline>
</glyph>
<glyph name="M.ss01" format="2">
  <advance width="2087"/>
  <anchor x="1043" y="66" name="bottom"/>
  <anchor x="1043" y="1650" name="top"/>
  <outline>
    <contour>
      <point x="409" y="0" type="line"/>
      <point x="546" y="1197" type="line"/>
      <point x="963" y="66" type="line"/>
      <point x="1124" y="66" type="line"/>
      <point x="1541" y="1197" type="line"/>
      <point x="1678" y="0" type="line"/>
      <point x="1928" y="0" type="line"/>
      <point x="1743" y="1650" type="line"/>
      <point x="1476" y="1650" type="line"/>
      <point x="1043" y="507" type="line"/>
      <point x="611" y="1650" type="line"/>
      <point x="344" y="1650" type="line"/>
      <point x="159" y="0" type="line"/>
    </contour>
  </outline>
</glyph>
<glyph name="P.tnum" format="2">
  <advance width="1500"/>
  <outline>
    <contour>
      <point x="546" y="0" type="line"/>
      <point x="546" y="660" type="line"/>
      <point x="800" y="660" type="line" smooth="yes"/>
      <point x="1122" y="660"/>
      <point x="1342" y="842"/>
      <point x="1342" y="1155" type="curve" smooth="yes"/>
      <point x="1342" y="1468"/>
      <point x="1122" y="1650"/>
      <point x="800" y="1650" type="curve" smooth="yes"/>
      <point x="296" y="1650" type="line"/>
      <point x="296" y="0" type="line"/>
    </contour>
    <contour>
      <point x="546" y="1450" type="line"/>
      <point x="727" y="1450" type="line" smooth="yes"/>
      <point x="931" y="1450"/>
      <point x="1082" y="1352"/>
      <point x="1082" y="1155" type="curve" smooth="yes"/>
      <point x="1082" y="958"/>
      <point x="931" y="860"/>
      <point x="727" y="860" type="curve" smooth="yes"/>
      <point x="546" y="860" type="line"/>
    </contour>
  </outline>
</glyph>
<glyph name="a.ss01" format="2">
  <advance width="1446"/>
  <anchor x="627" y="-2" name="bottom"/>
  <anchor x="1250" y="0" name="ogonek"/>
  <anchor x="699" y="1024" name="top"/>
  <outline>
    <contour>
      <point x="367" y="512" type="curve" smooth="yes"/>
      <point x="367" y="710"/>
      <point x="505" y="852"/>
      <point x="694" y="852" type="curve" smooth="yes"/>
      <point x="884" y="852"/>
      <point x="1020" y="711"/>
      <point x="1020" y="512" type="curve" smooth="yes"/>
      <point x="1020" y="314"/>
      <point x="884" y="172"/>
      <point x="694" y="172" type="curve" smooth="yes"/>
      <point x="505" y="172"/>
      <point x="367" y="314"/>
    </contour>
    <contour>
      <point x="119" y="512" type="curve" smooth="yes"/>
      <point x="119" y="203"/>
      <point x="333" y="-32"/>
      <point x="627" y="-32" type="curve" smooth="yes"/>
      <point x="786" y="-32"/>
      <point x="923" y="41"/>
      <point x="1013" y="170" type="curve"/>
      <point x="1013" y="0" type="line"/>
      <point x="1250" y="0" type="line" name=".hr01"/>
      <point x="1250" y="1024" type="line"/>
      <point x="1013" y="1024" type="line"/>
      <point x="1013" y="854" type="line"/>
      <point x="923" y="983"/>
      <point x="786" y="1056"/>
      <point x="627" y="1056" type="curve" smooth="yes" name=".hr02"/>
      <point x="333" y="1056"/>
      <point x="119" y="822"/>
    </contour>
  </outline>
</glyph>
<glyph name="eight.pnum" format="2">
  <advance width="1397"/>
  <outline>
    <contour>
      <point x="698" y="-32" type="curve" smooth="yes"/>
      <point x="1017" y="-32"/>
      <point x="1263" y="172"/>
      <point x="1263" y="448" type="curve" smooth="yes"/>
      <point x="1263" y="643"/>
      <point x="1144" y="810"/>
      <point x="962" y="883" type="curve"/>
      <point x="1105" y="954"/>
      <point x="1197" y="1095" name=".hr01"/>
      <point x="1197" y="1255" type="curve" smooth="yes"/>
      <point x="1197" y="1517"/>
      <point x="949" y="1680"/>
      <point x="698" y="1680" type="curve" smooth="yes"/>
      <point x="420" y="1680"/>
      <point x="199" y="1497"/>
      <point x="199" y="1254" type="curve" smooth="yes"/>
      <point x="199" y="1098"/>
      <point x="288" y="955"/>
      <point x="434" y="883" type="curve"/>
      <point x="254" y="811"/>
      <point x="134" y="644" name=".hr02"/>
      <point x="134" y="449" type="curve" smooth="yes"/>
      <point x="134" y="171"/>
      <point x="379" y="-32"/>
    </contour>
    <contour>
      <point x="698" y="185" type="curve" smooth="yes"/>
      <point x="525" y="185"/>
      <point x="405" y="310"/>
      <point x="405" y="474" type="curve" smooth="yes"/>
      <point x="405" y="644"/>
      <point x="532" y="764"/>
      <point x="698" y="764" type="curve" smooth="yes"/>
      <point x="867" y="764"/>
      <point x="991" y="642"/>
      <point x="991" y="474" type="curve" smooth="yes"/>
      <point x="991" y="310"/>
      <point x="872" y="185"/>
    </contour>
    <contour>
      <point x="698" y="976" type="curve" smooth="yes"/>
      <point x="550" y="976"/>
      <point x="441" y="1085"/>
      <point x="441" y="1231" type="curve" smooth="yes"/>
      <point x="441" y="1377" name=".hr03"/>
      <point x="551" y="1488"/>
      <point x="698" y="1488" type="curve" smooth="yes"/>
      <point x="845" y="1488"/>
      <point x="955" y="1377"/>
      <point x="955" y="1231" type="curve" smooth="yes"/>
      <point x="955" y="1085"/>
      <point x="846" y="976"/>
    </contour>
  </outline>
</glyph>
<glyph name="f_f_j" format="2">
  <advance width="1704"/>
  <outline>
    <contour>
      <point x="1251" y="-550" type="curve" smooth="yes"/>
      <point x="1476" y="-550"/>
      <point x="1567" y="-393"/>
      <point x="1567" y="-195" type="curve" smooth="yes"/>
      <point x="1567" y="1024" type="line"/>
      <point x="1004" y="1024" type="line"/>
      <point x="1004" y="1325" type="line" smooth="yes"/>
      <point x="1004" y="1479"/>
      <point x="1052" y="1542"/>
      <point x="1169" y="1542" type="curve" smooth="yes"/>
      <point x="1246" y="1542"/>
      <point x="1334" y="1496"/>
      <point x="1378" y="1443" type="curve"/>
      <point x="1470" y="1601" type="line"/>
      <point x="1401" y="1680"/>
      <point x="1263" y="1750"/>
      <point x="1102" y="1750" type="curve" smooth="yes"/>
      <point x="894" y="1750"/>
      <point x="765" y="1595"/>
      <point x="765" y="1327" type="curve" smooth="yes"/>
      <point x="765" y="1024" type="line"/>
      <point x="419" y="1024" type="line"/>
      <point x="419" y="1325" type="line" smooth="yes"/>
      <point x="419" y="1479"/>
      <point x="457" y="1541"/>
      <point x="557" y="1541" type="curve" smooth="yes"/>
      <point x="600" y="1541"/>
      <point x="636" y="1528"/>
      <point x="659" y="1515" type="curve"/>
      <point x="743" y="1682" type="line"/>
      <point x="698" y="1715"/>
      <point x="620" y="1750"/>
      <point x="518" y="1750" type="curve" smooth="yes"/>
      <point x="309" y="1750"/>
      <point x="182" y="1595"/>
      <point x="182" y="1327" type="curve" smooth="yes"/>
      <point x="182" y="1024" type="line"/>
      <point x="59" y="1024" type="line"/>
      <point x="59" y="843" type="line"/>
      <point x="182" y="843" type="line"/>
      <point x="182" y="0" type="line"/>
      <point x="419" y="0" type="line"/>
      <point x="419" y="843" type="line"/>
      <point x="765" y="843" type="line"/>
      <point x="765" y="0" type="line"/>
      <point x="1004" y="0" type="line"/>
      <point x="1004" y="843" type="line"/>
      <point x="1330" y="843" type="line"/>
      <point x="1330" y="-159" type="line" smooth="yes"/>
      <point x="1330" y="-281"/>
      <point x="1282" y="-337"/>
      <point x="1200" y="-337" type="curve" smooth="yes"/>
      <point x="1157" y="-337"/>
      <point x="1118" y="-321"/>
      <point x="1095" y="-303" type="curve"/>
      <point x="1022" y="-493" type="line"/>
      <point x="1061" y="-519"/>
      <point x="1136" y="-550"/>
    </contour>
  </outline>
</glyph>
